<svg xmlns="http://www.w3.org/2000/svg" width="23.016" height="31.551" viewBox="0 0 23.016 31.551">
  <path id="Union_6" data-name="Union 6" d="M11.415,31.551l-.37-.336c-.369-.338-9.151-8.226-10.768-16.884A24.267,24.267,0,0,1,0,11.739,11.816,11.816,0,0,1,11.277,0,11.793,11.793,0,0,1,23.016,11.739c0,.574-.231,2.451-.278,2.642h0c-1.664,8.609-10.4,16.545-10.814,16.834l-.37.336ZM1.387,11.787c0,.383.231,2.116.277,2.307h0c1.34,7.067,8.041,13.9,9.843,15.628,1.8-1.73,8.5-8.561,9.844-15.628.046-.241.277-1.924.277-2.356a10.327,10.327,0,0,0-9.89-10.292c-.058,0-.115-.005-.174-.005A10.36,10.36,0,0,0,1.387,11.787Zm4.02-1.012a6.222,6.222,0,0,1,6.1-6.349,6.222,6.222,0,0,1,6.1,6.349,6.221,6.221,0,0,1-6.1,6.347A6.221,6.221,0,0,1,5.408,10.775Zm1.386,0a4.834,4.834,0,0,0,4.714,4.905,4.834,4.834,0,0,0,4.715-4.905,4.833,4.833,0,0,0-4.714-4.907A4.833,4.833,0,0,0,6.794,10.775Z" transform="translate(0 0)" fill="#fff"/>
</svg>
