<svg xmlns="http://www.w3.org/2000/svg" width="26.672" height="26.721" viewBox="0 0 26.672 26.721">
  <path id="Icon_feather-phone" data-name="Icon feather-phone" d="M27.837,21.507v3.721a2.481,2.481,0,0,1-2.7,2.481,24.548,24.548,0,0,1-10.7-3.808,24.188,24.188,0,0,1-7.442-7.442A24.548,24.548,0,0,1,3.178,5.7,2.481,2.481,0,0,1,5.646,3H9.368a2.481,2.481,0,0,1,2.481,2.133,15.927,15.927,0,0,0,.868,3.486,2.481,2.481,0,0,1-.558,2.617l-1.575,1.575a19.846,19.846,0,0,0,7.442,7.442L19.6,18.679a2.481,2.481,0,0,1,2.617-.558,15.927,15.927,0,0,0,3.486.868,2.481,2.481,0,0,1,2.133,2.518Z" transform="translate(-2.167 -2)" fill="none" stroke="#fff" stroke-linecap="round" stroke-linejoin="round" stroke-width="2"/>
</svg>
