<?xml version="1.0" standalone="no"?>
<!DOCTYPE svg PUBLIC "-//W3C//DTD SVG 1.1//EN" "http://www.w3.org/Graphics/SVG/1.1/DTD/svg11.dtd" >
<svg xmlns="http://www.w3.org/2000/svg" xmlns:xlink="http://www.w3.org/1999/xlink" version="1.1">
<metadata>
Created by FontForge 20170731 at Thu Apr  8 03:25:27 2021
 By Aleksey,,,
Copyright (c)2020 by Kulokale Studio. All rights reserved.
</metadata>
<defs>
<font id="Bugaki-Oblique" horiz-adv-x="1103" >
  <font-face 
    font-family="Bugaki"
    font-weight="400"
    font-style="oblique"
    font-stretch="normal"
    units-per-em="1000"
    panose-1="0 0 0 0 0 0 0 0 0 0"
    ascent="800"
    descent="-200"
    x-height="468"
    cap-height="725"
    bbox="-69.6 -261 1454.25 766"
    underline-thickness="50"
    underline-position="-175"
    slope="-10"
    unicode-range="U+000D-FB03"
  />
<missing-glyph horiz-adv-x="1112" 
d="M174 705h1013l-125 -705h-1012zM573 141q1 4 -1.5 6t-6.5 1q-12 -3 -23 4.5t-19.5 25t-13.5 31t-11.5 36.5t-7.5 26q-14 46 -72 44q15 8 39 22t29 17q19 11 36.5 20.5t26 13.5t15 8t9 7.5t3.5 8.5l1 7q1 4 -1.5 7.5t-7.5 3.5h-99q-5 0 -9.5 -3t-4.5 -7l-1 -18
q10 -11 8.5 -19t-21.5 -20l-104 -61q9 52 25.5 142t17.5 98q7 48 1 64t-28 16q-25 0 -68.5 -13.5t-66.5 -25.5q-8 -4 -9.5 -14t3.5 -16q2 -2 14.5 -7.5t19 -16t2.5 -30.5l-56 -318q-2 -16 -30.5 -41t-30.5 -28l-3 -16q-1 -10 10 -10h198q10 0 12 10l1 6q2 8 -17.5 33.5
t-16.5 44.5q0 3 15 83l17 11l41 -121q25 -70 80 -70q37 0 68 19.5t37 38.5zM1029 141q1 4 -1.5 6t-5.5 1q-12 -3 -23 4.5t-19.5 25t-13.5 31t-11.5 36.5t-7.5 26q-16 46 -73 44q15 8 68 39q19 11 36.5 20.5t26 13.5t15.5 8t9.5 7.5t3.5 8.5l1 7q2 11 -9 11h-99
q-12 0 -14 -10q-1 -2 -1.5 -4t-1.5 -7.5t1 -6.5q8 -9 9.5 -13.5t-3 -10.5t-18.5 -15l-104 -61q18 103 42 240q7 48 1.5 64t-27.5 16q-25 0 -68.5 -13.5t-66.5 -25.5q-8 -4 -9 -14t3 -16q2 -2 14.5 -7.5t19 -16t3.5 -30.5l-56 -318q-2 -16 -31 -41t-31 -28l-3 -16
q-1 -10 10 -10h197q12 0 14 10l1 6q1 8 -18 33.5t-16 44.5l1 10q2 10 6 31.5t7 41.5l18 11l41 -121q23 -70 79 -70q36 0 67 19.5t37 38.5z" />
    <glyph glyph-name="uniE000" unicode="fk" horiz-adv-x="1160" 
d="M110 440v1q1 11 9.5 18t19.5 7h41v1q-26 113 57.5 197t247.5 82q98 0 163 -36q110 51 175 29q38 -12 25 -92l-59 -334q37 13 70 36.5t56.5 46.5t48.5 45t59 36.5t76 15.5q52 2 87.5 -26.5t24.5 -78.5q-7 -33 -33 -54.5t-56 -19.5q-25 3 -41 14t-21.5 23t-15.5 22t-25 10
q-19 0 -38.5 -12t-48 -36.5t-48.5 -37.5q94 12 140.5 -18.5t60.5 -117.5l13 -78q5 -32 32 -34q16 -2 22 -6q11 -9 3 -26t-23 -17h-197q-22 0 -37.5 13t-19.5 35q-2 11 -8 45t-10 61q-10 54 -30 70t-55 13l-24 -139q-5 -28 18 -44q5 -3 15 -11q11 -9 3 -26t-23 -17h-290
q-15 0 -17 17t12 26q6 4 22 12q30 13 35 43l75 424q13 73 -20.5 124t-109.5 43q-45 -5 -70.5 -47t-24.5 -92.5t26 -83.5h108q25 0 20 -26q-1 -11 -9.5 -18t-19.5 -7h-108l-56 -317q-5 -28 18 -44q3 -2 8.5 -6t7.5 -5q11 -9 3 -26t-24 -17h-287q-15 0 -17 17t12 26q8 5 23 12
q29 14 34 43l56 317h-41q-25 0 -20 25z" />
    <glyph glyph-name="uniE001" unicode="fh" horiz-adv-x="1150" 
d="M130 415q-25 0 -20 25v1q1 11 9.5 18t19.5 7h41v1q-26 113 57.5 197t247.5 82q98 0 163 -36q110 51 175 29q38 -12 25 -92l-46 -262q35 43 85.5 69.5t103.5 27.5q95 1 130.5 -35t20.5 -119l-39 -220h1l-2 -10q-5 -28 18 -44q3 -2 8.5 -6t7.5 -5q11 -9 3 -26t-24 -17h-165
q-89 0 -73 99l29 162q12 41 11 79.5t-32 37.5q-33 -1 -64.5 -38.5t-40.5 -79.5l-29 -162q-5 -28 18 -44q5 -3 15 -11q11 -9 3 -26t-23 -17h-290q-15 0 -17 17t12 26q6 4 22 12q30 13 35 43l75 424q13 73 -20.5 124t-109.5 43q-45 -5 -70.5 -47t-24.5 -92.5t26 -83.5h108
q25 0 20 -26q-1 -11 -9.5 -18t-19.5 -7h-108l-56 -317q-5 -28 18 -44q3 -2 8.5 -6t7.5 -5q11 -9 3 -26t-24 -17h-287q-15 0 -17 17t12 26q8 5 23 12q29 14 34 43l56 317h-41z" />
    <glyph glyph-name="uniE002" unicode="fb" horiz-adv-x="1112" 
d="M110 440v1q1 11 9.5 18t19.5 7h41v1q-26 113 57.5 197t247.5 82q98 0 163 -36q110 51 175 29q38 -12 25 -92l-33 -188q42 16 92 21q117 8 176 -60t39 -186q-22 -120 -99.5 -183.5t-197.5 -63.5h-9q-47 3 -87 28t-66 20q-21 -4 -51.5 -13.5t-62.5 -15.5t-75 -6
q-15 0 -17 17t12 26q6 4 22 12q28 13 35 42l75 425q13 73 -20.5 124t-109.5 43q-45 -5 -70.5 -47t-24.5 -92.5t26 -83.5h108q25 0 20 -26q-1 -11 -9.5 -18t-19.5 -7h-108l-56 -317q-5 -28 18 -44q3 -2 8.5 -6t7.5 -5q11 -9 3 -26t-24 -17h-287q-15 0 -17 17t12 26q8 5 23 12
q29 14 34 43l56 317h-41q-25 0 -20 25zM837 415q-33 -5 -41 -38t-14 -152q-5 -108 6.5 -148t45.5 -34t44.5 46.5t11.5 153.5q1 112 -8.5 145t-44.5 27z" />
    <glyph glyph-name="f_f" unicode="ff" horiz-adv-x="961" 
d="M582 441q1 11 9.5 18t19.5 7h41v1q-26 113 57.5 197t247.5 82q104 -1 167 -38.5t58 -95.5q-3 -44 -42.5 -71.5t-101.5 -21.5q-37 4 -54.5 23t-17.5 44t2.5 49.5t-1.5 41t-23 16.5q-30 -1 -53 -27.5t-32.5 -62t-6 -74.5t21.5 -63h108q24 0 21 -26q-5 -25 -30 -25h-108
l-56 -317q-5 -28 18 -44q3 -2 8.5 -6t7.5 -5q11 -9 3 -26t-24 -17h-287q-15 0 -17 17t12 26q8 5 23 12q29 14 34 43l56 317h-41q-25 0 -20 25v1zM130 415q-25 0 -20 25v1q1 11 9.5 18t19.5 7h41v1q-17 75 5.5 137t92.5 102.5t179 40.5q100 0 145.5 -39.5t36.5 -87.5
q-7 -40 -41 -67.5t-76 -30.5q-24 -1 -36 5.5t-13 22t1.5 29.5t9.5 38.5t10 38.5q3 16 -7 27t-27 10q-40 -1 -63.5 -44t-21.5 -96.5t27 -86.5h108q25 0 20 -26q-1 -11 -9.5 -18t-19.5 -7h-108l-56 -317q-5 -28 18 -44q3 -2 8.5 -6t7.5 -5q11 -9 3 -26t-24 -17h-287
q-15 0 -17 17t12 26q8 5 23 12q29 14 34 43l56 317h-41z" />
    <glyph glyph-name="fi" unicode="fi" horiz-adv-x="797" 
d="M110 441q1 11 9.5 18t19.5 7h41v1q-17 74 12.5 140.5t110.5 112t199 46.5q83 0 158 -15q31 11 72 11q64 0 94 -28t21 -78q-9 -52 -49 -80t-104 -28q-4 0 -11 0.5t-10 0.5h-3q-40 3 -64 21.5t-33 42.5t-16.5 47.5t-23 38.5t-44.5 13q-34 -2 -60 -31.5t-37.5 -68.5
t-9.5 -80.5t20 -65.5h87q14 0 44 1q140 2 192 -17q80 -31 65 -117l-41 -235q-5 -28 18 -44q5 -3 15 -11q11 -9 3 -26t-23 -17h-290q-15 0 -17 17t12 26q6 4 22 12q30 13 35 43l47 267q5 25 -15.5 37.5t-70.5 12.5h-92l-56 -317q-5 -28 18 -44q3 -2 8.5 -6t7.5 -5
q11 -9 3 -26t-24 -17h-287q-15 0 -17 17t12 26q8 5 23 12q29 14 34 43l56 317h-41q-25 0 -20 25v1z" />
    <glyph glyph-name="fl" unicode="fl" horiz-adv-x="802" 
d="M130 415q-25 0 -20 25v1q1 11 9.5 18t19.5 7h41v1q-26 113 57.5 197t247.5 82q98 0 163 -36q110 51 175 29q38 -12 25 -92l-97 -549q-5 -28 18 -44q5 -3 15 -11q11 -9 3 -26t-23 -17h-290q-15 0 -17 17t12 26q6 4 22 12q30 13 35 43l75 424q13 73 -20.5 124t-109.5 43
q-45 -5 -70.5 -47t-24.5 -92.5t26 -83.5h108q25 0 20 -26q-1 -11 -9.5 -18t-19.5 -7h-108l-56 -317q-5 -28 18 -44q3 -2 8.5 -6t7.5 -5q11 -9 3 -26t-24 -17h-287q-15 0 -17 17t12 26q8 5 23 12q29 14 34 43l56 317h-41z" />
    <glyph glyph-name="f_f_i" unicode="ffi" horiz-adv-x="1267" 
d="M600 415q-25 0 -20 25v1q5 25 29 25h41l1 1q-17 74 12 140.5t110 112t199 46.5q83 0 158 -15q33 11 72 11q64 0 94.5 -28t21.5 -78q-10 -52 -50 -80t-104 -28q-4 0 -10.5 0.5t-9.5 0.5h-4q-40 3 -64 21.5t-33 42.5t-16 47.5t-23 38.5t-44 13q-34 -2 -60.5 -31.5
t-38 -68.5t-9.5 -80.5t20 -65.5h87q14 0 44 1q140 2 193 -17q80 -30 65 -117l-42 -235q-5 -28 18 -44q3 -2 8.5 -6t7.5 -5q11 -9 2.5 -26t-23.5 -17h-290q-15 0 -17 17t12 26q6 4 22 12q30 13 35 43l47 267q5 25 -15 37.5t-70 12.5h-93l-56 -317q-5 -27 19 -44
q3 -2 7.5 -5.5t7.5 -5.5q11 -9 3 -26t-24 -17h-286q-10 0 -15 8t-2.5 18.5t11.5 16.5q14 8 23 12q29 14 34 43l56 317h-41zM130 415q-25 0 -20 25v1q1 11 9.5 18t19.5 7h41v1q-17 75 5.5 137t92.5 102.5t179 40.5q100 0 145.5 -39.5t36.5 -87.5q-7 -40 -41 -67.5t-76 -30.5
q-24 -1 -36 5.5t-13 22t1.5 29.5t9.5 38.5t10 38.5q3 16 -7 27t-27 10q-40 -1 -63.5 -44t-21.5 -96.5t27 -86.5h108q25 0 20 -26q-1 -11 -9.5 -18t-19.5 -7h-108l-56 -317q-5 -28 18 -44q3 -2 8.5 -6t7.5 -5q11 -9 3 -26t-24 -17h-287q-15 0 -17 17t12 26q8 5 23 12
q29 14 34 43l56 317h-41z" />
    <glyph glyph-name=".notdef" horiz-adv-x="1112" 
d="M174 705h1013l-125 -705h-1012zM573 141q1 4 -1.5 6t-6.5 1q-12 -3 -23 4.5t-19.5 25t-13.5 31t-11.5 36.5t-7.5 26q-14 46 -72 44q15 8 39 22t29 17q19 11 36.5 20.5t26 13.5t15 8t9 7.5t3.5 8.5l1 7q1 4 -1.5 7.5t-7.5 3.5h-99q-5 0 -9.5 -3t-4.5 -7l-1 -18
q10 -11 8.5 -19t-21.5 -20l-104 -61q9 52 25.5 142t17.5 98q7 48 1 64t-28 16q-25 0 -68.5 -13.5t-66.5 -25.5q-8 -4 -9.5 -14t3.5 -16q2 -2 14.5 -7.5t19 -16t2.5 -30.5l-56 -318q-2 -16 -30.5 -41t-30.5 -28l-3 -16q-1 -10 10 -10h198q10 0 12 10l1 6q2 8 -17.5 33.5
t-16.5 44.5q0 3 15 83l17 11l41 -121q25 -70 80 -70q37 0 68 19.5t37 38.5zM1029 141q1 4 -1.5 6t-5.5 1q-12 -3 -23 4.5t-19.5 25t-13.5 31t-11.5 36.5t-7.5 26q-16 46 -73 44q15 8 68 39q19 11 36.5 20.5t26 13.5t15.5 8t9.5 7.5t3.5 8.5l1 7q2 11 -9 11h-99
q-12 0 -14 -10q-1 -2 -1.5 -4t-1.5 -7.5t1 -6.5q8 -9 9.5 -13.5t-3 -10.5t-18.5 -15l-104 -61q18 103 42 240q7 48 1.5 64t-27.5 16q-25 0 -68.5 -13.5t-66.5 -25.5q-8 -4 -9 -14t3 -16q2 -2 14.5 -7.5t19 -16t3.5 -30.5l-56 -318q-2 -16 -31 -41t-31 -28l-3 -16
q-1 -10 10 -10h197q12 0 14 10l1 6q1 8 -18 33.5t-16 44.5l1 10q2 10 6 31.5t7 41.5l18 11l41 -121q23 -70 79 -70q36 0 67 19.5t37 38.5z" />
    <glyph glyph-name="uni0000" horiz-adv-x="0" 
 />
    <glyph glyph-name="uni0000" horiz-adv-x="0" 
 />
    <glyph glyph-name="uni000D" unicode="&#xd;" horiz-adv-x="250" 
 />
    <glyph glyph-name="space" unicode=" " horiz-adv-x="350" 
 />
    <glyph glyph-name="exclam" unicode="!" horiz-adv-x="1113" 
d="M174 705h1012l-124 -705h-1012zM573 141q0 9 -8 7q-12 -3 -23 4.5t-19.5 25t-13.5 31t-11.5 36.5t-7.5 26q-16 46 -72 44q15 8 39 22t29 17q19 11 36.5 20.5t26 13.5t15 8t9 7.5t3.5 8.5l1 7q1 4 -1.5 7.5t-7.5 3.5h-99q-5 0 -9.5 -3t-4.5 -7l-1 -18q10 -11 8.5 -19
t-21.5 -20l-64 -38l-40 -23q9 52 25.5 142t17.5 98q6 31 4.5 48.5t-9 24t-21 7t-32.5 -3.5q-65 -14 -104 -35q-8 -4 -9.5 -14t3.5 -16q2 -2 14.5 -7.5t19 -16t2.5 -30.5l-56 -318q-2 -16 -30.5 -41t-30.5 -29l-3 -15q-1 -10 10 -10h198q10 0 12 10l1 6q2 8 -17.5 33.5
t-16.5 44.5q0 3 15 83l17 10l41 -120q24 -70 80 -70q37 0 68 19.5t37 38.5zM1029 141q1 4 -1.5 6t-5.5 1q-12 -3 -23 4.5t-19.5 25t-13.5 31t-11.5 36.5t-7.5 26q-16 46 -73 44q15 8 68 39q19 11 36.5 20.5t26 13.5t15 8t9 7.5t3.5 8.5l2 7q1 4 -2 7.5t-7 3.5h-99
q-12 0 -14 -10q-1 -2 -1.5 -4t-1.5 -7.5t1 -6.5q8 -9 9.5 -13.5t-3 -10.5t-18.5 -15l-64 -38l-40 -23q18 103 42 240q11 58 -1.5 70.5t-56.5 5.5q-67 -15 -103 -35q-8 -4 -9.5 -14t3.5 -16q2 -2 14.5 -7.5t19 -16t3.5 -30.5l-56 -318q-2 -16 -31 -41t-31 -29l-3 -15
q-1 -10 10 -10h197q12 0 14 10l1 6q1 8 -18 33.5t-16 44.5l1 10q2 10 6 31.5t7 41.5l18 10l40 -120q24 -70 80 -70q36 0 67 19.5t37 38.5z" />
    <glyph glyph-name="quotedbl" unicode="&#x22;" 
d="M169 705h1012l-124 -705h-1012zM568 141q0 9 -8 7q-12 -3 -23 4.5t-19.5 25t-13.5 31t-11.5 36.5t-7.5 26q-16 46 -72 44q15 8 39 22t29 17q19 11 36.5 20.5t26 13.5t15 8t9 7.5t3.5 8.5l1 7q1 4 -1.5 7.5t-7.5 3.5h-99q-5 0 -9.5 -3t-4.5 -7l-1 -18q10 -11 8.5 -19
t-21.5 -20l-64 -38l-40 -23q9 52 25.5 142t17.5 98q6 31 4.5 48.5t-9 24t-21 7t-32.5 -3.5q-65 -14 -104 -35q-8 -4 -9.5 -14t3.5 -16q2 -2 14.5 -7.5t19 -16t2.5 -30.5l-56 -318q-2 -16 -30.5 -41t-30.5 -29l-3 -15q-1 -10 10 -10h198q10 0 12 10l1 6q2 8 -17.5 33.5
t-16.5 44.5q0 3 15 83l17 10l41 -120q24 -70 80 -70q37 0 68 19.5t37 38.5zM1024 141q1 4 -1.5 6t-5.5 1q-12 -3 -23 4.5t-19.5 25t-13.5 31t-11.5 36.5t-7.5 26q-16 46 -73 44q15 8 68 39q19 11 36.5 20.5t26 13.5t15 8t9 7.5t3.5 8.5l2 7q1 4 -2 7.5t-7 3.5h-99
q-12 0 -14 -10q-1 -2 -1.5 -4t-1.5 -7.5t1 -6.5q8 -9 9.5 -13.5t-3 -10.5t-18.5 -15l-64 -38l-40 -23q18 103 42 240q11 58 -1.5 70.5t-56.5 5.5q-67 -15 -103 -35q-8 -4 -9.5 -14t3.5 -16q2 -2 14.5 -7.5t19 -16t3.5 -30.5l-56 -318q-2 -16 -31 -41t-31 -29l-3 -15
q-1 -10 10 -10h197q12 0 14 10l1 6q1 8 -18 33.5t-16 44.5l2 10q1 10 5 31.5t7 41.5l18 10l40 -120q24 -70 80 -70q36 0 67 19.5t37 38.5z" />
    <glyph glyph-name="numbersign" unicode="#" horiz-adv-x="1083" 
d="M159 705h1012l-124 -705h-1012zM558 141q0 9 -8 7q-12 -3 -23 4.5t-19.5 25t-13.5 31t-11.5 36.5t-7.5 26q-16 46 -72 44q15 8 39 22t29 17q19 11 36.5 20.5t26 13.5t15 8t9 7.5t3.5 8.5l1 7q1 4 -1.5 7.5t-7.5 3.5h-99q-5 0 -9.5 -3t-4.5 -7l-1 -18q10 -11 8.5 -19
t-21.5 -20l-64 -38l-40 -23q9 52 25.5 142t17.5 98q6 31 4.5 48.5t-9 24t-21 7t-32.5 -3.5q-65 -14 -104 -35q-8 -4 -9.5 -14t3.5 -16q2 -2 14.5 -7.5t19 -16t2.5 -30.5l-56 -318q-2 -16 -30.5 -41t-30.5 -29l-3 -15q-1 -10 10 -10h198q10 0 12 10l1 6q2 8 -17.5 33.5
t-16.5 44.5q0 3 15 83l17 10l41 -120q24 -70 80 -70q37 0 68 19.5t37 38.5zM1014 141q1 4 -1.5 6t-5.5 1q-12 -3 -23 4.5t-19.5 25t-13.5 31t-11.5 36.5t-7.5 26q-16 46 -73 44q15 8 68 39q19 11 36.5 20.5t26 13.5t15 8t9 7.5t3.5 8.5l2 7q1 4 -2 7.5t-7 3.5h-99
q-12 0 -14 -10q-1 -2 -1.5 -4t-1.5 -7.5t1 -6.5q8 -9 9.5 -13.5t-3 -10.5t-18.5 -15l-64 -38l-40 -23q18 103 42 240q11 58 -1.5 70.5t-56.5 5.5q-67 -15 -103 -35q-8 -4 -9.5 -14t3.5 -16q2 -2 14.5 -7.5t19 -16t3.5 -30.5l-56 -318q-2 -16 -31 -41t-31 -29l-3 -15
q-1 -10 10 -10h197q12 0 14 10l1 6q1 8 -18 33.5t-16 44.5l2 10q1 10 5 31.5t7 41.5l18 10l40 -120q24 -70 80 -70q36 0 67 19.5t37 38.5z" />
    <glyph glyph-name="dollar" unicode="$" 
d="M169 705h1012l-124 -705h-1012zM568 141q0 9 -8 7q-12 -3 -23 4.5t-19.5 25t-13.5 31t-11.5 36.5t-7.5 26q-16 46 -72 44q15 8 39 22t29 17q19 11 36.5 20.5t26 13.5t15 8t9 7.5t3.5 8.5l1 7q1 4 -1.5 7.5t-7.5 3.5h-99q-5 0 -9.5 -3t-4.5 -7l-1 -18q10 -11 8.5 -19
t-21.5 -20l-64 -38l-40 -23q9 52 25.5 142t17.5 98q6 31 4.5 48.5t-9 24t-21 7t-32.5 -3.5q-65 -14 -104 -35q-8 -4 -9.5 -14t3.5 -16q2 -2 14.5 -7.5t19 -16t2.5 -30.5l-56 -318q-2 -16 -30.5 -41t-30.5 -29l-3 -15q-1 -10 10 -10h198q10 0 12 10l1 6q2 8 -17.5 33.5
t-16.5 44.5q0 3 15 83l17 10l41 -120q24 -70 80 -70q37 0 68 19.5t37 38.5zM1024 141q1 4 -1.5 6t-5.5 1q-12 -3 -23 4.5t-19.5 25t-13.5 31t-11.5 36.5t-7.5 26q-16 46 -73 44q15 8 68 39q19 11 36.5 20.5t26 13.5t15 8t9 7.5t3.5 8.5l2 7q1 4 -2 7.5t-7 3.5h-99
q-12 0 -14 -10q-1 -2 -1.5 -4t-1.5 -7.5t1 -6.5q8 -9 9.5 -13.5t-3 -10.5t-18.5 -15l-64 -38l-40 -23q18 103 42 240q11 58 -1.5 70.5t-56.5 5.5q-67 -15 -103 -35q-8 -4 -9.5 -14t3.5 -16q2 -2 14.5 -7.5t19 -16t3.5 -30.5l-56 -318q-2 -16 -31 -41t-31 -29l-3 -15
q-1 -10 10 -10h197q12 0 14 10l1 6q1 8 -18 33.5t-16 44.5l2 10q1 10 5 31.5t7 41.5l18 10l40 -120q24 -70 80 -70q36 0 67 19.5t37 38.5z" />
    <glyph glyph-name="percent" unicode="%" 
d="M169 705h1012l-124 -705h-1012zM568 141q0 9 -8 7q-12 -3 -23 4.5t-19.5 25t-13.5 31t-11.5 36.5t-7.5 26q-16 46 -72 44q15 8 39 22t29 17q19 11 36.5 20.5t26 13.5t15 8t9 7.5t3.5 8.5l1 7q1 4 -1.5 7.5t-7.5 3.5h-99q-5 0 -9.5 -3t-4.5 -7l-1 -18q10 -11 8.5 -19
t-21.5 -20l-64 -38l-40 -23q9 52 25.5 142t17.5 98q6 31 4.5 48.5t-9 24t-21 7t-32.5 -3.5q-65 -14 -104 -35q-8 -4 -9.5 -14t3.5 -16q2 -2 14.5 -7.5t19 -16t2.5 -30.5l-56 -318q-2 -16 -30.5 -41t-30.5 -29l-3 -15q-1 -10 10 -10h198q10 0 12 10l1 6q2 8 -17.5 33.5
t-16.5 44.5q0 3 15 83l17 10l41 -120q24 -70 80 -70q37 0 68 19.5t37 38.5zM1024 141q1 4 -1.5 6t-5.5 1q-12 -3 -23 4.5t-19.5 25t-13.5 31t-11.5 36.5t-7.5 26q-16 46 -73 44q15 8 68 39q19 11 36.5 20.5t26 13.5t15 8t9 7.5t3.5 8.5l2 7q1 4 -2 7.5t-7 3.5h-99
q-12 0 -14 -10q-1 -2 -1.5 -4t-1.5 -7.5t1 -6.5q8 -9 9.5 -13.5t-3 -10.5t-18.5 -15l-64 -38l-40 -23q18 103 42 240q11 58 -1.5 70.5t-56.5 5.5q-67 -15 -103 -35q-8 -4 -9.5 -14t3.5 -16q2 -2 14.5 -7.5t19 -16t3.5 -30.5l-56 -318q-2 -16 -31 -41t-31 -29l-3 -15
q-1 -10 10 -10h197q12 0 14 10l1 6q1 8 -18 33.5t-16 44.5l2 10q1 10 5 31.5t7 41.5l18 10l40 -120q24 -70 80 -70q36 0 67 19.5t37 38.5z" />
    <glyph glyph-name="ampersand" unicode="&#x26;" 
d="M169 705h1012l-124 -705h-1012zM568 141q0 9 -8 7q-12 -3 -23 4.5t-19.5 25t-13.5 31t-11.5 36.5t-7.5 26q-16 46 -72 44q15 8 39 22t29 17q19 11 36.5 20.5t26 13.5t15 8t9 7.5t3.5 8.5l1 7q1 4 -1.5 7.5t-7.5 3.5h-99q-5 0 -9.5 -3t-4.5 -7l-1 -18q10 -11 8.5 -19
t-21.5 -20l-64 -38l-40 -23q9 52 25.5 142t17.5 98q6 31 4.5 48.5t-9 24t-21 7t-32.5 -3.5q-65 -14 -104 -35q-8 -4 -9.5 -14t3.5 -16q2 -2 14.5 -7.5t19 -16t2.5 -30.5l-56 -318q-2 -16 -30.5 -41t-30.5 -29l-3 -15q-1 -10 10 -10h198q10 0 12 10l1 6q2 8 -17.5 33.5
t-16.5 44.5q0 3 15 83l17 10l41 -120q24 -70 80 -70q37 0 68 19.5t37 38.5zM1024 141q1 4 -1.5 6t-5.5 1q-12 -3 -23 4.5t-19.5 25t-13.5 31t-11.5 36.5t-7.5 26q-16 46 -73 44q15 8 68 39q19 11 36.5 20.5t26 13.5t15 8t9 7.5t3.5 8.5l2 7q1 4 -2 7.5t-7 3.5h-99
q-12 0 -14 -10q-1 -2 -1.5 -4t-1.5 -7.5t1 -6.5q8 -9 9.5 -13.5t-3 -10.5t-18.5 -15l-64 -38l-40 -23q18 103 42 240q11 58 -1.5 70.5t-56.5 5.5q-67 -15 -103 -35q-8 -4 -9.5 -14t3.5 -16q2 -2 14.5 -7.5t19 -16t3.5 -30.5l-56 -318q-2 -16 -31 -41t-31 -29l-3 -15
q-1 -10 10 -10h197q12 0 14 10l1 6q1 8 -18 33.5t-16 44.5l2 10q1 10 5 31.5t7 41.5l18 10l40 -120q24 -70 80 -70q36 0 67 19.5t37 38.5z" />
    <glyph glyph-name="quotesingle" unicode="'" 
d="M169 705h1012l-124 -705h-1012zM568 141q0 9 -8 7q-12 -3 -23 4.5t-19.5 25t-13.5 31t-11.5 36.5t-7.5 26q-16 46 -72 44q15 8 39 22t29 17q19 11 36.5 20.5t26 13.5t15 8t9 7.5t3.5 8.5l1 7q1 4 -1.5 7.5t-7.5 3.5h-99q-5 0 -9.5 -3t-4.5 -7l-1 -18q10 -11 8.5 -19
t-21.5 -20l-64 -38l-40 -23q9 52 25.5 142t17.5 98q6 31 4.5 48.5t-9 24t-21 7t-32.5 -3.5q-65 -14 -104 -35q-8 -4 -9.5 -14t3.5 -16q2 -2 14.5 -7.5t19 -16t2.5 -30.5l-56 -318q-2 -16 -30.5 -41t-30.5 -29l-3 -15q-1 -10 10 -10h198q10 0 12 10l1 6q2 8 -17.5 33.5
t-16.5 44.5q0 3 15 83l17 10l41 -120q24 -70 80 -70q37 0 68 19.5t37 38.5zM1024 141q1 4 -1.5 6t-5.5 1q-12 -3 -23 4.5t-19.5 25t-13.5 31t-11.5 36.5t-7.5 26q-16 46 -73 44q15 8 68 39q19 11 36.5 20.5t26 13.5t15 8t9 7.5t3.5 8.5l2 7q1 4 -2 7.5t-7 3.5h-99
q-12 0 -14 -10q-1 -2 -1.5 -4t-1.5 -7.5t1 -6.5q8 -9 9.5 -13.5t-3 -10.5t-18.5 -15l-64 -38l-40 -23q18 103 42 240q11 58 -1.5 70.5t-56.5 5.5q-67 -15 -103 -35q-8 -4 -9.5 -14t3.5 -16q2 -2 14.5 -7.5t19 -16t3.5 -30.5l-56 -318q-2 -16 -31 -41t-31 -29l-3 -15
q-1 -10 10 -10h197q12 0 14 10l1 6q1 8 -18 33.5t-16 44.5l2 10q1 10 5 31.5t7 41.5l18 10l40 -120q24 -70 80 -70q36 0 67 19.5t37 38.5z" />
    <glyph glyph-name="parenleft" unicode="(" horiz-adv-x="1093" 
d="M174 705h1012l-124 -705h-1012zM573 141q0 9 -8 7q-12 -3 -23 4.5t-19.5 25t-13.5 31t-11.5 36.5t-7.5 26q-16 46 -72 44q15 8 39 22t29 17q19 11 36.5 20.5t26 13.5t15 8t9 7.5t3.5 8.5l1 7q1 4 -1.5 7.5t-7.5 3.5h-99q-5 0 -9.5 -3t-4.5 -7l-1 -18q10 -11 8.5 -19
t-21.5 -20l-64 -38l-40 -23q9 52 25.5 142t17.5 98q6 31 4.5 48.5t-9 24t-21 7t-32.5 -3.5q-65 -14 -104 -35q-8 -4 -9.5 -14t3.5 -16q2 -2 14.5 -7.5t19 -16t2.5 -30.5l-56 -318q-2 -16 -30.5 -41t-30.5 -29l-3 -15q-1 -10 10 -10h198q10 0 12 10l1 6q2 8 -17.5 33.5
t-16.5 44.5q0 3 15 83l17 10l41 -120q24 -70 80 -70q37 0 68 19.5t37 38.5zM1029 141q1 4 -1.5 6t-5.5 1q-12 -3 -23 4.5t-19.5 25t-13.5 31t-11.5 36.5t-7.5 26q-16 46 -73 44q15 8 68 39q19 11 36.5 20.5t26 13.5t15 8t9 7.5t3.5 8.5l2 7q1 4 -2 7.5t-7 3.5h-99
q-12 0 -14 -10q-1 -2 -1.5 -4t-1.5 -7.5t1 -6.5q8 -9 9.5 -13.5t-3 -10.5t-18.5 -15l-64 -38l-40 -23q18 103 42 240q11 58 -1.5 70.5t-56.5 5.5q-67 -15 -103 -35q-8 -4 -9.5 -14t3.5 -16q2 -2 14.5 -7.5t19 -16t3.5 -30.5l-56 -318q-2 -16 -31 -41t-31 -29l-3 -15
q-1 -10 10 -10h197q12 0 14 10l1 6q1 8 -18 33.5t-16 44.5l1 10q2 10 6 31.5t7 41.5l18 10l40 -120q24 -70 80 -70q36 0 67 19.5t37 38.5z" />
    <glyph glyph-name="parenright" unicode=")" horiz-adv-x="1093" 
d="M154 705h1012l-124 -705h-1012zM553 141q0 9 -8 7q-12 -3 -23 4.5t-19.5 25t-13.5 31t-11.5 36.5t-7.5 26q-16 46 -72 44q15 8 39 22t29 17q19 11 36.5 20.5t26 13.5t15 8t9 7.5t3.5 8.5l1 7q1 4 -1.5 7.5t-7.5 3.5h-99q-5 0 -9.5 -3t-4.5 -7l-1 -18q10 -11 8.5 -19
t-21.5 -20l-64 -38l-40 -23q9 52 25.5 142t17.5 98q6 31 4.5 48.5t-9 24t-21 7t-32.5 -3.5q-65 -14 -104 -35q-8 -4 -9.5 -14t3.5 -16q2 -2 14.5 -7.5t19 -16t2.5 -30.5l-56 -318q-2 -16 -30.5 -41t-30.5 -29l-3 -15q-1 -10 10 -10h198q10 0 12 10l1 6q2 8 -17.5 33.5
t-16.5 44.5q0 3 15 83l17 10l41 -120q24 -70 80 -70q37 0 68 19.5t37 38.5zM1009 141q1 4 -1.5 6t-5.5 1q-12 -3 -23 4.5t-19.5 25t-13.5 31t-11.5 36.5t-7.5 26q-16 46 -73 44q15 8 68 39q19 11 36.5 20.5t26 13.5t15 8t9 7.5t3.5 8.5l2 7q1 4 -2 7.5t-7 3.5h-99
q-12 0 -14 -10q-1 -2 -1.5 -4t-1.5 -7.5t1 -6.5q8 -9 9.5 -13.5t-3 -10.5t-18.5 -15l-64 -38l-40 -23q18 103 42 240q11 58 -1.5 70.5t-56.5 5.5q-67 -15 -103 -35q-8 -4 -9.5 -14t3.5 -16q2 -2 14.5 -7.5t19 -16t3.5 -30.5l-56 -318q-2 -16 -31 -41t-31 -29l-3 -15
q-1 -10 10 -10h197q12 0 14 10l1 6q1 8 -18 33.5t-16 44.5l1 10q2 10 6 31.5t7 41.5l18 10l40 -120q24 -70 80 -70q36 0 67 19.5t37 38.5z" />
    <glyph glyph-name="asterisk" unicode="*" horiz-adv-x="1083" 
d="M159 705h1012l-124 -705h-1012zM558 141q0 9 -8 7q-12 -3 -23 4.5t-19.5 25t-13.5 31t-11.5 36.5t-7.5 26q-16 46 -72 44q15 8 39 22t29 17q19 11 36.5 20.5t26 13.5t15 8t9 7.5t3.5 8.5l1 7q1 4 -1.5 7.5t-7.5 3.5h-99q-5 0 -9.5 -3t-4.5 -7l-1 -18q10 -11 8.5 -19
t-21.5 -20l-64 -38l-40 -23q9 52 25.5 142t17.5 98q6 31 4.5 48.5t-9 24t-21 7t-32.5 -3.5q-65 -14 -104 -35q-8 -4 -9.5 -14t3.5 -16q2 -2 14.5 -7.5t19 -16t2.5 -30.5l-56 -318q-2 -16 -30.5 -41t-30.5 -29l-3 -15q-1 -10 10 -10h198q10 0 12 10l1 6q2 8 -17.5 33.5
t-16.5 44.5q0 3 15 83l17 10l41 -120q24 -70 80 -70q37 0 68 19.5t37 38.5zM1014 141q1 4 -1.5 6t-5.5 1q-12 -3 -23 4.5t-19.5 25t-13.5 31t-11.5 36.5t-7.5 26q-16 46 -73 44q15 8 68 39q19 11 36.5 20.5t26 13.5t15 8t9 7.5t3.5 8.5l2 7q1 4 -2 7.5t-7 3.5h-99
q-12 0 -14 -10q-1 -2 -1.5 -4t-1.5 -7.5t1 -6.5q8 -9 9.5 -13.5t-3 -10.5t-18.5 -15l-64 -38l-40 -23q18 103 42 240q11 58 -1.5 70.5t-56.5 5.5q-67 -15 -103 -35q-8 -4 -9.5 -14t3.5 -16q2 -2 14.5 -7.5t19 -16t3.5 -30.5l-56 -318q-2 -16 -31 -41t-31 -29l-3 -15
q-1 -10 10 -10h197q12 0 14 10l1 6q1 8 -18 33.5t-16 44.5l2 10q1 10 5 31.5t7 41.5l18 10l40 -120q24 -70 80 -70q36 0 67 19.5t37 38.5z" />
    <glyph glyph-name="plus" unicode="+" horiz-adv-x="1113" 
d="M174 705h1013l-125 -705h-1012zM573 141q1 4 -1.5 6t-6.5 1q-12 -3 -23 4.5t-19.5 25t-13.5 31t-11.5 36.5t-7.5 26q-14 46 -72 44q15 8 39 22t29 17q19 11 36.5 20.5t26 13.5t15 8t9 7.5t3.5 8.5l1 7q1 4 -1.5 7.5t-7.5 3.5h-99q-5 0 -9.5 -3t-4.5 -7l-1 -18
q10 -11 8.5 -19t-21.5 -20l-104 -61q9 52 25.5 142t17.5 98q7 48 1 64t-28 16q-25 0 -68.5 -13.5t-66.5 -25.5q-8 -4 -9.5 -14t3.5 -16q2 -2 14.5 -7.5t19 -16t2.5 -30.5l-56 -318q-2 -16 -30.5 -41t-30.5 -28l-3 -16q-1 -10 10 -10h198q10 0 12 10l1 6q2 8 -17.5 33.5
t-16.5 44.5q0 3 15 83l17 11l41 -121q25 -70 80 -70q37 0 68 19.5t37 38.5zM1029 141q1 4 -1.5 6t-5.5 1q-12 -3 -23 4.5t-19.5 25t-13.5 31t-11.5 36.5t-7.5 26q-16 46 -73 44q15 8 68 39q19 11 36.5 20.5t26 13.5t15.5 8t9.5 7.5t3.5 8.5l1 7q2 11 -9 11h-99
q-12 0 -14 -10q-1 -2 -1.5 -4t-1.5 -7.5t1 -6.5q8 -9 9.5 -13.5t-3 -10.5t-18.5 -15l-104 -61q18 103 42 240q7 48 1.5 64t-27.5 16q-25 0 -68.5 -13.5t-66.5 -25.5q-8 -4 -9 -14t3 -16q2 -2 14.5 -7.5t19 -16t3.5 -30.5l-56 -318q-2 -16 -31 -41t-31 -28l-3 -16
q-1 -10 10 -10h197q12 0 14 10l1 6q1 8 -18 33.5t-16 44.5l1 10q2 10 6 31.5t7 41.5l18 11l41 -121q23 -70 79 -70q36 0 67 19.5t37 38.5z" />
    <glyph glyph-name="comma" unicode="," horiz-adv-x="293" 
d="M56 114q7 41 39.5 65.5t79.5 24.5q50 0 72.5 -25t14.5 -71q-6 -34 -25.5 -67.5t-50 -64t-54.5 -50.5t-58 -45q-3 3 -14 16t-16 18q82 60 88 89q2 13 -10.5 23.5t-29 17.5t-28.5 25t-8 44z" />
    <glyph glyph-name="hyphen" unicode="-" 
d="M169 705h1012l-124 -705h-1012zM568 141q0 9 -8 7q-12 -3 -23 4.5t-19.5 25t-13.5 31t-11.5 36.5t-7.5 26q-16 46 -72 44q15 8 39 22t29 17q19 11 36.5 20.5t26 13.5t15 8t9 7.5t3.5 8.5l1 7q1 4 -1.5 7.5t-7.5 3.5h-99q-5 0 -9.5 -3t-4.5 -7l-1 -18q10 -11 8.5 -19
t-21.5 -20l-64 -38l-40 -23q9 52 25.5 142t17.5 98q6 31 4.5 48.5t-9 24t-21 7t-32.5 -3.5q-65 -14 -104 -35q-8 -4 -9.5 -14t3.5 -16q2 -2 14.5 -7.5t19 -16t2.5 -30.5l-56 -318q-2 -16 -30.5 -41t-30.5 -29l-3 -15q-1 -10 10 -10h198q10 0 12 10l1 6q2 8 -17.5 33.5
t-16.5 44.5q0 3 15 83l17 10l41 -120q24 -70 80 -70q37 0 68 19.5t37 38.5zM1024 141q1 4 -1.5 6t-5.5 1q-12 -3 -23 4.5t-19.5 25t-13.5 31t-11.5 36.5t-7.5 26q-16 46 -73 44q15 8 68 39q19 11 36.5 20.5t26 13.5t15 8t9 7.5t3.5 8.5l2 7q1 4 -2 7.5t-7 3.5h-99
q-12 0 -14 -10q-1 -2 -1.5 -4t-1.5 -7.5t1 -6.5q8 -9 9.5 -13.5t-3 -10.5t-18.5 -15l-64 -38l-40 -23q18 103 42 240q11 58 -1.5 70.5t-56.5 5.5q-67 -15 -103 -35q-8 -4 -9.5 -14t3.5 -16q2 -2 14.5 -7.5t19 -16t3.5 -30.5l-56 -318q-2 -16 -31 -41t-31 -29l-3 -15
q-1 -10 10 -10h197q12 0 14 10l1 6q1 8 -18 33.5t-16 44.5l2 10q1 10 5 31.5t7 41.5l18 10l40 -120q24 -70 80 -70q36 0 67 19.5t37 38.5z" />
    <glyph glyph-name="period" unicode="." horiz-adv-x="349" 
d="M83 102q8 47 42 74t85 27t75 -27t16 -74q-8 -48 -42 -75t-85 -27q-50 0 -74.5 27.5t-16.5 74.5z" />
    <glyph glyph-name="slash" unicode="/" horiz-adv-x="1083" 
d="M159 705h1012l-124 -705h-1012zM558 141q0 9 -8 7q-12 -3 -23 4.5t-19.5 25t-13.5 31t-11.5 36.5t-7.5 26q-16 46 -72 44q15 8 39 22t29 17q19 11 36.5 20.5t26 13.5t15 8t9 7.5t3.5 8.5l1 7q1 4 -1.5 7.5t-7.5 3.5h-99q-5 0 -9.5 -3t-4.5 -7l-1 -18q10 -11 8.5 -19
t-21.5 -20l-64 -38l-40 -23q9 52 25.5 142t17.5 98q6 31 4.5 48.5t-9 24t-21 7t-32.5 -3.5q-65 -14 -104 -35q-8 -4 -9.5 -14t3.5 -16q2 -2 14.5 -7.5t19 -16t2.5 -30.5l-56 -318q-2 -16 -30.5 -41t-30.5 -29l-3 -15q-1 -10 10 -10h198q10 0 12 10l1 6q2 8 -17.5 33.5
t-16.5 44.5q0 3 15 83l17 10l41 -120q24 -70 80 -70q37 0 68 19.5t37 38.5zM1014 141q1 4 -1.5 6t-5.5 1q-12 -3 -23 4.5t-19.5 25t-13.5 31t-11.5 36.5t-7.5 26q-16 46 -73 44q15 8 68 39q19 11 36.5 20.5t26 13.5t15 8t9 7.5t3.5 8.5l2 7q1 4 -2 7.5t-7 3.5h-99
q-12 0 -14 -10q-1 -2 -1.5 -4t-1.5 -7.5t1 -6.5q8 -9 9.5 -13.5t-3 -10.5t-18.5 -15l-64 -38l-40 -23q18 103 42 240q11 58 -1.5 70.5t-56.5 5.5q-67 -15 -103 -35q-8 -4 -9.5 -14t3.5 -16q2 -2 14.5 -7.5t19 -16t3.5 -30.5l-56 -318q-2 -16 -31 -41t-31 -29l-3 -15
q-1 -10 10 -10h197q12 0 14 10l1 6q1 8 -18 33.5t-16 44.5l2 10q1 10 5 31.5t7 41.5l18 10l40 -120q24 -70 80 -70q36 0 67 19.5t37 38.5z" />
    <glyph glyph-name="zero" unicode="0" horiz-adv-x="714" 
d="M345 -14q-160 0 -230.5 99.5t-40.5 266.5q29 167 134.5 267t265.5 100t230 -100t41 -267q-30 -167 -135 -266.5t-265 -99.5zM316 352q-30 -148 -23.5 -227t62.5 -79t87.5 72t60.5 234q29 147 22.5 227t-62.5 80t-87.5 -73t-59.5 -234z" />
    <glyph glyph-name="one" unicode="1" horiz-adv-x="450" 
d="M167 546q-27 2 -30 26.5t28 41.5q75 39 171.5 76t126.5 25q37 -15 25 -92l-93 -525q-5 -28 18 -44q3 -2 8.5 -6t7.5 -5q11 -9 2.5 -26t-23.5 -17h-290q-15 0 -17 17t12 26q6 4 22 12q30 13 35 43l76 431q3 18 -1 26t-14 7t-21 -4.5t-23.5 -8t-19.5 -3.5z" />
    <glyph glyph-name="two" unicode="2" horiz-adv-x="658" 
d="M54 0q-4 53 14 98.5t51.5 80t75.5 65.5t88.5 61.5t88 61.5t76.5 71.5t52 85.5q23 71 7.5 105.5t-56.5 32.5q-32 -2 -53.5 -21.5t-30 -42.5t-20.5 -57.5t-23 -53.5q-36 -58 -97 -53q-43 4 -61.5 33t-7.5 73q18 78 105.5 131t209.5 52q137 0 201 -59.5t39 -165.5
q-14 -60 -60.5 -110.5t-108 -84.5t-122.5 -60.5t-116.5 -52.5t-77.5 -47l240 7q35 1 62 40q19 27 48 20l65 -13q13 -2 17.5 -11.5t-0.5 -23.5l-53 -133q-12 -31 -42 -29h-191h-320v0z" />
    <glyph glyph-name="three" unicode="3" horiz-adv-x="692" 
d="M67 112q-6 26 -2 51q7 43 39 69t78 26q33 0 51.5 -16.5t19.5 -49.5q1 -82 14 -116t60 -31q48 3 84 48t49 120q13 79 -20 123t-119 42q-25 -1 -38 9t-11 21q4 17 68 27q113 31 150 113q26 56 1 94q-13 20 -35 22q-28 2 -50 -11.5t-37 -35t-30.5 -43.5t-38 -37.5
t-50.5 -15.5q-33 0 -50.5 19t-12.5 49q11 57 90 93.5t193 36.5q117 0 178 -43t42 -111q-22 -87 -176 -129q101 -14 150.5 -64t42.5 -132q-11 -111 -110.5 -182t-261.5 -71q-106 0 -177 30.5t-91 94.5z" />
    <glyph glyph-name="four" unicode="4" horiz-adv-x="709" 
d="M78 215q-8 23 13 44l442 424q24 22 54 22h51h50q14 0 20.5 -8.5t3.5 -21.5l-75 -426h61q29 0 24 -30q-5 -29 -35 -29h-60l-16 -92q-5 -28 18 -44q5 -3 15 -11q11 -9 3 -26t-24 -17h-289q-16 0 -17.5 17t12.5 26q6 4 22 12q28 13 35 43l16 92h-288q-27 0 -36 24v1z
M463 535l-295 -286h244z" />
    <glyph glyph-name="five" unicode="5" horiz-adv-x="648" 
d="M161 349q-13 1 -19.5 10.5t-2.5 23.5l76 291q8 31 38 31h300q37 0 50 19q14 18 32 15l57 -13q12 -3 16.5 -13t-0.5 -23l-45 -106q-11 -29 -42 -29l-368 6l-49 -166l-19 -49zM666 263q-13 -117 -107.5 -196.5t-241.5 -79.5q-97 0 -161 32t-81 99q-12 44 10.5 90.5
t67.5 58.5q42 10 68 -6.5t26 -59.5v-45t1.5 -38t5 -30t10.5 -22t18.5 -14t28.5 -5q44 -1 80 48t45 133q11 91 -20.5 141t-98.5 48q-62 -1 -132 -71q3 9 9.5 28t12 34t5.5 20q31 18 51 28t54 18.5t75 9.5q142 4 213.5 -56t60.5 -165z" />
    <glyph glyph-name="six" unicode="6" horiz-adv-x="712" 
d="M98 339q31 174 134.5 272.5t258.5 104.5q106 4 178.5 -25.5t78.5 -82.5q4 -31 -18.5 -62t-66.5 -32q-36 -1 -56.5 15t-27.5 38.5t-12 45t-17.5 38t-37.5 15.5q-58 -1 -92 -59.5t-59 -173.5q44 49 121 53q131 7 199.5 -59.5t48.5 -181.5q-21 -119 -121 -190.5t-244 -71.5
q-154 0 -225.5 91.5t-41.5 264.5zM327 230v3q-23 -190 56 -190q43 -1 68.5 44t43.5 144q33 192 -51 190q-48 0 -79.5 -54.5t-37.5 -136.5z" />
    <glyph glyph-name="seven" unicode="7" horiz-adv-x="585" 
d="M125 45q46 134 175.5 289t257.5 232q44 26 75.5 35t78.5 9q-271 -239 -354 -565q-5 -20 -20.5 -32.5t-34.5 -12.5h-145q-21 0 -30.5 13t-2.5 32zM220 705h185l275 -1q20 0 30.5 -12t8.5 -32l-7 -50l-55 -45l-360 -11q-35 -1 -62 -40q-20 -25 -48 -19l-46 11q-27 8 -16 36
l53 134q12 29 42 29z" />
    <glyph glyph-name="eight" unicode="8" horiz-adv-x="737" 
d="M371 -16q-160 0 -236.5 63t-57.5 169q13 75 66 128t142 79q-115 38 -99 132q13 71 93.5 118t221.5 47t205 -47t52 -118q-18 -95 -145 -132q79 -26 113.5 -79t21.5 -128q-19 -106 -118 -169t-259 -63zM444 395q-42 0 -76.5 -48.5t-48.5 -130.5q-15 -82 2.5 -128t59.5 -46
t76 46t49 128q14 82 -3.5 130.5t-58.5 48.5zM491 663q-28 0 -50.5 -27.5t-31.5 -76.5t4 -79t41 -30q27 0 50.5 30t31.5 79q9 49 -4 76.5t-41 27.5z" />
    <glyph glyph-name="nine" unicode="9" horiz-adv-x="714" 
d="M119 459q21 119 121.5 190.5t243.5 71.5q154 0 225.5 -91.5t41.5 -264.5q-31 -174 -134.5 -272.5t-258.5 -104.5q-106 -4 -178.5 25.5t-77.5 82.5q-4 31 18 62t66 32q36 1 56.5 -15t27.5 -38.5t12 -45t17.5 -38t37.5 -15.5q58 1 92 59t59 173q-45 -48 -121 -52
q-131 -7 -199 59.5t-49 181.5zM466 661q-43 1 -68.5 -44t-43.5 -144q-33 -192 51 -190q48 0 79.5 54.5t37.5 136.5l1 -3q21 190 -57 190z" />
    <glyph glyph-name="colon" unicode=":" horiz-adv-x="1143" 
d="M189 705h1012l-124 -705h-1012zM588 141q0 9 -8 7q-12 -3 -23 4.5t-19.5 25t-13.5 31t-11.5 36.5t-7.5 26q-16 46 -72 44q15 8 39 22t29 17q19 11 36.5 20.5t26 13.5t15 8t9 7.5t3.5 8.5l1 7q1 4 -1.5 7.5t-7.5 3.5h-99q-5 0 -9.5 -3t-4.5 -7l-1 -18q10 -11 8.5 -19
t-21.5 -20l-64 -38l-40 -23q9 52 25.5 142t17.5 98q6 31 4.5 48.5t-9 24t-21 7t-32.5 -3.5q-65 -14 -104 -35q-8 -4 -9.5 -14t3.5 -16q2 -2 14.5 -7.5t19 -16t2.5 -30.5l-56 -318q-2 -16 -30.5 -41t-30.5 -29l-3 -15q-1 -10 10 -10h198q10 0 12 10l1 6q2 8 -17.5 33.5
t-16.5 44.5q0 3 15 83l17 10l41 -120q24 -70 80 -70q37 0 68 19.5t37 38.5zM1044 141q1 4 -1.5 6t-5.5 1q-12 -3 -23 4.5t-19.5 25t-13.5 31t-11.5 36.5t-7.5 26q-16 46 -73 44q15 8 68 39q19 11 36.5 20.5t26 13.5t15 8t9 7.5t3.5 8.5l2 7q1 4 -2 7.5t-7 3.5h-99
q-12 0 -14 -10q-1 -2 -1.5 -4t-1.5 -7.5t1 -6.5q8 -9 9.5 -13.5t-3 -10.5t-18.5 -15l-64 -38l-40 -23q18 103 42 240q11 58 -1.5 70.5t-56.5 5.5q-67 -15 -103 -35q-8 -4 -9.5 -14t3.5 -16q2 -2 14.5 -7.5t19 -16t3.5 -30.5l-56 -318q-2 -16 -31 -41t-31 -29l-3 -15
q-1 -10 10 -10h197q12 0 14 10l1 6q1 8 -18 33.5t-16 44.5l2 10q1 10 5 31.5t7 41.5l18 10l40 -120q24 -70 80 -70q36 0 67 19.5t37 38.5z" />
    <glyph glyph-name="semicolon" unicode=";" horiz-adv-x="1143" 
d="M189 705h1012l-124 -705h-1012zM588 141q0 9 -8 7q-12 -3 -23 4.5t-19.5 25t-13.5 31t-11.5 36.5t-7.5 26q-16 46 -72 44q15 8 39 22t29 17q19 11 36.5 20.5t26 13.5t15 8t9 7.5t3.5 8.5l1 7q1 4 -1.5 7.5t-7.5 3.5h-99q-5 0 -9.5 -3t-4.5 -7l-1 -18q10 -11 8.5 -19
t-21.5 -20l-64 -38l-40 -23q9 52 25.5 142t17.5 98q6 31 4.5 48.5t-9 24t-21 7t-32.5 -3.5q-65 -14 -104 -35q-8 -4 -9.5 -14t3.5 -16q2 -2 14.5 -7.5t19 -16t2.5 -30.5l-56 -318q-2 -16 -30.5 -41t-30.5 -29l-3 -15q-1 -10 10 -10h198q10 0 12 10l1 6q2 8 -17.5 33.5
t-16.5 44.5q0 3 15 83l17 10l41 -120q24 -70 80 -70q37 0 68 19.5t37 38.5zM1044 141q1 4 -1.5 6t-5.5 1q-12 -3 -23 4.5t-19.5 25t-13.5 31t-11.5 36.5t-7.5 26q-16 46 -73 44q15 8 68 39q19 11 36.5 20.5t26 13.5t15 8t9 7.5t3.5 8.5l2 7q1 4 -2 7.5t-7 3.5h-99
q-12 0 -14 -10q-1 -2 -1.5 -4t-1.5 -7.5t1 -6.5q8 -9 9.5 -13.5t-3 -10.5t-18.5 -15l-64 -38l-40 -23q18 103 42 240q11 58 -1.5 70.5t-56.5 5.5q-67 -15 -103 -35q-8 -4 -9.5 -14t3.5 -16q2 -2 14.5 -7.5t19 -16t3.5 -30.5l-56 -318q-2 -16 -31 -41t-31 -29l-3 -15
q-1 -10 10 -10h197q12 0 14 10l1 6q1 8 -18 33.5t-16 44.5l2 10q1 10 5 31.5t7 41.5l18 10l40 -120q24 -70 80 -70q36 0 67 19.5t37 38.5z" />
    <glyph glyph-name="less" unicode="&#x3c;" 
d="M169 705h1012l-124 -705h-1012zM568 141q0 9 -8 7q-12 -3 -23 4.5t-19.5 25t-13.5 31t-11.5 36.5t-7.5 26q-16 46 -72 44q15 8 39 22t29 17q19 11 36.5 20.5t26 13.5t15 8t9 7.5t3.5 8.5l1 7q1 4 -1.5 7.5t-7.5 3.5h-99q-5 0 -9.5 -3t-4.5 -7l-1 -18q10 -11 8.5 -19
t-21.5 -20l-64 -38l-40 -23q9 52 25.5 142t17.5 98q6 31 4.5 48.5t-9 24t-21 7t-32.5 -3.5q-65 -14 -104 -35q-8 -4 -9.5 -14t3.5 -16q2 -2 14.5 -7.5t19 -16t2.5 -30.5l-56 -318q-2 -16 -30.5 -41t-30.5 -29l-3 -15q-1 -10 10 -10h198q10 0 12 10l1 6q2 8 -17.5 33.5
t-16.5 44.5q0 3 15 83l17 10l41 -120q24 -70 80 -70q37 0 68 19.5t37 38.5zM1024 141q1 4 -1.5 6t-5.5 1q-12 -3 -23 4.5t-19.5 25t-13.5 31t-11.5 36.5t-7.5 26q-16 46 -73 44q15 8 68 39q19 11 36.5 20.5t26 13.5t15 8t9 7.5t3.5 8.5l2 7q1 4 -2 7.5t-7 3.5h-99
q-12 0 -14 -10q-1 -2 -1.5 -4t-1.5 -7.5t1 -6.5q8 -9 9.5 -13.5t-3 -10.5t-18.5 -15l-64 -38l-40 -23q18 103 42 240q11 58 -1.5 70.5t-56.5 5.5q-67 -15 -103 -35q-8 -4 -9.5 -14t3.5 -16q2 -2 14.5 -7.5t19 -16t3.5 -30.5l-56 -318q-2 -16 -31 -41t-31 -29l-3 -15
q-1 -10 10 -10h197q12 0 14 10l1 6q1 8 -18 33.5t-16 44.5l2 10q1 10 5 31.5t7 41.5l18 10l40 -120q24 -70 80 -70q36 0 67 19.5t37 38.5z" />
    <glyph glyph-name="equal" unicode="=" horiz-adv-x="1113" 
d="M174 705h1012l-124 -705h-1012zM573 141q0 9 -8 7q-12 -3 -23 4.5t-19.5 25t-13.5 31t-11.5 36.5t-7.5 26q-16 46 -72 44q15 8 39 22t29 17q19 11 36.5 20.5t26 13.5t15 8t9 7.5t3.5 8.5l1 7q1 4 -1.5 7.5t-7.5 3.5h-99q-5 0 -9.5 -3t-4.5 -7l-1 -18q10 -11 8.5 -19
t-21.5 -20l-64 -38l-40 -23q9 52 25.5 142t17.5 98q6 31 4.5 48.5t-9 24t-21 7t-32.5 -3.5q-65 -14 -104 -35q-8 -4 -9.5 -14t3.5 -16q2 -2 14.5 -7.5t19 -16t2.5 -30.5l-56 -318q-2 -16 -30.5 -41t-30.5 -29l-3 -15q-1 -10 10 -10h198q10 0 12 10l1 6q2 8 -17.5 33.5
t-16.5 44.5q0 3 15 83l17 10l41 -120q24 -70 80 -70q37 0 68 19.5t37 38.5zM1029 141q1 4 -1.5 6t-5.5 1q-12 -3 -23 4.5t-19.5 25t-13.5 31t-11.5 36.5t-7.5 26q-16 46 -73 44q15 8 68 39q19 11 36.5 20.5t26 13.5t15 8t9 7.5t3.5 8.5l2 7q1 4 -2 7.5t-7 3.5h-99
q-12 0 -14 -10q-1 -2 -1.5 -4t-1.5 -7.5t1 -6.5q8 -9 9.5 -13.5t-3 -10.5t-18.5 -15l-64 -38l-40 -23q18 103 42 240q11 58 -1.5 70.5t-56.5 5.5q-67 -15 -103 -35q-8 -4 -9.5 -14t3.5 -16q2 -2 14.5 -7.5t19 -16t3.5 -30.5l-56 -318q-2 -16 -31 -41t-31 -29l-3 -15
q-1 -10 10 -10h197q12 0 14 10l1 6q1 8 -18 33.5t-16 44.5l1 10q2 10 6 31.5t7 41.5l18 10l40 -120q24 -70 80 -70q36 0 67 19.5t37 38.5z" />
    <glyph glyph-name="greater" unicode="&#x3e;" 
d="M169 705h1012l-124 -705h-1012zM568 141q0 9 -8 7q-12 -3 -23 4.5t-19.5 25t-13.5 31t-11.5 36.5t-7.5 26q-16 46 -72 44q15 8 39 22t29 17q19 11 36.5 20.5t26 13.5t15 8t9 7.5t3.5 8.5l1 7q1 4 -1.5 7.5t-7.5 3.5h-99q-5 0 -9.5 -3t-4.5 -7l-1 -18q10 -11 8.5 -19
t-21.5 -20l-64 -38l-40 -23q9 52 25.5 142t17.5 98q6 31 4.5 48.5t-9 24t-21 7t-32.5 -3.5q-65 -14 -104 -35q-8 -4 -9.5 -14t3.5 -16q2 -2 14.5 -7.5t19 -16t2.5 -30.5l-56 -318q-2 -16 -30.5 -41t-30.5 -29l-3 -15q-1 -10 10 -10h198q10 0 12 10l1 6q2 8 -17.5 33.5
t-16.5 44.5q0 3 15 83l17 10l41 -120q24 -70 80 -70q37 0 68 19.5t37 38.5zM1024 141q1 4 -1.5 6t-5.5 1q-12 -3 -23 4.5t-19.5 25t-13.5 31t-11.5 36.5t-7.5 26q-16 46 -73 44q15 8 68 39q19 11 36.5 20.5t26 13.5t15 8t9 7.5t3.5 8.5l2 7q1 4 -2 7.5t-7 3.5h-99
q-12 0 -14 -10q-1 -2 -1.5 -4t-1.5 -7.5t1 -6.5q8 -9 9.5 -13.5t-3 -10.5t-18.5 -15l-64 -38l-40 -23q18 103 42 240q11 58 -1.5 70.5t-56.5 5.5q-67 -15 -103 -35q-8 -4 -9.5 -14t3.5 -16q2 -2 14.5 -7.5t19 -16t3.5 -30.5l-56 -318q-2 -16 -31 -41t-31 -29l-3 -15
q-1 -10 10 -10h197q12 0 14 10l1 6q1 8 -18 33.5t-16 44.5l2 10q1 10 5 31.5t7 41.5l18 10l40 -120q24 -70 80 -70q36 0 67 19.5t37 38.5z" />
    <glyph glyph-name="question" unicode="?" horiz-adv-x="1128" 
d="M174 705h1012l-124 -705h-1012zM573 141q0 9 -8 7q-12 -3 -23 4.5t-19.5 25t-13.5 31t-11.5 36.5t-7.5 26q-16 46 -72 44q15 8 39 22t29 17q19 11 36.5 20.5t26 13.5t15 8t9 7.5t3.5 8.5l1 7q1 4 -1.5 7.5t-7.5 3.5h-99q-5 0 -9.5 -3t-4.5 -7l-1 -18q10 -11 8.5 -19
t-21.5 -20l-64 -38l-40 -23q9 52 25.5 142t17.5 98q6 31 4.5 48.5t-9 24t-21 7t-32.5 -3.5q-65 -14 -104 -35q-8 -4 -9.5 -14t3.5 -16q2 -2 14.5 -7.5t19 -16t2.5 -30.5l-56 -318q-2 -16 -30.5 -41t-30.5 -29l-3 -15q-1 -10 10 -10h198q10 0 12 10l1 6q2 8 -17.5 33.5
t-16.5 44.5q0 3 15 83l17 10l41 -120q24 -70 80 -70q37 0 68 19.5t37 38.5zM1029 141q1 4 -1.5 6t-5.5 1q-12 -3 -23 4.5t-19.5 25t-13.5 31t-11.5 36.5t-7.5 26q-16 46 -73 44q15 8 68 39q19 11 36.5 20.5t26 13.5t15 8t9 7.5t3.5 8.5l2 7q1 4 -2 7.5t-7 3.5h-99
q-12 0 -14 -10q-1 -2 -1.5 -4t-1.5 -7.5t1 -6.5q8 -9 9.5 -13.5t-3 -10.5t-18.5 -15l-64 -38l-40 -23q18 103 42 240q11 58 -1.5 70.5t-56.5 5.5q-67 -15 -103 -35q-8 -4 -9.5 -14t3.5 -16q2 -2 14.5 -7.5t19 -16t3.5 -30.5l-56 -318q-2 -16 -31 -41t-31 -29l-3 -15
q-1 -10 10 -10h197q12 0 14 10l1 6q1 8 -18 33.5t-16 44.5l1 10q2 10 6 31.5t7 41.5l18 10l40 -120q24 -70 80 -70q36 0 67 19.5t37 38.5z" />
    <glyph glyph-name="at" unicode="@" horiz-adv-x="1113" 
d="M174 705h1012l-124 -705h-1012zM573 141q0 9 -8 7q-12 -3 -23 4.5t-19.5 25t-13.5 31t-11.5 36.5t-7.5 26q-16 46 -72 44q15 8 39 22t29 17q19 11 36.5 20.5t26 13.5t15 8t9 7.5t3.5 8.5l1 7q1 4 -1.5 7.5t-7.5 3.5h-99q-5 0 -9.5 -3t-4.5 -7l-1 -18q10 -11 8.5 -19
t-21.5 -20l-64 -38l-40 -23q9 52 25.5 142t17.5 98q6 31 4.5 48.5t-9 24t-21 7t-32.5 -3.5q-65 -14 -104 -35q-8 -4 -9.5 -14t3.5 -16q2 -2 14.5 -7.5t19 -16t2.5 -30.5l-56 -318q-2 -16 -30.5 -41t-30.5 -29l-3 -15q-1 -10 10 -10h198q10 0 12 10l1 6q2 8 -17.5 33.5
t-16.5 44.5q0 3 15 83l17 10l41 -120q24 -70 80 -70q37 0 68 19.5t37 38.5zM1029 141q1 4 -1.5 6t-5.5 1q-12 -3 -23 4.5t-19.5 25t-13.5 31t-11.5 36.5t-7.5 26q-16 46 -73 44q15 8 68 39q19 11 36.5 20.5t26 13.5t15 8t9 7.5t3.5 8.5l2 7q1 4 -2 7.5t-7 3.5h-99
q-12 0 -14 -10q-1 -2 -1.5 -4t-1.5 -7.5t1 -6.5q8 -9 9.5 -13.5t-3 -10.5t-18.5 -15l-64 -38l-40 -23q18 103 42 240q11 58 -1.5 70.5t-56.5 5.5q-67 -15 -103 -35q-8 -4 -9.5 -14t3.5 -16q2 -2 14.5 -7.5t19 -16t3.5 -30.5l-56 -318q-2 -16 -31 -41t-31 -29l-3 -15
q-1 -10 10 -10h197q12 0 14 10l1 6q1 8 -18 33.5t-16 44.5l1 10q2 10 6 31.5t7 41.5l18 10l40 -120q24 -70 80 -70q36 0 67 19.5t37 38.5z" />
    <glyph glyph-name="A" unicode="A" horiz-adv-x="914" 
d="M48 0q-16 0 -18 17t12 26q5 2 14 7t14 8q32 15 46 38l336 579l-12 62q-2 13 4.5 20t19.5 6l203 -12q31 -2 36 -30l137 -625q6 -26 30 -41l18 -12q11 -9 3 -26t-24 -17h-340q-15 0 -17 17t12 26l18 12q28 20 23 45l-18 96h-299l-52 -90h1l-5 -10q-17 -30 4 -47l9 -6
q11 -9 3 -26t-23 -17h-135zM469 586l-189 -331h254z" />
    <glyph glyph-name="B" unicode="B" horiz-adv-x="835" 
d="M42 2q-16 0 -17.5 17t12.5 26q6 4 22 12q28 13 35 43l97 552q5 28 -20 43q-11 6 -18 12q-11 8 -3 25t24 17l295 1q198 1 299.5 -42.5t85.5 -133.5q-21 -115 -221 -158q122 -20 177.5 -67.5t40.5 -129.5q-19 -108 -148 -163.5t-341 -54.5zM339 100q-1 -1 -1.5 -4t-0.5 -4
q-2 -14 4.5 -22t20.5 -8q112 0 171.5 39t73.5 121q14 81 -32 120t-157 38q-30 0 -35 -30q0 -1 -0.5 -4t-1.5 -4zM434 641l-28 -162q-1 -1 -1.5 -4t-0.5 -4q-2 -13 5 -21.5t20 -8.5q157 1 179 124q11 63 -22 93.5t-114 31.5q-13 0 -23 -9t-12 -22q0 -2 -0.5 -4.5t-0.5 -3.5z
" />
    <glyph glyph-name="C" unicode="C" horiz-adv-x="820" 
d="M100 362q24 172 146.5 274t312.5 102q135 0 215 -44.5t95 -122.5q6 -32 -3.5 -68t-42 -66t-81.5 -34q-69 -6 -105.5 29t-19.5 103q21 85 -11 117t-95 24q-146 -17 -163 -331q-13 -235 144 -264q88 -17 163.5 33t108.5 149q9 27 21.5 43.5t35.5 15.5q39 -3 20 -66
q-39 -132 -144 -200.5t-265 -68.5q-186 0 -271 103t-61 272z" />
    <glyph glyph-name="D" unicode="D" horiz-adv-x="838" 
d="M41 0q-15 0 -17 17t12 26q8 5 23 12q29 14 34 43l93 526q5 29 -19 44q-14 8 -19 11q-11 9 -3 26t24 17l320 1q212 1 315.5 -92t71.5 -270q-31 -178 -166 -269.5t-348 -91.5h-321zM338 98q0 -1 -0.5 -3.5t-0.5 -4.5q-2 -13 4.5 -21.5t19.5 -8.5q112 0 177.5 73t92.5 227
q28 154 -11.5 227.5t-151.5 74.5q-13 1 -23 -7.5t-12 -22.5q-2 -6 -2 -8z" />
    <glyph glyph-name="E" unicode="E" horiz-adv-x="737" 
d="M40 0q-15 0 -17 17t12 26q8 5 23 12q29 14 34 43l93 527q5 29 -19 43q-14 8 -18 12q-11 9 -3 26t23 17h574q30 0 32 -30q4 -54 4 -103q-1 -35 -30 -41.5t-43 23.5q-1 3 -8.5 20t-10.5 22.5t-13.5 18t-21.5 17t-31 9t-45 4.5h-108q-30 0 -35 -30q0 -1 -0.5 -4t-1.5 -4
l-2 -10l-37 -210h72q36 0 60.5 9t35.5 21.5t18.5 25.5t16 22t21.5 10q29 1 22 -77q-7 -83 -38 -132q-15 -23 -30 -22q-12 1 -16.5 10t-6.5 21t-8.5 24t-27.5 20.5t-57 8.5h-72l-44 -248q0 -1 -0.5 -3.5t-0.5 -4.5q-2 -13 4.5 -21.5t19.5 -8.5h129q25 0 46.5 5t34 8.5t28 17
t19.5 17t18.5 22.5t15.5 20q16 19 35 24t29 -7t3 -34q-11 -32 -40 -104q-14 -29 -43 -29h-595z" />
    <glyph glyph-name="F" unicode="F" horiz-adv-x="703" 
d="M41 0q-15 0 -17 17t12 26q8 5 23 12q29 14 34 43l93 527q5 29 -19 43q-14 8 -18 12q-11 9 -3 26t23 17h574q30 0 32 -30q4 -54 4 -103q-1 -35 -30 -41.5t-43 23.5q-1 3 -8.5 20t-10.5 22.5t-13.5 18t-21.5 17t-31 9t-45 4.5h-108q-30 0 -35 -30q0 -1 -0.5 -4t-1.5 -4
l-2 -10l-40 -230h72q36 0 60.5 9t35.5 21.5t18 25.5t15.5 22t21.5 10q29 1 22 -77q-7 -83 -38 -132q-15 -22 -29 -22q-12 1 -16.5 10t-7 21t-8.5 24t-27.5 20.5t-57.5 8.5h-72l-40 -228q-5 -28 18 -44q3 -2 8.5 -6t7.5 -5q11 -9 3 -26t-24 -17h-310z" />
    <glyph glyph-name="G" unicode="G" horiz-adv-x="835" 
d="M99 362q24 172 146.5 274t312.5 102q134 0 214.5 -41.5t96.5 -117.5q13 -61 -24 -108.5t-102 -52.5q-70 -5 -104.5 26.5t-22.5 90.5q17 86 -13.5 117.5t-92.5 23.5q-146 -17 -163 -331q-3 -46 2.5 -90t21 -87t48.5 -70t80 -28q16 -2 28 10t20.5 37t13.5 47.5t10 54.5
q2 30 -20 43q-3 2 -18.5 6t-18.5 6q-11 8 -3 25t23 17h310q15 0 17 -17t-12 -25q-4 -3 -10.5 -6.5t-8.5 -5.5q-27 -14 -34 -44l-1 -10l-32 -178q-2 -14 -11.5 -20.5t-21.5 -2.5q-4 1 -17.5 5t-19.5 5.5t-19 4t-22.5 2.5t-23 -2t-27.5 -7q-75 -28 -170 -28q-186 0 -271 103
t-61 272z" />
    <glyph glyph-name="H" unicode="H" horiz-adv-x="883" 
d="M149 682q-11 9 -3 26t23 17h310q15 0 17 -17t-12 -26q-9 -6 -19 -11q-28 -17 -33 -44l-2 -10l-38 -213h246l39 223q5 29 -19 43q-14 8 -18 12q-11 9 -3 26t23 17h309q16 0 18 -17t-12 -26q-2 -1 -9 -5t-10 -6q-29 -16 -34 -44l-2 -10l-91 -519q-5 -28 18 -44q5 -3 15 -11
q11 -9 3 -26t-24 -17h-309q-15 0 -17 17t12 26q6 4 22 12q30 13 35 43l43 246h-245l-44 -246q-5 -28 18 -44q3 -2 8.5 -6t7.5 -5q11 -9 3 -26t-24 -17h-310q-15 0 -17 17t12 26q8 5 23 12q29 14 34 43l94 529q3 31 -20 43q-11 6 -18 12z" />
    <glyph glyph-name="I" unicode="I" horiz-adv-x="474" 
d="M190 682q-11 9 -3 26t23 17h310q15 0 17 -17t-12 -26q-9 -6 -19 -11q-28 -17 -33 -44l-2 -10l-92 -519q-5 -28 18 -44q3 -2 8.5 -6t7.5 -5q11 -9 3 -26t-24 -17h-310q-15 0 -17 17t12 26q8 5 23 12q29 14 34 43l94 529q3 31 -20 43q-10 6 -18 12z" />
    <glyph glyph-name="J" unicode="J" horiz-adv-x="700" 
d="M341 -14q-133 0 -210 61t-58 154q10 50 54 82.5t102 32.5q55 0 86 -33t13 -94q-14 -48 -15 -81t8 -47.5t25 -14.5q41 0 54 79l89 508q2 25 -20 37q-11 6 -18 12q-8 6 -6 18q2 10 9.5 17.5t16.5 7.5h310q9 0 14 -7.5t3 -17.5q-2 -12 -12 -18q-9 -6 -19 -11
q-29 -17 -34 -44l-76 -436q-17 -96 -100 -150t-216 -55z" />
    <glyph glyph-name="K" unicode="K" horiz-adv-x="861" 
d="M148 682q-11 9 -3 26t23 17h310q15 0 17 -17t-12 -26q-9 -6 -19 -11q-28 -17 -33 -44l-2 -10l-37 -210l326 232q23 17 6 37l-7 7q-11 8 -3 25t23 17h152q15 0 17 -17t-12 -25q-8 -6 -30 -14q-30 -12 -55 -31l-154 -112l156 -436q11 -27 34 -39q2 -1 14 -8q11 -9 3 -26
t-24 -17h-347q-10 0 -15 8t-2.5 18.5t11.5 16.5q3 2 9.5 5.5t9.5 4.5q29 14 21 40l-84 276l-64 -47l-40 -224q-5 -28 18 -44q3 -2 8.5 -6t7.5 -5q11 -9 3 -26t-24 -17h-310q-15 0 -17 17t12 26q8 5 23 12q29 14 34 43l94 529q3 31 -20 43q-10 6 -18 12z" />
    <glyph glyph-name="L" unicode="L" horiz-adv-x="696" 
d="M41 0q-15 0 -17 17t12 26q8 5 23 12q29 14 34 43l94 529q3 31 -20 43q-11 6 -18 12q-11 9 -3 26t23 17h310q15 0 17 -17t-12 -26q-9 -6 -19 -11q-28 -17 -33 -44l-2 -10l-92 -519q0 -1 -0.5 -3.5t-0.5 -4.5q-2 -13 4.5 -21.5t19.5 -8.5h2h97q25 0 46.5 5t34 8.5t28 17
t19.5 17t18.5 22.5t15.5 20q16 19 35 24t29 -7t3 -34q-11 -32 -40 -104q-14 -29 -43 -29h-565z" />
    <glyph glyph-name="M" unicode="M" horiz-adv-x="1017" 
d="M41 0q-15 0 -17 17t12 26q8 5 23 12q29 14 34 43l114 537q0 24 -20 35q-11 6 -18 12q-11 9 -3 26t23 17h261q29 0 36 -28l89 -391l213 391q15 28 45 28h243q16 0 18 -17t-12 -26q-2 -1 -9 -5t-10 -6q-28 -15 -33 -41l-68 -532q-3 -29 18 -44q5 -3 15 -11q11 -9 3 -26
t-24 -17h-309q-15 0 -17 17t12 26q6 4 22 12q30 13 35 43l58 455l-281 -525q-15 -28 -44 -28h-47q-29 0 -36 28l-107 528l-97 -458q-5 -28 18 -44q3 -2 8.5 -6t7.5 -5q11 -9 3 -26t-24 -17h-135z" />
    <glyph glyph-name="N" unicode="N" horiz-adv-x="832" 
d="M41 0q-15 0 -17 17t12 26q8 5 23 12q29 14 34 43l94 529q3 31 -20 43q-11 6 -18 12q-10 8 -3.5 24t20.5 19h-1h264q30 0 42 -24l254 -484l73 410q3 31 -20 43q-10 6 -18 12q-11 9 -3 26t23 17h135q15 0 17.5 -17t-12.5 -26q-9 -6 -19 -11q-28 -17 -33 -44l-2 -10
l-92 -519q-5 -28 18 -44q3 -2 8.5 -6t7.5 -5q13 -9 6.5 -26t-27.5 -17h-216q-30 0 -43 25l-282 544l-83 -471q-5 -28 18 -44q3 -2 8.5 -6t7.5 -5q11 -9 3 -26t-24 -17h-135z" />
    <glyph glyph-name="O" unicode="O" horiz-adv-x="846" 
d="M425 -13q-188 0 -272.5 100.5t-53.5 274.5t150.5 275t307.5 101t273 -101t54 -275q-30 -173 -150.5 -274t-308.5 -101zM509 676q-145 -17 -162 -331q-9 -148 20.5 -226.5t107.5 -69.5q144 17 161 330q8 149 -21 227.5t-106 69.5z" />
    <glyph glyph-name="P" unicode="P" horiz-adv-x="843" 
d="M148 679q-11 9 -3 26t24 17l320 1q212 1 320 -64.5t86 -190.5t-152 -189.5t-344 -64.5h-40l-20 -116q-5 -28 18 -44q5 -3 15 -11q11 -9 3 -26t-24 -17h-309q-10 0 -15 8t-2.5 18.5t11.5 16.5q14 8 23 12q25 11 34 39l93 530q5 29 -19 44q-14 8 -19 11zM429 614l-53 -302
q0 -1 -0.5 -3.5t-0.5 -4.5q-3 -13 3.5 -21.5t20.5 -8.5q111 0 172.5 47t78.5 146q18 100 -26 147.5t-156 47.5q-13 1 -23 -7.5t-12 -22.5q-2 -6 -2 -8z" />
    <glyph glyph-name="Q" unicode="Q" horiz-adv-x="863" 
d="M100 362q31 174 150.5 275t307.5 101t273 -101t54 -275q-30 -173 -150.5 -274t-308.5 -101h-15q98 -58 144 -61q105 -11 197 39q29 12 35 -11l23 -88q8 -27 -20 -45q-104 -60 -206 -49q-46 5 -82.5 26.5t-60 49t-45 54.5t-49.5 46t-63 20q-29 0 -60 -18q-28 -16 -42 7
q-6 10 -2 23t16 20q25 16 42 24q-89 43 -124.5 130t-13.5 208zM510 676q-145 -17 -162 -331q-9 -148 20.5 -226.5t107.5 -69.5q144 17 161 330q8 149 -21 227.5t-106 69.5z" />
    <glyph glyph-name="R" unicode="R" horiz-adv-x="888" 
d="M148 679q-11 9 -3 26t24 17l320 1q212 1 321.5 -54t91.5 -161q-23 -132 -220 -183q30 -6 54.5 -35.5t35.5 -82.5l36 -120q8 -27 35 -37q8 -4 13 -7q11 -9 3 -26t-24 -17h-343q-10 0 -15 8t-2.5 18.5t11.5 16.5q3 2 21 11q28 13 22 41l-2 6l-18 75q-19 74 -45.5 97
t-69.5 24h-21l-34 -199q-5 -28 18 -44q5 -3 15 -11q11 -9 3 -26t-24 -17h-309q-10 0 -15 8t-2.5 18.5t11.5 16.5q14 8 23 12q25 11 34 39l93 530q5 29 -19 44q-14 8 -19 11zM431 624l-2 -10l-38 -219q-1 -1 -1.5 -4t-0.5 -4q-2 -13 4.5 -21.5t20.5 -8.5q112 0 171 36t72 114
q14 80 -31.5 117.5t-157.5 37.5q-13 1 -23 -7.5t-12 -22.5q-2 -6 -2 -8z" />
    <glyph glyph-name="S" unicode="S" horiz-adv-x="789" 
d="M69 176q5 38 34 63t68 23q37 -2 60 -24t36 -53.5t28 -63t47.5 -56t83.5 -30.5q52 -6 90 11t50 53q12 34 -17 64.5t-81 54t-113 54t-113 62t-82 80.5t-20 108q18 102 117 159.5t240 56.5q138 0 222.5 -47.5t89.5 -108.5q4 -58 -40.5 -83.5t-93.5 -4.5q-32 14 -53.5 45.5
t-32 61t-36.5 55t-67 31.5q-57 8 -100.5 -13.5t-47.5 -57.5q-3 -27 23.5 -51.5t69.5 -45.5t95.5 -42.5t103 -48t90.5 -57t59 -73.5t8 -93q-23 -103 -127.5 -161t-255.5 -58q-159 0 -252 53t-83 137z" />
    <glyph glyph-name="T" unicode="T" horiz-adv-x="788" 
d="M197 574q-15 -19 -34 -24t-29.5 7t-2.5 35q10 30 40 103q12 29 43 29h615q31 0 33 -29q4 -54 4 -103q-1 -36 -30 -42t-43 24q-1 3 -8.5 20t-10.5 22.5t-13.5 18t-21.5 17t-31 9t-45 4.5h-29l-100 -567q-5 -28 18 -44q5 -3 15 -11q11 -9 3 -26t-24 -17h-309q-15 0 -17 17
t12 26q6 4 22 12q28 13 35 43l100 567h-30q-25 0 -46 -4.5t-34 -9t-27.5 -17t-20 -18t-18.5 -22.5t-16 -20z" />
    <glyph glyph-name="U" unicode="U" horiz-adv-x="853" 
d="M174 683q-11 8 -3 25t23 17h311q15 0 17 -17t-12 -25q-4 -3 -10.5 -6.5t-8.5 -5.5q-24 -13 -32 -38l-62 -349q-21 -122 10.5 -178.5t121.5 -56.5q190 0 232 235l61 349q0 25 -20 36q-10 6 -18 12q-11 9 -3 26t23 17h129q16 0 18 -17t-12 -26q-2 -1 -8.5 -5t-10.5 -6
q-29 -16 -34 -44l-63 -357q-50 -283 -356 -283q-180 0 -262 69.5t-59 201.5l66 370q5 29 -20 44q-10 6 -18 12z" />
    <glyph glyph-name="V" unicode="V" horiz-adv-x="863" 
d="M149 682q-11 9 -3 26t24 17h339q16 0 17.5 -17t-12.5 -26q-3 -2 -8.5 -5.5t-7.5 -5.5q-27 -20 -22 -46l90 -444l259 448q8 14 7 27t-10 20q-6 4 -8 6q-11 9 -3 26t23 17h135q15 0 17.5 -17t-12.5 -26q-3 -2 -6.5 -4t-6.5 -3.5l-7 -3.5t-7 -4q-32 -14 -46 -38l-354 -601
q-16 -28 -47 -28h-124q-30 0 -37 28l-141 601q-5 25 -30 41q-7 4 -19 12z" />
    <glyph glyph-name="W" unicode="W" horiz-adv-x="1356" 
d="M155 682q-11 9 -3 26t24 17h339q16 0 17.5 -17t-12.5 -26q-3 -2 -8.5 -5.5t-7.5 -5.5q-28 -21 -23 -46l83 -441l168 296l-29 149q-5 25 -29 41q-7 4 -19 12q-11 9 -3 26t24 17h339q16 0 17.5 -17t-12.5 -26l-18 -12q-25 -17 -25 -41l69 -442l250 442q16 30 -6 47
q-2 1 -4 3t-4 3q-11 9 -3 26t23 17h135q15 0 17 -17t-12 -26q-18 -10 -28 -15q-32 -14 -45 -39l-345 -600q-16 -28 -47 -28h-123q-31 0 -36 29l-68 357l-206 -358q-16 -28 -46 -28h-124q-30 0 -37 28l-133 605q-8 23 -30 37q-7 4 -19 12z" />
    <glyph glyph-name="X" unicode="X" horiz-adv-x="904" 
d="M63 1q-16 0 -18 17t13 26q8 5 30 13q29 12 52 35l246 249l-140 291q-12 26 -37 36q-17 7 -27 14q-11 9 -3 26t24 17h355q10 0 15 -8t2.5 -18.5t-11.5 -16.5q-6 -3 -10 -7q-25 -21 -14 -43l84 -175l171 177q20 20 2 42l-7 7q-11 8 -3 25t23 17h152q15 0 17 -17t-12 -25
q-8 -6 -30 -14q-29 -12 -52 -35l-233 -237l146 -304q14 -27 37 -36q18 -7 27 -14q12 -9 3.5 -26t-23.5 -17h-356q-15 0 -17 17t12 26q6 3 9 6q26 23 15 44l-91 189l-185 -190q-21 -21 -2 -42q4 -4 7 -6q11 -9 3 -26t-23 -17h-151z" />
    <glyph glyph-name="Y" unicode="Y" horiz-adv-x="864" 
d="M150 682q-11 9 -3 26t24 17h339q16 0 17.5 -17t-12.5 -26q-1 -1 -3.5 -3t-3.5 -3q-22 -26 -11 -48l2 -5h-1l118 -274l211 280q19 29 -2 45q-10 6 -12 8q-11 9 -3 26t23 17h137q15 0 17.5 -17t-12.5 -26q-19 -12 -21 -13q-37 -21 -49 -37l-281 -370l-29 -163
q-5 -28 18 -44q3 -2 8.5 -5.5t7.5 -5.5q11 -9 3 -26t-24 -17h-310q-15 0 -17 17t12 26q6 4 22 12q30 13 35 43l28 158l-174 376q-13 23 -37 37q-3 2 -8.5 6t-8.5 6z" />
    <glyph glyph-name="Z" unicode="Z" horiz-adv-x="773" 
d="M73 0q-23 0 -27.5 12t10.5 31l487 622h-144q-25 0 -46 -4.5t-34 -9t-28 -17t-19.5 -17t-18.5 -22t-16 -20.5q-16 -19 -35 -24t-29 7t-2 34q11 32 40 104q12 29 43 29h572q23 0 27.5 -11.5t-10.5 -31.5l-488 -622h172q25 0 46 4.5t34 9t28 17t19.5 17t18.5 22t16 20.5
q15 19 34 24t29.5 -7t2.5 -34q-11 -32 -40 -104q-12 -29 -43 -29h-599z" />
    <glyph glyph-name="bracketleft" unicode="[" horiz-adv-x="1093" 
d="M174 705h1012l-124 -705h-1012zM573 141q0 9 -8 7q-12 -3 -23 4.5t-19.5 25t-13.5 31t-11.5 36.5t-7.5 26q-16 46 -72 44q15 8 39 22t29 17q19 11 36.5 20.5t26 13.5t15 8t9 7.5t3.5 8.5l1 7q1 4 -1.5 7.5t-7.5 3.5h-99q-5 0 -9.5 -3t-4.5 -7l-1 -18q10 -11 8.5 -19
t-21.5 -20l-64 -38l-40 -23q9 52 25.5 142t17.5 98q6 31 4.5 48.5t-9 24t-21 7t-32.5 -3.5q-65 -14 -104 -35q-8 -4 -9.5 -14t3.5 -16q2 -2 14.5 -7.5t19 -16t2.5 -30.5l-56 -318q-2 -16 -30.5 -41t-30.5 -29l-3 -15q-1 -10 10 -10h198q10 0 12 10l1 6q2 8 -17.5 33.5
t-16.5 44.5q0 3 15 83l17 10l41 -120q24 -70 80 -70q37 0 68 19.5t37 38.5zM1029 141q1 4 -1.5 6t-5.5 1q-12 -3 -23 4.5t-19.5 25t-13.5 31t-11.5 36.5t-7.5 26q-16 46 -73 44q15 8 68 39q19 11 36.5 20.5t26 13.5t15 8t9 7.5t3.5 8.5l2 7q1 4 -2 7.5t-7 3.5h-99
q-12 0 -14 -10q-1 -2 -1.5 -4t-1.5 -7.5t1 -6.5q8 -9 9.5 -13.5t-3 -10.5t-18.5 -15l-64 -38l-40 -23q18 103 42 240q11 58 -1.5 70.5t-56.5 5.5q-67 -15 -103 -35q-8 -4 -9.5 -14t3.5 -16q2 -2 14.5 -7.5t19 -16t3.5 -30.5l-56 -318q-2 -16 -31 -41t-31 -29l-3 -15
q-1 -10 10 -10h197q12 0 14 10l1 6q1 8 -18 33.5t-16 44.5l1 10q2 10 6 31.5t7 41.5l18 10l40 -120q24 -70 80 -70q36 0 67 19.5t37 38.5z" />
    <glyph glyph-name="backslash" unicode="\" horiz-adv-x="1083" 
d="M159 705h1012l-124 -705h-1012zM558 141q0 9 -8 7q-12 -3 -23 4.5t-19.5 25t-13.5 31t-11.5 36.5t-7.5 26q-16 46 -72 44q15 8 39 22t29 17q19 11 36.5 20.5t26 13.5t15 8t9 7.5t3.5 8.5l1 7q1 4 -1.5 7.5t-7.5 3.5h-99q-5 0 -9.5 -3t-4.5 -7l-1 -18q10 -11 8.5 -19
t-21.5 -20l-64 -38l-40 -23q9 52 25.5 142t17.5 98q6 31 4.5 48.5t-9 24t-21 7t-32.5 -3.5q-65 -14 -104 -35q-8 -4 -9.5 -14t3.5 -16q2 -2 14.5 -7.5t19 -16t2.5 -30.5l-56 -318q-2 -16 -30.5 -41t-30.5 -29l-3 -15q-1 -10 10 -10h198q10 0 12 10l1 6q2 8 -17.5 33.5
t-16.5 44.5q0 3 15 83l17 10l41 -120q24 -70 80 -70q37 0 68 19.5t37 38.5zM1014 141q1 4 -1.5 6t-5.5 1q-12 -3 -23 4.5t-19.5 25t-13.5 31t-11.5 36.5t-7.5 26q-16 46 -73 44q15 8 68 39q19 11 36.5 20.5t26 13.5t15 8t9 7.5t3.5 8.5l2 7q1 4 -2 7.5t-7 3.5h-99
q-12 0 -14 -10q-1 -2 -1.5 -4t-1.5 -7.5t1 -6.5q8 -9 9.5 -13.5t-3 -10.5t-18.5 -15l-64 -38l-40 -23q18 103 42 240q11 58 -1.5 70.5t-56.5 5.5q-67 -15 -103 -35q-8 -4 -9.5 -14t3.5 -16q2 -2 14.5 -7.5t19 -16t3.5 -30.5l-56 -318q-2 -16 -31 -41t-31 -29l-3 -15
q-1 -10 10 -10h197q12 0 14 10l1 6q1 8 -18 33.5t-16 44.5l2 10q1 10 5 31.5t7 41.5l18 10l40 -120q24 -70 80 -70q36 0 67 19.5t37 38.5z" />
    <glyph glyph-name="bracketright" unicode="]" horiz-adv-x="1093" 
d="M154 705h1012l-124 -705h-1012zM553 141q0 9 -8 7q-12 -3 -23 4.5t-19.5 25t-13.5 31t-11.5 36.5t-7.5 26q-16 46 -72 44q15 8 39 22t29 17q19 11 36.5 20.5t26 13.5t15 8t9 7.5t3.5 8.5l1 7q1 4 -1.5 7.5t-7.5 3.5h-99q-5 0 -9.5 -3t-4.5 -7l-1 -18q10 -11 8.5 -19
t-21.5 -20l-64 -38l-40 -23q9 52 25.5 142t17.5 98q6 31 4.5 48.5t-9 24t-21 7t-32.5 -3.5q-65 -14 -104 -35q-8 -4 -9.5 -14t3.5 -16q2 -2 14.5 -7.5t19 -16t2.5 -30.5l-56 -318q-2 -16 -30.5 -41t-30.5 -29l-3 -15q-1 -10 10 -10h198q10 0 12 10l1 6q2 8 -17.5 33.5
t-16.5 44.5q0 3 15 83l17 10l41 -120q24 -70 80 -70q37 0 68 19.5t37 38.5zM1009 141q1 4 -1.5 6t-5.5 1q-12 -3 -23 4.5t-19.5 25t-13.5 31t-11.5 36.5t-7.5 26q-16 46 -73 44q15 8 68 39q19 11 36.5 20.5t26 13.5t15 8t9 7.5t3.5 8.5l2 7q1 4 -2 7.5t-7 3.5h-99
q-12 0 -14 -10q-1 -2 -1.5 -4t-1.5 -7.5t1 -6.5q8 -9 9.5 -13.5t-3 -10.5t-18.5 -15l-64 -38l-40 -23q18 103 42 240q11 58 -1.5 70.5t-56.5 5.5q-67 -15 -103 -35q-8 -4 -9.5 -14t3.5 -16q2 -2 14.5 -7.5t19 -16t3.5 -30.5l-56 -318q-2 -16 -31 -41t-31 -29l-3 -15
q-1 -10 10 -10h197q12 0 14 10l1 6q1 8 -18 33.5t-16 44.5l1 10q2 10 6 31.5t7 41.5l18 10l40 -120q24 -70 80 -70q36 0 67 19.5t37 38.5z" />
    <glyph glyph-name="underscore" unicode="_" 
d="M169 705h1012l-124 -705h-1012zM568 141q0 9 -8 7q-12 -3 -23 4.5t-19.5 25t-13.5 31t-11.5 36.5t-7.5 26q-16 46 -72 44q15 8 39 22t29 17q19 11 36.5 20.5t26 13.5t15 8t9 7.5t3.5 8.5l1 7q1 4 -1.5 7.5t-7.5 3.5h-99q-5 0 -9.5 -3t-4.5 -7l-1 -18q10 -11 8.5 -19
t-21.5 -20l-64 -38l-40 -23q9 52 25.5 142t17.5 98q6 31 4.5 48.5t-9 24t-21 7t-32.5 -3.5q-65 -14 -104 -35q-8 -4 -9.5 -14t3.5 -16q2 -2 14.5 -7.5t19 -16t2.5 -30.5l-56 -318q-2 -16 -30.5 -41t-30.5 -29l-3 -15q-1 -10 10 -10h198q10 0 12 10l1 6q2 8 -17.5 33.5
t-16.5 44.5q0 3 15 83l17 10l41 -120q24 -70 80 -70q37 0 68 19.5t37 38.5zM1024 141q1 4 -1.5 6t-5.5 1q-12 -3 -23 4.5t-19.5 25t-13.5 31t-11.5 36.5t-7.5 26q-16 46 -73 44q15 8 68 39q19 11 36.5 20.5t26 13.5t15 8t9 7.5t3.5 8.5l2 7q1 4 -2 7.5t-7 3.5h-99
q-12 0 -14 -10q-1 -2 -1.5 -4t-1.5 -7.5t1 -6.5q8 -9 9.5 -13.5t-3 -10.5t-18.5 -15l-64 -38l-40 -23q18 103 42 240q11 58 -1.5 70.5t-56.5 5.5q-67 -15 -103 -35q-8 -4 -9.5 -14t3.5 -16q2 -2 14.5 -7.5t19 -16t3.5 -30.5l-56 -318q-2 -16 -31 -41t-31 -29l-3 -15
q-1 -10 10 -10h197q12 0 14 10l1 6q1 8 -18 33.5t-16 44.5l2 10q1 10 5 31.5t7 41.5l18 10l40 -120q24 -70 80 -70q36 0 67 19.5t37 38.5z" />
    <glyph glyph-name="a" unicode="a" horiz-adv-x="677" 
d="M41 108q5 55 38 95t79 58.5t97.5 26.5t92.5 6t64 -10l6 34q11 57 2 84.5t-41 28.5q-18 0 -31 -4t-22.5 -16.5t-13.5 -20t-14 -28.5q-12 -28 -54.5 -37t-76 6.5t-25.5 47.5q11 46 81.5 74.5t176.5 27.5q124 0 190.5 -48.5t48.5 -150.5q-7 -39 -18 -100t-14 -76
q-8 -48 15 -51q8 -1 22 6.5t20 6.5q14 -4 3 -24q-19 -38 -93 -52q-31 -5 -68 -5q-57 1 -93 23.5t-37 65.5q-30 -43 -81 -66.5t-108 -23.5q-69 0 -109.5 33t-36.5 89zM273 166q-10 -38 2 -62t45 -23q53 1 73 97l10 55q-10 5 -25 7.5t-36.5 0.5t-40.5 -21t-28 -54z" />
    <glyph glyph-name="b" unicode="b" horiz-adv-x="695" 
d="M141 659q-16 2 -16 20.5t17 26.5q52 28 138 38t131 -5q39 -13 24 -92l-32 -186q39 14 87 19q117 8 176 -60t38 -186q-21 -120 -98.5 -183.5t-197.5 -63.5h-10q-47 3 -86.5 28t-65.5 20q-21 -4 -51.5 -13.5t-62.5 -15.5t-75 -6q-16 0 -17.5 17t12.5 26q6 4 22 12
q28 13 35 43l96 544q2 14 -6.5 18t-30 1.5t-27.5 -2.5zM420 415q-33 -5 -41.5 -38t-13.5 -152q-5 -108 6.5 -148t45.5 -34t44.5 46.5t11.5 153.5q1 111 -9 144.5t-44 27.5z" />
    <glyph glyph-name="c" unicode="c" horiz-adv-x="584" 
d="M53 234q17 117 110 182.5t223 65.5q103 0 163.5 -38t55.5 -97q-3 -44 -42.5 -71.5t-100.5 -21.5q-40 4 -56 25.5t-14 47.5t5.5 51t-7 39t-43.5 7q-35 -7 -60 -66t-21 -137q8 -148 119 -150q47 0 85.5 25.5t56.5 71.5q13 33 41 30q27 -4 15 -39q-68 -173 -298 -173
q-126 0 -188 64.5t-44 183.5z" />
    <glyph glyph-name="d" unicode="d" horiz-adv-x="652" 
d="M53 234q19 119 102 188t195 60q39 -4 72 -20l29 169q0 12 1.5 18.5t-4 9.5t-10 4t-16.5 1q-17 1 -16.5 20t17.5 27q46 25 118.5 33.5t113.5 -5.5q39 -13 24 -92l-7 -42q-24 -125 -89 -499q-9 -48 14 -51q8 -1 22.5 6.5t20.5 6.5q14 -4 3 -24q-20 -39 -95 -52
q-31 -5 -66 -5q-74 2 -106 35q-54 -30 -118 -36q-110 -9 -167 59.5t-38 188.5zM331 425q-34 -6 -44 -42t-11 -148q-1 -114 9 -151t44 -31t44 46.5t11 153.5q2 110 -8.5 144t-44.5 28z" />
    <glyph glyph-name="e" unicode="e" horiz-adv-x="584" 
d="M53 234q17 117 110 182.5t223 65.5q101 0 159 -42.5t58 -105.5q0 -61 -64 -102.5t-139 -54t-128 -3.5q19 -101 113 -103q47 0 85.5 25.5t56.5 71.5q13 33 41 30q27 -4 15 -39q-68 -173 -298 -173q-126 0 -188 64.5t-44 183.5zM347 424q-35 -7 -59.5 -65t-21.5 -135
q42 -4 83.5 8t56.5 46q26 56 6 105.5t-65 40.5z" />
    <glyph glyph-name="f" unicode="f" horiz-adv-x="489" 
d="M130 415q-25 0 -20 25v1q1 11 9.5 18t19.5 7h41v1q-27 113 57 197t248 82q104 -1 167 -38.5t58 -95.5q-3 -44 -42.5 -71.5t-101.5 -21.5q-37 4 -54.5 23t-17.5 44t2.5 49.5t-1.5 41t-23 16.5q-30 -1 -53 -27.5t-32.5 -62t-6 -74.5t21.5 -63h108q25 0 20 -26
q-1 -11 -9.5 -18t-19.5 -7h-108l-56 -317q-5 -28 18 -44q3 -2 8.5 -6t7.5 -5q11 -9 3 -26t-24 -17h-287q-15 0 -17 17t12 26q8 5 23 12q29 14 34 43l56 317h-41z" />
    <glyph glyph-name="g" unicode="g" horiz-adv-x="638" 
d="M174 83q-66 24 -96.5 71.5t-18.5 116.5q18 101 108.5 155.5t229.5 54.5q128 15 225 107q33 32 59 1q25 -30 15 -74q-4 -19 -16 -34q-16 -19 -55 -23t-71 0q129 -49 106 -187q-19 -104 -108 -157t-230 -53q-18 0 -50 2q-33 -7 -56.5 -22.5t-17.5 -33.5q4 -11 34.5 -11.5
t74 9.5t94 15t94 5t75 -21.5t36.5 -64.5q8 -77 -61 -138.5t-203 -61.5q-33 0 -36 22q-4 17 14 21q3 1 6 1q26 1 50.5 4t52.5 9.5t44 19.5t13 31q-2 15 -22 16t-55.5 -7t-76.5 -18t-95 -19t-101 -8q-65 2 -98.5 35.5t-24.5 89.5q16 105 161 147zM353 433q-37 -5 -46.5 -39
t-5.5 -130q4 -97 16 -128t49 -27q36 5 46 39.5t6 130.5q-4 97 -16 127.5t-49 26.5z" />
    <glyph glyph-name="h" unicode="h" horiz-adv-x="734" 
d="M142 659q-16 2 -16 20.5t17 26.5q52 28 135.5 38t128.5 -5q39 -13 24 -92l-46 -262q36 43 86 69.5t103 27.5q96 1 131 -35t21 -119l-39 -220h1l-2 -10q-5 -28 18 -44q5 -3 15 -11q11 -9 3 -26t-23 -17h-165q-89 0 -73 99l29 162q12 41 11 79.5t-32 37.5q-34 -1 -66 -40
t-40 -81l-28 -159q-5 -28 18 -44q5 -3 15 -11q11 -9 3 -26t-24 -17h-289q-16 0 -17.5 17t12.5 26q6 4 22 12q28 13 35 43l96 544q2 14 -6.5 18t-30 1.5t-27.5 -2.5z" />
    <glyph glyph-name="i" unicode="i" horiz-adv-x="381" 
d="M92 382q-17 1 -16.5 20t17.5 27q52 27 135 37.5t129 -4.5q39 -13 24 -92l-48 -272q-5 -28 18 -44q5 -3 15 -11q11 -9 3 -26t-23 -17h-290q-15 0 -17 17t12 26q6 4 22 12q30 13 35 43l47 267q3 14 -5.5 18t-30.5 1.5t-27 -2.5zM284 548q-64 0 -95 28.5t-22 79.5
q9 50 49.5 78t104.5 28t94.5 -28t21.5 -78q-9 -52 -49 -80t-104 -28z" />
    <glyph glyph-name="j" unicode="j" horiz-adv-x="401" 
d="M107 -230q-44 -1 -78.5 5.5t-53.5 17t-31.5 23t-13 24.5t1.5 22q5 11 18 11.5t26 -4.5t30.5 -11t27.5 -6q37 0 46 49l82 463q2 14 -6.5 18t-30 1.5t-27.5 -2.5q-16 2 -16 20.5t17 26.5q53 27 135.5 37.5t128.5 -4.5q39 -13 24 -92l-77 -445q-26 -152 -203 -154zM177 656
q9 52 50.5 80.5t106.5 28.5q66 0 97 -28.5t22 -80.5q-10 -53 -51 -81.5t-106 -28.5q-66 0 -97.5 29t-21.5 81z" />
    <glyph glyph-name="k" unicode="k" horiz-adv-x="738" 
d="M141 657q-17 1 -16.5 20t17.5 27q52 28 133.5 38t127.5 -5q39 -13 24 -92l-58 -331q44 16 84 47.5t65 58.5t66 49t92 24q53 2 88.5 -26.5t24.5 -78.5q-7 -34 -33 -55t-56 -19q-25 3 -41 14t-21.5 23t-15.5 22t-25 10q-19 0 -38.5 -12t-48 -36.5t-49.5 -37.5
q94 12 140.5 -18.5t61.5 -117.5l12 -78q2 -14 11.5 -23.5t21.5 -10.5q16 -2 22 -6q11 -9 3 -26t-24 -17h-196q-22 0 -37.5 13t-19.5 35q-9 46 -19 106q-9 54 -28.5 70t-53.5 13l-24 -139q-5 -28 18 -44q5 -3 15 -11q11 -9 3 -26t-24 -17h-286q-16 0 -17.5 17t12.5 26
q6 4 22 12q28 13 35 43l95 542q3 14 -5.5 18t-30.5 1.5t-27 -2.5z" />
    <glyph glyph-name="l" unicode="l" horiz-adv-x="385" 
d="M142 659q-17 1 -16.5 20t17.5 27q51 28 135 38t129 -5q39 -13 24 -92l-97 -549q-5 -28 18 -44q5 -3 15 -11q11 -9 3 -26t-23 -17h-290q-15 0 -17 17t12 26q6 4 22 12q30 13 35 43l96 544q3 14 -5.5 18t-30.5 1.5t-27 -2.5z" />
    <glyph glyph-name="m" unicode="m" horiz-adv-x="1085" 
d="M95 392q-16 2 -16 20.5t17 26.5q53 27 135.5 37.5t128.5 -4.5q37 -12 25 -88q36 44 86.5 70.5t103.5 27.5q80 2 118 -23.5t39 -80.5q35 46 86.5 74.5t107.5 29.5q96 1 131 -35t21 -119l-39 -220l-1 -10q-5 -28 18 -44q5 -3 15 -11q11 -9 3 -26t-24 -17h-164q-89 0 -73 99
l29 162q12 41 10.5 79.5t-32.5 37.5q-32 -1 -63 -36.5t-41 -77.5l-29 -166q-6 -27 18 -44q3 -2 7.5 -5.5t7.5 -5.5q11 -9 3 -26t-24 -17h-165q-88 0 -72 99h-1l29 162q12 41 11 79.5t-32 37.5q-34 -1 -66.5 -41t-40.5 -83l-27 -156q-5 -28 18 -44q5 -3 15 -11q11 -9 3 -26
t-24 -17h-289q-16 0 -17.5 17t12.5 26q6 4 22 12q28 13 35 43l49 277q2 14 -6.5 18t-30 1.5t-27.5 -2.5z" />
    <glyph glyph-name="n" unicode="n" horiz-adv-x="731" 
d="M95 392q-16 2 -16 20.5t17 26.5q53 27 134 37.5t127 -4.5q37 -13 25 -86q36 43 86 69t103 27q96 1 131 -35t21 -119l-39 -220l-1 -10q-5 -28 18 -44q3 -2 7.5 -5.5t7.5 -5.5q11 -9 3 -26t-24 -17h-165q-87 0 -73 99l30 162q11 41 10 79.5t-32 37.5q-32 -1 -62.5 -36
t-41.5 -76l-29 -168q-5 -28 18 -44q5 -3 15 -11q11 -9 3 -26t-24 -17h-286q-16 0 -17.5 17t12.5 26q6 4 22 12q28 13 35 43l49 277q2 14 -6.5 18t-30 1.5t-27.5 -2.5z" />
    <glyph glyph-name="o" unicode="o" horiz-adv-x="595" 
d="M285 -14q-127 0 -190 64.5t-42 183.5t106.5 183.5t212.5 64.5q129 0 191.5 -62.5t40.5 -185.5t-106 -185.5t-213 -62.5zM330 424q-34 -6 -44 -45.5t-12 -153.5q-1 -114 9 -151t44 -31q33 6 43.5 46t12.5 154q1 114 -9 150.5t-44 30.5z" />
    <glyph glyph-name="p" unicode="p" horiz-adv-x="686" 
d="M95 392q-16 2 -16 20.5t17 26.5q53 27 122.5 37.5t116.5 -4.5q18 -6 25 -26q58 28 121 34q118 8 177 -60t38 -186t-105.5 -186.5t-191.5 -60.5q-39 3 -80 22l-24 -139q-5 -28 18 -44q5 -3 15 -11q11 -9 3 -26t-24 -17h-289q-10 0 -15 8t-2.5 18.5t11.5 16.5q14 8 23 12
q29 15 34 44l90 504q2 14 -6.5 18t-30 1.5t-27.5 -2.5zM412 415q-33 -5 -43 -43.5t-13 -146.5q-3 -110 7.5 -149t45.5 -33q34 6 45.5 47.5t10.5 152.5q-2 107 -11 142.5t-42 29.5z" />
    <glyph glyph-name="q" unicode="q" horiz-adv-x="654" 
d="M53 234q19 117 101.5 185.5t192.5 58.5q49 -4 89 -29q13 20 32 25q41 12 115.5 4t107.5 -29q13 -8 7 -24.5t-21 -17.5t-20 -2t-10 -7.5t-7 -20.5l-50 -285l-38 -212q-8 -44 13 -45q7 -1 20 5.5t18 5.5q13 -3 3 -22q-21 -37 -96 -47q-23 -3 -49 -3q-66 1 -102 35t-29 89
l21 115q-48 -20 -96 -24q-109 -9 -165 58.5t-37 186.5zM328 422q-34 -5 -43.5 -40.5t-11.5 -146.5q-1 -113 9 -149.5t43 -30.5q33 5 43.5 45t11.5 152q2 110 -8 143t-44 27z" />
    <glyph glyph-name="r" unicode="r" horiz-adv-x="647" 
d="M95 392q-16 2 -16 20.5t17 26.5q53 27 123 37.5t117 -4.5q33 -11 27 -69q52 69 136 79q102 12 158.5 -29t44.5 -106q-8 -45 -45.5 -72t-98.5 -21q-37 4 -52 22.5t-13 43t7 48t0 39t-27 14.5q-44 -2 -73 -52.5t-39 -105.5l-29 -165q-5 -28 18 -44q5 -3 15 -11q11 -9 3 -26
t-24 -17h-286q-16 0 -17.5 17t12.5 26q6 4 22 12q28 13 35 43l49 277q2 14 -6.5 18t-30 1.5t-27.5 -2.5z" />
    <glyph glyph-name="s" unicode="s" horiz-adv-x="574" 
d="M34 90q-9 38 16 67.5t67 23.5q23 -3 36.5 -17.5t21 -33t16.5 -38t31 -35t57 -21.5q73 -11 82 39q4 20 -26 40t-74.5 39.5t-88 43t-71 60.5t-19.5 81q11 68 88 109t192 36q104 -4 160 -32t55 -71q0 -28 -22.5 -45t-50.5 -13q-25 4 -42 21t-25.5 35.5t-29 34.5t-52.5 19
q-28 2 -49.5 -8t-25.5 -29q-5 -25 24.5 -43t75.5 -32.5t91.5 -32t75 -50.5t23.5 -80q-11 -84 -86.5 -129t-208.5 -45q-28 0 -62 4.5t-73 15.5t-68.5 33t-37.5 53z" />
    <glyph glyph-name="t" unicode="t" horiz-adv-x="479" 
d="M130 415q-25 0 -20 25v1q3 22 25 24l-1 1q52 1 91 52.5t58 121.5q10 31 38 37l112 22q13 3 20 -3.5t5 -20.5l-37 -209h89q25 0 20 -26q-1 -11 -9.5 -18t-19.5 -7h-89l-55 -312q-8 -48 29 -48q13 0 43 8t39 8q11 0 13 -6q5 -12 -11 -30.5t-65 -34.5t-119 -15
q-86 1 -124 39.5t-25 113.5l50 277h-57z" />
    <glyph glyph-name="u" unicode="u" horiz-adv-x="734" 
d="M94 397q-16 2 -16 20.5t17 26.5q46 25 119 33.5t113 -5.5q39 -13 24 -92l-32 -179q-5 -25 -6 -40t1.5 -31.5t13.5 -24t31 -7.5q31 1 58.5 30.5t38.5 68.5l25 142h1l4 25q0 12 1.5 18.5t-4.5 9.5t-10 4t-17 1q-16 2 -16 20.5t17 26.5q46 25 119 33.5t113 -5.5
q39 -13 24 -92l-7 -39q-7 -39 -23 -129.5t-19 -105.5q-8 -48 14 -51q8 -1 22.5 6.5t20.5 6.5q14 -4 3 -24q-20 -39 -95 -52q-31 -5 -66 -5q-59 1 -94 25t-33 70q-34 -43 -86.5 -67t-107.5 -26q-96 -1 -133.5 36.5t-23.5 117.5l39 221q5 15 0.5 22.5t-9.5 8.5t-21 2z" />
    <glyph glyph-name="v" unicode="v" horiz-adv-x="657" 
d="M86 425q-11 9 -3 26t24 17h299q15 0 17 -17t-12 -26q-1 -1 -7 -4.5t-10 -5.5q-28 -16 -23 -43l58 -254l148 242l7 13q15 26 -7 42q-3 2 -8 5.5t-6 4.5q-11 9 -3 26t23 17h129q15 0 17 -17t-12 -26q-14 -8 -21 -11q-31 -17 -45 -41l-215 -345q-16 -28 -48 -28h-123
q-31 0 -38 28l-91 345q-7 26 -32 40z" />
    <glyph glyph-name="w" unicode="w" horiz-adv-x="1017" 
d="M86 425q-11 9 -3 26t24 17h297q10 0 15 -8t2.5 -18.5t-11.5 -16.5q-12 -6 -18 -10q-25 -15 -25 -36l51 -259l111 189l-16 64q-9 28 -31 40l-18 12q-11 9 -3 26t23 17h298q15 0 17 -17t-12 -26q-1 -1 -7 -4.5t-10 -5.5q-25 -15 -25 -36l50 -259l149 253q14 25 -9 42
q-5 4 -13 10q-11 9 -3.5 26t23.5 17h128q16 0 18 -17t-12 -26q-14 -8 -21 -11q-26 -15 -42 -37l-210 -349q-16 -28 -47 -28h-124q-30 0 -37 28l-48 203l-121 -203q-16 -28 -47 -28h-124q-30 0 -37 28l-83 345q-7 27 -30 40q-7 4 -19 12z" />
    <glyph glyph-name="x" unicode="x" horiz-adv-x="680" 
d="M24 1q-15 0 -17 17t12 26q8 5 30 13q29 12 54 34l150 132l-95 154q-16 24 -40 34q-25 12 -27 14q-11 9 -3 26t24 17h329q15 0 17 -17t-12 -26l-9 -6q-25 -21 -12 -42l46 -75l87 77q22 19 4 40q-1 1 -3.5 3t-3.5 3q-11 9 -3 26t23 17h158q16 0 18 -17t-12 -26
q-8 -5 -30 -13q-29 -12 -54 -34l-149 -131l97 -155q15 -25 39 -35q17 -6 28 -14q11 -9 3 -26t-24 -17h-329q-10 0 -15 8t-2.5 18.5t11.5 16.5q4 2 10 6q24 22 12 43l-48 76l-88 -78q-22 -19 -4 -40q1 -1 3.5 -3t3.5 -3q11 -9 3 -26t-23 -17h-159z" />
    <glyph glyph-name="y" unicode="y" horiz-adv-x="668" 
d="M148 -233q-88 -1 -132 44t-19 109q20 51 82 58q52 6 80 -22q19 -19 12 -44q-11 -39 2.5 -64t31.5 -23q4 0 6 1q-2 -1 -6 -1q3 0 11 2q28 10 33.5 56t-11 123.5t-35 145.5t-47.5 163q-14 44 -20 65q-9 22 -30 33l-21 12q-11 9 -3 26t24 17h310q15 0 17 -17t-12 -26
q-12 -6 -18 -10q-25 -15 -23 -38q55 -224 57 -263l150 246h-1l7 13q16 26 -7 42q-3 2 -8 5.5t-6 4.5q-11 9 -3 26t23 17h129q16 0 18 -17t-13 -26q-17 -10 -20 -11q-27 -14 -43 -37l-240 -390q-40 -64 -63 -96.5t-56 -65t-69.5 -45t-86.5 -13.5zM217 -173q-3 0 -6 -1
q3 1 6 1z" />
    <glyph glyph-name="z" unicode="z" horiz-adv-x="538" 
d="M34 0q-23 0 -26.5 11t12.5 30l334 378h-68q-25 0 -46 -4.5t-34 -9t-27.5 -17t-20 -18t-18.5 -22.5t-16 -20q-25 -30 -44 -20.5t-7 45.5q18 55 31 86q12 29 42 29h352h76q23 0 26.5 -11t-12.5 -30l-334 -377h78q25 0 46 4.5t34 9t28 17t19.5 17t18.5 22t16 20.5
q24 30 43.5 20.5t7.5 -45.5q-13 -37 -31 -85q-12 -30 -43 -30h-437z" />
    <glyph glyph-name="braceleft" unicode="{" horiz-adv-x="1093" 
d="M174 705h1012l-124 -705h-1012zM573 141q0 9 -8 7q-12 -3 -23 4.5t-19.5 25t-13.5 31t-11.5 36.5t-7.5 26q-16 46 -72 44q15 8 39 22t29 17q19 11 36.5 20.5t26 13.5t15 8t9 7.5t3.5 8.5l1 7q1 4 -1.5 7.5t-7.5 3.5h-99q-5 0 -9.5 -3t-4.5 -7l-1 -18q10 -11 8.5 -19
t-21.5 -20l-64 -38l-40 -23q9 52 25.5 142t17.5 98q6 31 4.5 48.5t-9 24t-21 7t-32.5 -3.5q-65 -14 -104 -35q-8 -4 -9.5 -14t3.5 -16q2 -2 14.5 -7.5t19 -16t2.5 -30.5l-56 -318q-2 -16 -30.5 -41t-30.5 -29l-3 -15q-1 -10 10 -10h198q10 0 12 10l1 6q2 8 -17.5 33.5
t-16.5 44.5q0 3 15 83l17 10l41 -120q24 -70 80 -70q37 0 68 19.5t37 38.5zM1029 141q1 4 -1.5 6t-5.5 1q-12 -3 -23 4.5t-19.5 25t-13.5 31t-11.5 36.5t-7.5 26q-16 46 -73 44q15 8 68 39q19 11 36.5 20.5t26 13.5t15 8t9 7.5t3.5 8.5l2 7q1 4 -2 7.5t-7 3.5h-99
q-12 0 -14 -10q-1 -2 -1.5 -4t-1.5 -7.5t1 -6.5q8 -9 9.5 -13.5t-3 -10.5t-18.5 -15l-64 -38l-40 -23q18 103 42 240q11 58 -1.5 70.5t-56.5 5.5q-67 -15 -103 -35q-8 -4 -9.5 -14t3.5 -16q2 -2 14.5 -7.5t19 -16t3.5 -30.5l-56 -318q-2 -16 -31 -41t-31 -29l-3 -15
q-1 -10 10 -10h197q12 0 14 10l1 6q1 8 -18 33.5t-16 44.5l1 10q2 10 6 31.5t7 41.5l18 10l40 -120q24 -70 80 -70q36 0 67 19.5t37 38.5z" />
    <glyph glyph-name="bar" unicode="|" 
d="M169 705h1012l-124 -705h-1012zM568 141q0 9 -8 7q-12 -3 -23 4.5t-19.5 25t-13.5 31t-11.5 36.5t-7.5 26q-16 46 -72 44q15 8 39 22t29 17q19 11 36.5 20.5t26 13.5t15 8t9 7.5t3.5 8.5l1 7q1 4 -1.5 7.5t-7.5 3.5h-99q-5 0 -9.5 -3t-4.5 -7l-1 -18q10 -11 8.5 -19
t-21.5 -20l-64 -38l-40 -23q9 52 25.5 142t17.5 98q6 31 4.5 48.5t-9 24t-21 7t-32.5 -3.5q-65 -14 -104 -35q-8 -4 -9.5 -14t3.5 -16q2 -2 14.5 -7.5t19 -16t2.5 -30.5l-56 -318q-2 -16 -30.5 -41t-30.5 -29l-3 -15q-1 -10 10 -10h198q10 0 12 10l1 6q2 8 -17.5 33.5
t-16.5 44.5q0 3 15 83l17 10l41 -120q24 -70 80 -70q37 0 68 19.5t37 38.5zM1024 141q1 4 -1.5 6t-5.5 1q-12 -3 -23 4.5t-19.5 25t-13.5 31t-11.5 36.5t-7.5 26q-16 46 -73 44q15 8 68 39q19 11 36.5 20.5t26 13.5t15 8t9 7.5t3.5 8.5l2 7q1 4 -2 7.5t-7 3.5h-99
q-12 0 -14 -10q-1 -2 -1.5 -4t-1.5 -7.5t1 -6.5q8 -9 9.5 -13.5t-3 -10.5t-18.5 -15l-64 -38l-40 -23q18 103 42 240q11 58 -1.5 70.5t-56.5 5.5q-67 -15 -103 -35q-8 -4 -9.5 -14t3.5 -16q2 -2 14.5 -7.5t19 -16t3.5 -30.5l-56 -318q-2 -16 -31 -41t-31 -29l-3 -15
q-1 -10 10 -10h197q12 0 14 10l1 6q1 8 -18 33.5t-16 44.5l2 10q1 10 5 31.5t7 41.5l18 10l40 -120q24 -70 80 -70q36 0 67 19.5t37 38.5z" />
    <glyph glyph-name="braceright" unicode="}" horiz-adv-x="1093" 
d="M154 705h1012l-124 -705h-1012zM553 141q0 9 -8 7q-12 -3 -23 4.5t-19.5 25t-13.5 31t-11.5 36.5t-7.5 26q-16 46 -72 44q15 8 39 22t29 17q19 11 36.5 20.5t26 13.5t15 8t9 7.5t3.5 8.5l1 7q1 4 -1.5 7.5t-7.5 3.5h-99q-5 0 -9.5 -3t-4.5 -7l-1 -18q10 -11 8.5 -19
t-21.5 -20l-64 -38l-40 -23q9 52 25.5 142t17.5 98q6 31 4.5 48.5t-9 24t-21 7t-32.5 -3.5q-65 -14 -104 -35q-8 -4 -9.5 -14t3.5 -16q2 -2 14.5 -7.5t19 -16t2.5 -30.5l-56 -318q-2 -16 -30.5 -41t-30.5 -29l-3 -15q-1 -10 10 -10h198q10 0 12 10l1 6q2 8 -17.5 33.5
t-16.5 44.5q0 3 15 83l17 10l41 -120q24 -70 80 -70q37 0 68 19.5t37 38.5zM1009 141q1 4 -1.5 6t-5.5 1q-12 -3 -23 4.5t-19.5 25t-13.5 31t-11.5 36.5t-7.5 26q-16 46 -73 44q15 8 68 39q19 11 36.5 20.5t26 13.5t15 8t9 7.5t3.5 8.5l2 7q1 4 -2 7.5t-7 3.5h-99
q-12 0 -14 -10q-1 -2 -1.5 -4t-1.5 -7.5t1 -6.5q8 -9 9.5 -13.5t-3 -10.5t-18.5 -15l-64 -38l-40 -23q18 103 42 240q11 58 -1.5 70.5t-56.5 5.5q-67 -15 -103 -35q-8 -4 -9.5 -14t3.5 -16q2 -2 14.5 -7.5t19 -16t3.5 -30.5l-56 -318q-2 -16 -31 -41t-31 -29l-3 -15
q-1 -10 10 -10h197q12 0 14 10l1 6q1 8 -18 33.5t-16 44.5l1 10q2 10 6 31.5t7 41.5l18 10l40 -120q24 -70 80 -70q36 0 67 19.5t37 38.5z" />
    <glyph glyph-name="exclamdown" unicode="&#xa1;" horiz-adv-x="1113" 
d="M174 705h1012l-124 -705h-1012zM573 141q0 9 -8 7q-12 -3 -23 4.5t-19.5 25t-13.5 31t-11.5 36.5t-7.5 26q-16 46 -72 44q15 8 39 22t29 17q19 11 36.5 20.5t26 13.5t15 8t9 7.5t3.5 8.5l1 7q1 4 -1.5 7.5t-7.5 3.5h-99q-5 0 -9.5 -3t-4.5 -7l-1 -18q10 -11 8.5 -19
t-21.5 -20l-64 -38l-40 -23q9 52 25.5 142t17.5 98q6 31 4.5 48.5t-9 24t-21 7t-32.5 -3.5q-65 -14 -104 -35q-8 -4 -9.5 -14t3.5 -16q2 -2 14.5 -7.5t19 -16t2.5 -30.5l-56 -318q-2 -16 -30.5 -41t-30.5 -29l-3 -15q-1 -10 10 -10h198q10 0 12 10l1 6q2 8 -17.5 33.5
t-16.5 44.5q0 3 15 83l17 10l41 -120q24 -70 80 -70q37 0 68 19.5t37 38.5zM1029 141q1 4 -1.5 6t-5.5 1q-12 -3 -23 4.5t-19.5 25t-13.5 31t-11.5 36.5t-7.5 26q-16 46 -73 44q15 8 68 39q19 11 36.5 20.5t26 13.5t15 8t9 7.5t3.5 8.5l2 7q1 4 -2 7.5t-7 3.5h-99
q-12 0 -14 -10q-1 -2 -1.5 -4t-1.5 -7.5t1 -6.5q8 -9 9.5 -13.5t-3 -10.5t-18.5 -15l-64 -38l-40 -23q18 103 42 240q11 58 -1.5 70.5t-56.5 5.5q-67 -15 -103 -35q-8 -4 -9.5 -14t3.5 -16q2 -2 14.5 -7.5t19 -16t3.5 -30.5l-56 -318q-2 -16 -31 -41t-31 -29l-3 -15
q-1 -10 10 -10h197q12 0 14 10l1 6q1 8 -18 33.5t-16 44.5l1 10q2 10 6 31.5t7 41.5l18 10l40 -120q24 -70 80 -70q36 0 67 19.5t37 38.5z" />
    <glyph glyph-name="cent" unicode="&#xa2;" 
d="M169 705h1012l-124 -705h-1012zM568 141q0 9 -8 7q-12 -3 -23 4.5t-19.5 25t-13.5 31t-11.5 36.5t-7.5 26q-16 46 -72 44q15 8 39 22t29 17q19 11 36.5 20.5t26 13.5t15 8t9 7.5t3.5 8.5l1 7q1 4 -1.5 7.5t-7.5 3.5h-99q-5 0 -9.5 -3t-4.5 -7l-1 -18q10 -11 8.5 -19
t-21.5 -20l-64 -38l-40 -23q9 52 25.5 142t17.5 98q6 31 4.5 48.5t-9 24t-21 7t-32.5 -3.5q-65 -14 -104 -35q-8 -4 -9.5 -14t3.5 -16q2 -2 14.5 -7.5t19 -16t2.5 -30.5l-56 -318q-2 -16 -30.5 -41t-30.5 -29l-3 -15q-1 -10 10 -10h198q10 0 12 10l1 6q2 8 -17.5 33.5
t-16.5 44.5q0 3 15 83l17 10l41 -120q24 -70 80 -70q37 0 68 19.5t37 38.5zM1024 141q1 4 -1.5 6t-5.5 1q-12 -3 -23 4.5t-19.5 25t-13.5 31t-11.5 36.5t-7.5 26q-16 46 -73 44q15 8 68 39q19 11 36.5 20.5t26 13.5t15 8t9 7.5t3.5 8.5l2 7q1 4 -2 7.5t-7 3.5h-99
q-12 0 -14 -10q-1 -2 -1.5 -4t-1.5 -7.5t1 -6.5q8 -9 9.5 -13.5t-3 -10.5t-18.5 -15l-64 -38l-40 -23q18 103 42 240q11 58 -1.5 70.5t-56.5 5.5q-67 -15 -103 -35q-8 -4 -9.5 -14t3.5 -16q2 -2 14.5 -7.5t19 -16t3.5 -30.5l-56 -318q-2 -16 -31 -41t-31 -29l-3 -15
q-1 -10 10 -10h197q12 0 14 10l1 6q1 8 -18 33.5t-16 44.5l2 10q1 10 5 31.5t7 41.5l18 10l40 -120q24 -70 80 -70q36 0 67 19.5t37 38.5z" />
    <glyph glyph-name="sterling" unicode="&#xa3;" 
d="M169 705h1012l-124 -705h-1012zM568 141q0 9 -8 7q-12 -3 -23 4.5t-19.5 25t-13.5 31t-11.5 36.5t-7.5 26q-16 46 -72 44q15 8 39 22t29 17q19 11 36.5 20.5t26 13.5t15 8t9 7.5t3.5 8.5l1 7q1 4 -1.5 7.5t-7.5 3.5h-99q-5 0 -9.5 -3t-4.5 -7l-1 -18q10 -11 8.5 -19
t-21.5 -20l-64 -38l-40 -23q9 52 25.5 142t17.5 98q6 31 4.5 48.5t-9 24t-21 7t-32.5 -3.5q-65 -14 -104 -35q-8 -4 -9.5 -14t3.5 -16q2 -2 14.5 -7.5t19 -16t2.5 -30.5l-56 -318q-2 -16 -30.5 -41t-30.5 -29l-3 -15q-1 -10 10 -10h198q10 0 12 10l1 6q2 8 -17.5 33.5
t-16.5 44.5q0 3 15 83l17 10l41 -120q24 -70 80 -70q37 0 68 19.5t37 38.5zM1024 141q1 4 -1.5 6t-5.5 1q-12 -3 -23 4.5t-19.5 25t-13.5 31t-11.5 36.5t-7.5 26q-16 46 -73 44q15 8 68 39q19 11 36.5 20.5t26 13.5t15 8t9 7.5t3.5 8.5l2 7q1 4 -2 7.5t-7 3.5h-99
q-12 0 -14 -10q-1 -2 -1.5 -4t-1.5 -7.5t1 -6.5q8 -9 9.5 -13.5t-3 -10.5t-18.5 -15l-64 -38l-40 -23q18 103 42 240q11 58 -1.5 70.5t-56.5 5.5q-67 -15 -103 -35q-8 -4 -9.5 -14t3.5 -16q2 -2 14.5 -7.5t19 -16t3.5 -30.5l-56 -318q-2 -16 -31 -41t-31 -29l-3 -15
q-1 -10 10 -10h197q12 0 14 10l1 6q1 8 -18 33.5t-16 44.5l2 10q1 10 5 31.5t7 41.5l18 10l40 -120q24 -70 80 -70q36 0 67 19.5t37 38.5z" />
    <glyph glyph-name="yen" unicode="&#xa5;" 
d="M169 705h1012l-124 -705h-1012zM568 141q0 9 -8 7q-12 -3 -23 4.5t-19.5 25t-13.5 31t-11.5 36.5t-7.5 26q-16 46 -72 44q15 8 39 22t29 17q19 11 36.5 20.5t26 13.5t15 8t9 7.5t3.5 8.5l1 7q1 4 -1.5 7.5t-7.5 3.5h-99q-5 0 -9.5 -3t-4.5 -7l-1 -18q10 -11 8.5 -19
t-21.5 -20l-64 -38l-40 -23q9 52 25.5 142t17.5 98q6 31 4.5 48.5t-9 24t-21 7t-32.5 -3.5q-65 -14 -104 -35q-8 -4 -9.5 -14t3.5 -16q2 -2 14.5 -7.5t19 -16t2.5 -30.5l-56 -318q-2 -16 -30.5 -41t-30.5 -29l-3 -15q-1 -10 10 -10h198q10 0 12 10l1 6q2 8 -17.5 33.5
t-16.5 44.5q0 3 15 83l17 10l41 -120q24 -70 80 -70q37 0 68 19.5t37 38.5zM1024 141q1 4 -1.5 6t-5.5 1q-12 -3 -23 4.5t-19.5 25t-13.5 31t-11.5 36.5t-7.5 26q-16 46 -73 44q15 8 68 39q19 11 36.5 20.5t26 13.5t15 8t9 7.5t3.5 8.5l2 7q1 4 -2 7.5t-7 3.5h-99
q-12 0 -14 -10q-1 -2 -1.5 -4t-1.5 -7.5t1 -6.5q8 -9 9.5 -13.5t-3 -10.5t-18.5 -15l-64 -38l-40 -23q18 103 42 240q11 58 -1.5 70.5t-56.5 5.5q-67 -15 -103 -35q-8 -4 -9.5 -14t3.5 -16q2 -2 14.5 -7.5t19 -16t3.5 -30.5l-56 -318q-2 -16 -31 -41t-31 -29l-3 -15
q-1 -10 10 -10h197q12 0 14 10l1 6q1 8 -18 33.5t-16 44.5l2 10q1 10 5 31.5t7 41.5l18 10l40 -120q24 -70 80 -70q36 0 67 19.5t37 38.5z" />
    <glyph glyph-name="section" unicode="&#xa7;" 
d="M169 705h1012l-124 -705h-1012zM568 141q0 9 -8 7q-12 -3 -23 4.5t-19.5 25t-13.5 31t-11.5 36.5t-7.5 26q-16 46 -72 44q15 8 39 22t29 17q19 11 36.5 20.5t26 13.5t15 8t9 7.5t3.5 8.5l1 7q1 4 -1.5 7.5t-7.5 3.5h-99q-5 0 -9.5 -3t-4.5 -7l-1 -18q10 -11 8.5 -19
t-21.5 -20l-64 -38l-40 -23q9 52 25.5 142t17.5 98q6 31 4.5 48.5t-9 24t-21 7t-32.5 -3.5q-65 -14 -104 -35q-8 -4 -9.5 -14t3.5 -16q2 -2 14.5 -7.5t19 -16t2.5 -30.5l-56 -318q-2 -16 -30.5 -41t-30.5 -29l-3 -15q-1 -10 10 -10h198q10 0 12 10l1 6q2 8 -17.5 33.5
t-16.5 44.5q0 3 15 83l17 10l41 -120q24 -70 80 -70q37 0 68 19.5t37 38.5zM1024 141q1 4 -1.5 6t-5.5 1q-12 -3 -23 4.5t-19.5 25t-13.5 31t-11.5 36.5t-7.5 26q-16 46 -73 44q15 8 68 39q19 11 36.5 20.5t26 13.5t15 8t9 7.5t3.5 8.5l2 7q1 4 -2 7.5t-7 3.5h-99
q-12 0 -14 -10q-1 -2 -1.5 -4t-1.5 -7.5t1 -6.5q8 -9 9.5 -13.5t-3 -10.5t-18.5 -15l-64 -38l-40 -23q18 103 42 240q11 58 -1.5 70.5t-56.5 5.5q-67 -15 -103 -35q-8 -4 -9.5 -14t3.5 -16q2 -2 14.5 -7.5t19 -16t3.5 -30.5l-56 -318q-2 -16 -31 -41t-31 -29l-3 -15
q-1 -10 10 -10h197q12 0 14 10l1 6q1 8 -18 33.5t-16 44.5l2 10q1 10 5 31.5t7 41.5l18 10l40 -120q24 -70 80 -70q36 0 67 19.5t37 38.5z" />
    <glyph glyph-name="copyright" unicode="&#xa9;" horiz-adv-x="1113" 
d="M174 705h1012l-124 -705h-1012zM573 141q0 9 -8 7q-12 -3 -23 4.5t-19.5 25t-13.5 31t-11.5 36.5t-7.5 26q-16 46 -72 44q15 8 39 22t29 17q19 11 36.5 20.5t26 13.5t15 8t9 7.5t3.5 8.5l1 7q1 4 -1.5 7.5t-7.5 3.5h-99q-5 0 -9.5 -3t-4.5 -7l-1 -18q10 -11 8.5 -19
t-21.5 -20l-64 -38l-40 -23q9 52 25.5 142t17.5 98q6 31 4.5 48.5t-9 24t-21 7t-32.5 -3.5q-65 -14 -104 -35q-8 -4 -9.5 -14t3.5 -16q2 -2 14.5 -7.5t19 -16t2.5 -30.5l-56 -318q-2 -16 -30.5 -41t-30.5 -29l-3 -15q-1 -10 10 -10h198q10 0 12 10l1 6q2 8 -17.5 33.5
t-16.5 44.5q0 3 15 83l17 10l41 -120q24 -70 80 -70q37 0 68 19.5t37 38.5zM1029 141q1 4 -1.5 6t-5.5 1q-12 -3 -23 4.5t-19.5 25t-13.5 31t-11.5 36.5t-7.5 26q-16 46 -73 44q15 8 68 39q19 11 36.5 20.5t26 13.5t15 8t9 7.5t3.5 8.5l2 7q1 4 -2 7.5t-7 3.5h-99
q-12 0 -14 -10q-1 -2 -1.5 -4t-1.5 -7.5t1 -6.5q8 -9 9.5 -13.5t-3 -10.5t-18.5 -15l-64 -38l-40 -23q18 103 42 240q11 58 -1.5 70.5t-56.5 5.5q-67 -15 -103 -35q-8 -4 -9.5 -14t3.5 -16q2 -2 14.5 -7.5t19 -16t3.5 -30.5l-56 -318q-2 -16 -31 -41t-31 -29l-3 -15
q-1 -10 10 -10h197q12 0 14 10l1 6q1 8 -18 33.5t-16 44.5l1 10q2 10 6 31.5t7 41.5l18 10l40 -120q24 -70 80 -70q36 0 67 19.5t37 38.5z" />
    <glyph glyph-name="guillemotleft" unicode="&#xab;" horiz-adv-x="1113" 
d="M174 705h1012l-124 -705h-1012zM573 141q0 9 -8 7q-12 -3 -23 4.5t-19.5 25t-13.5 31t-11.5 36.5t-7.5 26q-16 46 -72 44q15 8 39 22t29 17q19 11 36.5 20.5t26 13.5t15 8t9 7.5t3.5 8.5l1 7q1 4 -1.5 7.5t-7.5 3.5h-99q-5 0 -9.5 -3t-4.5 -7l-1 -18q10 -11 8.5 -19
t-21.5 -20l-64 -38l-40 -23q9 52 25.5 142t17.5 98q6 31 4.5 48.5t-9 24t-21 7t-32.5 -3.5q-65 -14 -104 -35q-8 -4 -9.5 -14t3.5 -16q2 -2 14.5 -7.5t19 -16t2.5 -30.5l-56 -318q-2 -16 -30.5 -41t-30.5 -29l-3 -15q-1 -10 10 -10h198q10 0 12 10l1 6q2 8 -17.5 33.5
t-16.5 44.5q0 3 15 83l17 10l41 -120q24 -70 80 -70q37 0 68 19.5t37 38.5zM1029 141q1 4 -1.5 6t-5.5 1q-12 -3 -23 4.5t-19.5 25t-13.5 31t-11.5 36.5t-7.5 26q-16 46 -73 44q15 8 68 39q19 11 36.5 20.5t26 13.5t15 8t9 7.5t3.5 8.5l2 7q1 4 -2 7.5t-7 3.5h-99
q-12 0 -14 -10q-1 -2 -1.5 -4t-1.5 -7.5t1 -6.5q8 -9 9.5 -13.5t-3 -10.5t-18.5 -15l-64 -38l-40 -23q18 103 42 240q11 58 -1.5 70.5t-56.5 5.5q-67 -15 -103 -35q-8 -4 -9.5 -14t3.5 -16q2 -2 14.5 -7.5t19 -16t3.5 -30.5l-56 -318q-2 -16 -31 -41t-31 -29l-3 -15
q-1 -10 10 -10h197q12 0 14 10l1 6q1 8 -18 33.5t-16 44.5l1 10q2 10 6 31.5t7 41.5l18 10l40 -120q24 -70 80 -70q36 0 67 19.5t37 38.5z" />
    <glyph glyph-name="registered" unicode="&#xae;" horiz-adv-x="1083" 
d="M159 705h1012l-124 -705h-1012zM558 141q0 9 -8 7q-12 -3 -23 4.5t-19.5 25t-13.5 31t-11.5 36.5t-7.5 26q-16 46 -72 44q15 8 39 22t29 17q19 11 36.5 20.5t26 13.5t15 8t9 7.5t3.5 8.5l1 7q1 4 -1.5 7.5t-7.5 3.5h-99q-5 0 -9.5 -3t-4.5 -7l-1 -18q10 -11 8.5 -19
t-21.5 -20l-64 -38l-40 -23q9 52 25.5 142t17.5 98q6 31 4.5 48.5t-9 24t-21 7t-32.5 -3.5q-65 -14 -104 -35q-8 -4 -9.5 -14t3.5 -16q2 -2 14.5 -7.5t19 -16t2.5 -30.5l-56 -318q-2 -16 -30.5 -41t-30.5 -29l-3 -15q-1 -10 10 -10h198q10 0 12 10l1 6q2 8 -17.5 33.5
t-16.5 44.5q0 3 15 83l17 10l41 -120q24 -70 80 -70q37 0 68 19.5t37 38.5zM1014 141q1 4 -1.5 6t-5.5 1q-12 -3 -23 4.5t-19.5 25t-13.5 31t-11.5 36.5t-7.5 26q-16 46 -73 44q15 8 68 39q19 11 36.5 20.5t26 13.5t15 8t9 7.5t3.5 8.5l2 7q1 4 -2 7.5t-7 3.5h-99
q-12 0 -14 -10q-1 -2 -1.5 -4t-1.5 -7.5t1 -6.5q8 -9 9.5 -13.5t-3 -10.5t-18.5 -15l-64 -38l-40 -23q18 103 42 240q11 58 -1.5 70.5t-56.5 5.5q-67 -15 -103 -35q-8 -4 -9.5 -14t3.5 -16q2 -2 14.5 -7.5t19 -16t3.5 -30.5l-56 -318q-2 -16 -31 -41t-31 -29l-3 -15
q-1 -10 10 -10h197q12 0 14 10l1 6q1 8 -18 33.5t-16 44.5l2 10q1 10 5 31.5t7 41.5l18 10l40 -120q24 -70 80 -70q36 0 67 19.5t37 38.5z" />
    <glyph glyph-name="degree" unicode="&#xb0;" 
d="M169 705h1012l-124 -705h-1012zM568 141q0 9 -8 7q-12 -3 -23 4.5t-19.5 25t-13.5 31t-11.5 36.5t-7.5 26q-16 46 -72 44q15 8 39 22t29 17q19 11 36.5 20.5t26 13.5t15 8t9 7.5t3.5 8.5l1 7q1 4 -1.5 7.5t-7.5 3.5h-99q-5 0 -9.5 -3t-4.5 -7l-1 -18q10 -11 8.5 -19
t-21.5 -20l-64 -38l-40 -23q9 52 25.5 142t17.5 98q6 31 4.5 48.5t-9 24t-21 7t-32.5 -3.5q-65 -14 -104 -35q-8 -4 -9.5 -14t3.5 -16q2 -2 14.5 -7.5t19 -16t2.5 -30.5l-56 -318q-2 -16 -30.5 -41t-30.5 -29l-3 -15q-1 -10 10 -10h198q10 0 12 10l1 6q2 8 -17.5 33.5
t-16.5 44.5q0 3 15 83l17 10l41 -120q24 -70 80 -70q37 0 68 19.5t37 38.5zM1024 141q1 4 -1.5 6t-5.5 1q-12 -3 -23 4.5t-19.5 25t-13.5 31t-11.5 36.5t-7.5 26q-16 46 -73 44q15 8 68 39q19 11 36.5 20.5t26 13.5t15 8t9 7.5t3.5 8.5l2 7q1 4 -2 7.5t-7 3.5h-99
q-12 0 -14 -10q-1 -2 -1.5 -4t-1.5 -7.5t1 -6.5q8 -9 9.5 -13.5t-3 -10.5t-18.5 -15l-64 -38l-40 -23q18 103 42 240q11 58 -1.5 70.5t-56.5 5.5q-67 -15 -103 -35q-8 -4 -9.5 -14t3.5 -16q2 -2 14.5 -7.5t19 -16t3.5 -30.5l-56 -318q-2 -16 -31 -41t-31 -29l-3 -15
q-1 -10 10 -10h197q12 0 14 10l1 6q1 8 -18 33.5t-16 44.5l2 10q1 10 5 31.5t7 41.5l18 10l40 -120q24 -70 80 -70q36 0 67 19.5t37 38.5z" />
    <glyph glyph-name="twosuperior" unicode="&#xb2;" horiz-adv-x="1053" 
d="M144 705h1012l-124 -705h-1012zM543 141q0 9 -8 7q-12 -3 -23 4.5t-19.5 25t-13.5 31t-11.5 36.5t-7.5 26q-16 46 -72 44q15 8 39 22t29 17q19 11 36.5 20.5t26 13.5t15 8t9 7.5t3.5 8.5l1 7q1 4 -1.5 7.5t-7.5 3.5h-99q-5 0 -9.5 -3t-4.5 -7l-1 -18q10 -11 8.5 -19
t-21.5 -20l-64 -38l-40 -23q9 52 25.5 142t17.5 98q6 31 4.5 48.5t-9 24t-21 7t-32.5 -3.5q-65 -14 -104 -35q-8 -4 -9.5 -14t3.5 -16q2 -2 14.5 -7.5t19 -16t2.5 -30.5l-56 -318q-2 -16 -30.5 -41t-30.5 -29l-3 -15q-1 -10 10 -10h198q10 0 12 10l1 6q2 8 -17.5 33.5
t-16.5 44.5q0 3 15 83l17 10l41 -120q24 -70 80 -70q37 0 68 19.5t37 38.5zM999 141q1 4 -1.5 6t-5.5 1q-12 -3 -23 4.5t-19.5 25t-13.5 31t-11.5 36.5t-7.5 26q-16 46 -73 44q15 8 68 39q19 11 36.5 20.5t26 13.5t15 8t9 7.5t3.5 8.5l2 7q1 4 -2 7.5t-7 3.5h-99
q-12 0 -14 -10q-1 -2 -1.5 -4t-1.5 -7.5t1 -6.5q8 -9 9.5 -13.5t-3 -10.5t-18.5 -15l-64 -38l-40 -23q18 103 42 240q11 58 -1.5 70.5t-56.5 5.5q-67 -15 -103 -35q-8 -4 -9.5 -14t3.5 -16q2 -2 14.5 -7.5t19 -16t3.5 -30.5l-56 -318q-2 -16 -31 -41t-31 -29l-3 -15
q-1 -10 10 -10h197q12 0 14 10l1 6q1 8 -18 33.5t-16 44.5l1 10q2 10 6 31.5t7 41.5l18 10l40 -120q24 -70 80 -70q36 0 67 19.5t37 38.5z" />
    <glyph glyph-name="threesuperior" unicode="&#xb3;" horiz-adv-x="1053" 
d="M144 705h1012l-124 -705h-1012zM543 141q0 9 -8 7q-12 -3 -23 4.5t-19.5 25t-13.5 31t-11.5 36.5t-7.5 26q-16 46 -72 44q15 8 39 22t29 17q19 11 36.5 20.5t26 13.5t15 8t9 7.5t3.5 8.5l1 7q1 4 -1.5 7.5t-7.5 3.5h-99q-5 0 -9.5 -3t-4.5 -7l-1 -18q10 -11 8.5 -19
t-21.5 -20l-64 -38l-40 -23q9 52 25.5 142t17.5 98q6 31 4.5 48.5t-9 24t-21 7t-32.5 -3.5q-65 -14 -104 -35q-8 -4 -9.5 -14t3.5 -16q2 -2 14.5 -7.5t19 -16t2.5 -30.5l-56 -318q-2 -16 -30.5 -41t-30.5 -29l-3 -15q-1 -10 10 -10h198q10 0 12 10l1 6q2 8 -17.5 33.5
t-16.5 44.5q0 3 15 83l17 10l41 -120q24 -70 80 -70q37 0 68 19.5t37 38.5zM999 141q1 4 -1.5 6t-5.5 1q-12 -3 -23 4.5t-19.5 25t-13.5 31t-11.5 36.5t-7.5 26q-16 46 -73 44q15 8 68 39q19 11 36.5 20.5t26 13.5t15 8t9 7.5t3.5 8.5l2 7q1 4 -2 7.5t-7 3.5h-99
q-12 0 -14 -10q-1 -2 -1.5 -4t-1.5 -7.5t1 -6.5q8 -9 9.5 -13.5t-3 -10.5t-18.5 -15l-64 -38l-40 -23q18 103 42 240q11 58 -1.5 70.5t-56.5 5.5q-67 -15 -103 -35q-8 -4 -9.5 -14t3.5 -16q2 -2 14.5 -7.5t19 -16t3.5 -30.5l-56 -318q-2 -16 -31 -41t-31 -29l-3 -15
q-1 -10 10 -10h197q12 0 14 10l1 6q1 8 -18 33.5t-16 44.5l1 10q2 10 6 31.5t7 41.5l18 10l40 -120q24 -70 80 -70q36 0 67 19.5t37 38.5z" />
    <glyph glyph-name="periodcentered" unicode="&#xb7;" horiz-adv-x="1113" 
d="M174 705h1012l-124 -705h-1012zM573 141q0 9 -8 7q-12 -3 -23 4.5t-19.5 25t-13.5 31t-11.5 36.5t-7.5 26q-16 46 -72 44q15 8 39 22t29 17q19 11 36.5 20.5t26 13.5t15 8t9 7.5t3.5 8.5l1 7q1 4 -1.5 7.5t-7.5 3.5h-99q-5 0 -9.5 -3t-4.5 -7l-1 -18q10 -11 8.5 -19
t-21.5 -20l-64 -38l-40 -23q9 52 25.5 142t17.5 98q6 31 4.5 48.5t-9 24t-21 7t-32.5 -3.5q-65 -14 -104 -35q-8 -4 -9.5 -14t3.5 -16q2 -2 14.5 -7.5t19 -16t2.5 -30.5l-56 -318q-2 -16 -30.5 -41t-30.5 -29l-3 -15q-1 -10 10 -10h198q10 0 12 10l1 6q2 8 -17.5 33.5
t-16.5 44.5q0 3 15 83l17 10l41 -120q24 -70 80 -70q37 0 68 19.5t37 38.5zM1029 141q1 4 -1.5 6t-5.5 1q-12 -3 -23 4.5t-19.5 25t-13.5 31t-11.5 36.5t-7.5 26q-16 46 -73 44q15 8 68 39q19 11 36.5 20.5t26 13.5t15 8t9 7.5t3.5 8.5l2 7q1 4 -2 7.5t-7 3.5h-99
q-12 0 -14 -10q-1 -2 -1.5 -4t-1.5 -7.5t1 -6.5q8 -9 9.5 -13.5t-3 -10.5t-18.5 -15l-64 -38l-40 -23q18 103 42 240q11 58 -1.5 70.5t-56.5 5.5q-67 -15 -103 -35q-8 -4 -9.5 -14t3.5 -16q2 -2 14.5 -7.5t19 -16t3.5 -30.5l-56 -318q-2 -16 -31 -41t-31 -29l-3 -15
q-1 -10 10 -10h197q12 0 14 10l1 6q1 8 -18 33.5t-16 44.5l1 10q2 10 6 31.5t7 41.5l18 10l40 -120q24 -70 80 -70q36 0 67 19.5t37 38.5z" />
    <glyph glyph-name="onesuperior" unicode="&#xb9;" horiz-adv-x="1053" 
d="M144 705h1012l-124 -705h-1012zM543 141q0 9 -8 7q-12 -3 -23 4.5t-19.5 25t-13.5 31t-11.5 36.5t-7.5 26q-16 46 -72 44q15 8 39 22t29 17q19 11 36.5 20.5t26 13.5t15 8t9 7.5t3.5 8.5l1 7q1 4 -1.5 7.5t-7.5 3.5h-99q-5 0 -9.5 -3t-4.5 -7l-1 -18q10 -11 8.5 -19
t-21.5 -20l-64 -38l-40 -23q9 52 25.5 142t17.5 98q6 31 4.5 48.5t-9 24t-21 7t-32.5 -3.5q-65 -14 -104 -35q-8 -4 -9.5 -14t3.5 -16q2 -2 14.5 -7.5t19 -16t2.5 -30.5l-56 -318q-2 -16 -30.5 -41t-30.5 -29l-3 -15q-1 -10 10 -10h198q10 0 12 10l1 6q2 8 -17.5 33.5
t-16.5 44.5q0 3 15 83l17 10l41 -120q24 -70 80 -70q37 0 68 19.5t37 38.5zM999 141q1 4 -1.5 6t-5.5 1q-12 -3 -23 4.5t-19.5 25t-13.5 31t-11.5 36.5t-7.5 26q-16 46 -73 44q15 8 68 39q19 11 36.5 20.5t26 13.5t15 8t9 7.5t3.5 8.5l2 7q1 4 -2 7.5t-7 3.5h-99
q-12 0 -14 -10q-1 -2 -1.5 -4t-1.5 -7.5t1 -6.5q8 -9 9.5 -13.5t-3 -10.5t-18.5 -15l-64 -38l-40 -23q18 103 42 240q11 58 -1.5 70.5t-56.5 5.5q-67 -15 -103 -35q-8 -4 -9.5 -14t3.5 -16q2 -2 14.5 -7.5t19 -16t3.5 -30.5l-56 -318q-2 -16 -31 -41t-31 -29l-3 -15
q-1 -10 10 -10h197q12 0 14 10l1 6q1 8 -18 33.5t-16 44.5l1 10q2 10 6 31.5t7 41.5l18 10l40 -120q24 -70 80 -70q36 0 67 19.5t37 38.5z" />
    <glyph glyph-name="guillemotright" unicode="&#xbb;" horiz-adv-x="1113" 
d="M174 705h1012l-124 -705h-1012zM573 141q0 9 -8 7q-12 -3 -23 4.5t-19.5 25t-13.5 31t-11.5 36.5t-7.5 26q-16 46 -72 44q15 8 39 22t29 17q19 11 36.5 20.5t26 13.5t15 8t9 7.5t3.5 8.5l1 7q1 4 -1.5 7.5t-7.5 3.5h-99q-5 0 -9.5 -3t-4.5 -7l-1 -18q10 -11 8.5 -19
t-21.5 -20l-64 -38l-40 -23q9 52 25.5 142t17.5 98q6 31 4.5 48.5t-9 24t-21 7t-32.5 -3.5q-65 -14 -104 -35q-8 -4 -9.5 -14t3.5 -16q2 -2 14.5 -7.5t19 -16t2.5 -30.5l-56 -318q-2 -16 -30.5 -41t-30.5 -29l-3 -15q-1 -10 10 -10h198q10 0 12 10l1 6q2 8 -17.5 33.5
t-16.5 44.5q0 3 15 83l17 10l41 -120q24 -70 80 -70q37 0 68 19.5t37 38.5zM1029 141q1 4 -1.5 6t-5.5 1q-12 -3 -23 4.5t-19.5 25t-13.5 31t-11.5 36.5t-7.5 26q-16 46 -73 44q15 8 68 39q19 11 36.5 20.5t26 13.5t15 8t9 7.5t3.5 8.5l2 7q1 4 -2 7.5t-7 3.5h-99
q-12 0 -14 -10q-1 -2 -1.5 -4t-1.5 -7.5t1 -6.5q8 -9 9.5 -13.5t-3 -10.5t-18.5 -15l-64 -38l-40 -23q18 103 42 240q11 58 -1.5 70.5t-56.5 5.5q-67 -15 -103 -35q-8 -4 -9.5 -14t3.5 -16q2 -2 14.5 -7.5t19 -16t3.5 -30.5l-56 -318q-2 -16 -31 -41t-31 -29l-3 -15
q-1 -10 10 -10h197q12 0 14 10l1 6q1 8 -18 33.5t-16 44.5l1 10q2 10 6 31.5t7 41.5l18 10l40 -120q24 -70 80 -70q36 0 67 19.5t37 38.5z" />
    <glyph glyph-name="questiondown" unicode="&#xbf;" horiz-adv-x="1128" 
d="M174 705h1012l-124 -705h-1012zM573 141q0 9 -8 7q-12 -3 -23 4.5t-19.5 25t-13.5 31t-11.5 36.5t-7.5 26q-16 46 -72 44q15 8 39 22t29 17q19 11 36.5 20.5t26 13.5t15 8t9 7.5t3.5 8.5l1 7q1 4 -1.5 7.5t-7.5 3.5h-99q-5 0 -9.5 -3t-4.5 -7l-1 -18q10 -11 8.5 -19
t-21.5 -20l-64 -38l-40 -23q9 52 25.5 142t17.5 98q6 31 4.5 48.5t-9 24t-21 7t-32.5 -3.5q-65 -14 -104 -35q-8 -4 -9.5 -14t3.5 -16q2 -2 14.5 -7.5t19 -16t2.5 -30.5l-56 -318q-2 -16 -30.5 -41t-30.5 -29l-3 -15q-1 -10 10 -10h198q10 0 12 10l1 6q2 8 -17.5 33.5
t-16.5 44.5q0 3 15 83l17 10l41 -120q24 -70 80 -70q37 0 68 19.5t37 38.5zM1029 141q1 4 -1.5 6t-5.5 1q-12 -3 -23 4.5t-19.5 25t-13.5 31t-11.5 36.5t-7.5 26q-16 46 -73 44q15 8 68 39q19 11 36.5 20.5t26 13.5t15 8t9 7.5t3.5 8.5l2 7q1 4 -2 7.5t-7 3.5h-99
q-12 0 -14 -10q-1 -2 -1.5 -4t-1.5 -7.5t1 -6.5q8 -9 9.5 -13.5t-3 -10.5t-18.5 -15l-64 -38l-40 -23q18 103 42 240q11 58 -1.5 70.5t-56.5 5.5q-67 -15 -103 -35q-8 -4 -9.5 -14t3.5 -16q2 -2 14.5 -7.5t19 -16t3.5 -30.5l-56 -318q-2 -16 -31 -41t-31 -29l-3 -15
q-1 -10 10 -10h197q12 0 14 10l1 6q1 8 -18 33.5t-16 44.5l1 10q2 10 6 31.5t7 41.5l18 10l40 -120q24 -70 80 -70q36 0 67 19.5t37 38.5z" />
    <glyph glyph-name="Agrave" unicode="&#xc0;" horiz-adv-x="1063" 
d="M149 705h1012l-124 -705h-1012zM548 141q0 9 -8 7q-12 -3 -23 4.5t-19.5 25t-13.5 31t-11.5 36.5t-7.5 26q-16 46 -72 44q15 8 39 22t29 17q19 11 36.5 20.5t26 13.5t15 8t9 7.5t3.5 8.5l1 7q1 4 -1.5 7.5t-7.5 3.5h-99q-5 0 -9.5 -3t-4.5 -7l-1 -18q10 -11 8.5 -19
t-21.5 -20l-64 -38l-40 -23q9 52 25.5 142t17.5 98q6 31 4.5 48.5t-9 24t-21 7t-32.5 -3.5q-65 -14 -104 -35q-8 -4 -9.5 -14t3.5 -16q2 -2 14.5 -7.5t19 -16t2.5 -30.5l-56 -318q-2 -16 -30.5 -41t-30.5 -29l-3 -15q-1 -10 10 -10h198q10 0 12 10l1 6q2 8 -17.5 33.5
t-16.5 44.5q0 3 15 83l17 10l41 -120q24 -70 80 -70q37 0 68 19.5t37 38.5zM1004 141q1 4 -1.5 6t-5.5 1q-12 -3 -23 4.5t-19.5 25t-13.5 31t-11.5 36.5t-7.5 26q-16 46 -73 44q15 8 68 39q19 11 36.5 20.5t26 13.5t15 8t9 7.5t3.5 8.5l2 7q1 4 -2 7.5t-7 3.5h-99
q-12 0 -14 -10q-1 -2 -1.5 -4t-1.5 -7.5t1 -6.5q8 -9 9.5 -13.5t-3 -10.5t-18.5 -15l-64 -38l-40 -23q18 103 42 240q11 58 -1.5 70.5t-56.5 5.5q-67 -15 -103 -35q-8 -4 -9.5 -14t3.5 -16q2 -2 14.5 -7.5t19 -16t3.5 -30.5l-56 -318q-2 -16 -31 -41t-31 -29l-3 -15
q-1 -10 10 -10h197q12 0 14 10l1 6q1 8 -18 33.5t-16 44.5l2 10q1 10 5 31.5t7 41.5l18 10l40 -120q24 -70 80 -70q36 0 67 19.5t37 38.5z" />
    <glyph glyph-name="Aacute" unicode="&#xc1;" horiz-adv-x="1063" 
d="M149 705h1012l-124 -705h-1012zM548 141q0 9 -8 7q-12 -3 -23 4.5t-19.5 25t-13.5 31t-11.5 36.5t-7.5 26q-16 46 -72 44q15 8 39 22t29 17q19 11 36.5 20.5t26 13.5t15 8t9 7.5t3.5 8.5l1 7q1 4 -1.5 7.5t-7.5 3.5h-99q-5 0 -9.5 -3t-4.5 -7l-1 -18q10 -11 8.5 -19
t-21.5 -20l-64 -38l-40 -23q9 52 25.5 142t17.5 98q6 31 4.5 48.5t-9 24t-21 7t-32.5 -3.5q-65 -14 -104 -35q-8 -4 -9.5 -14t3.5 -16q2 -2 14.5 -7.5t19 -16t2.5 -30.5l-56 -318q-2 -16 -30.5 -41t-30.5 -29l-3 -15q-1 -10 10 -10h198q10 0 12 10l1 6q2 8 -17.5 33.5
t-16.5 44.5q0 3 15 83l17 10l41 -120q24 -70 80 -70q37 0 68 19.5t37 38.5zM1004 141q1 4 -1.5 6t-5.5 1q-12 -3 -23 4.5t-19.5 25t-13.5 31t-11.5 36.5t-7.5 26q-16 46 -73 44q15 8 68 39q19 11 36.5 20.5t26 13.5t15 8t9 7.5t3.5 8.5l2 7q1 4 -2 7.5t-7 3.5h-99
q-12 0 -14 -10q-1 -2 -1.5 -4t-1.5 -7.5t1 -6.5q8 -9 9.5 -13.5t-3 -10.5t-18.5 -15l-64 -38l-40 -23q18 103 42 240q11 58 -1.5 70.5t-56.5 5.5q-67 -15 -103 -35q-8 -4 -9.5 -14t3.5 -16q2 -2 14.5 -7.5t19 -16t3.5 -30.5l-56 -318q-2 -16 -31 -41t-31 -29l-3 -15
q-1 -10 10 -10h197q12 0 14 10l1 6q1 8 -18 33.5t-16 44.5l2 10q1 10 5 31.5t7 41.5l18 10l40 -120q24 -70 80 -70q36 0 67 19.5t37 38.5z" />
    <glyph glyph-name="Acircumflex" unicode="&#xc2;" horiz-adv-x="1063" 
d="M149 705h1012l-124 -705h-1012zM548 141q0 9 -8 7q-12 -3 -23 4.5t-19.5 25t-13.5 31t-11.5 36.5t-7.5 26q-16 46 -72 44q15 8 39 22t29 17q19 11 36.5 20.5t26 13.5t15 8t9 7.5t3.5 8.5l1 7q1 4 -1.5 7.5t-7.5 3.5h-99q-5 0 -9.5 -3t-4.5 -7l-1 -18q10 -11 8.5 -19
t-21.5 -20l-64 -38l-40 -23q9 52 25.5 142t17.5 98q6 31 4.5 48.5t-9 24t-21 7t-32.5 -3.5q-65 -14 -104 -35q-8 -4 -9.5 -14t3.5 -16q2 -2 14.5 -7.5t19 -16t2.5 -30.5l-56 -318q-2 -16 -30.5 -41t-30.5 -29l-3 -15q-1 -10 10 -10h198q10 0 12 10l1 6q2 8 -17.5 33.5
t-16.5 44.5q0 3 15 83l17 10l41 -120q24 -70 80 -70q37 0 68 19.5t37 38.5zM1004 141q1 4 -1.5 6t-5.5 1q-12 -3 -23 4.5t-19.5 25t-13.5 31t-11.5 36.5t-7.5 26q-16 46 -73 44q15 8 68 39q19 11 36.5 20.5t26 13.5t15 8t9 7.5t3.5 8.5l2 7q1 4 -2 7.5t-7 3.5h-99
q-12 0 -14 -10q-1 -2 -1.5 -4t-1.5 -7.5t1 -6.5q8 -9 9.5 -13.5t-3 -10.5t-18.5 -15l-64 -38l-40 -23q18 103 42 240q11 58 -1.5 70.5t-56.5 5.5q-67 -15 -103 -35q-8 -4 -9.5 -14t3.5 -16q2 -2 14.5 -7.5t19 -16t3.5 -30.5l-56 -318q-2 -16 -31 -41t-31 -29l-3 -15
q-1 -10 10 -10h197q12 0 14 10l1 6q1 8 -18 33.5t-16 44.5l2 10q1 10 5 31.5t7 41.5l18 10l40 -120q24 -70 80 -70q36 0 67 19.5t37 38.5z" />
    <glyph glyph-name="Atilde" unicode="&#xc3;" horiz-adv-x="1063" 
d="M149 705h1012l-124 -705h-1012zM548 141q0 9 -8 7q-12 -3 -23 4.5t-19.5 25t-13.5 31t-11.5 36.5t-7.5 26q-16 46 -72 44q15 8 39 22t29 17q19 11 36.5 20.5t26 13.5t15 8t9 7.5t3.5 8.5l1 7q1 4 -1.5 7.5t-7.5 3.5h-99q-5 0 -9.5 -3t-4.5 -7l-1 -18q10 -11 8.5 -19
t-21.5 -20l-64 -38l-40 -23q9 52 25.5 142t17.5 98q6 31 4.5 48.5t-9 24t-21 7t-32.5 -3.5q-65 -14 -104 -35q-8 -4 -9.5 -14t3.5 -16q2 -2 14.5 -7.5t19 -16t2.5 -30.5l-56 -318q-2 -16 -30.5 -41t-30.5 -29l-3 -15q-1 -10 10 -10h198q10 0 12 10l1 6q2 8 -17.5 33.5
t-16.5 44.5q0 3 15 83l17 10l41 -120q24 -70 80 -70q37 0 68 19.5t37 38.5zM1004 141q1 4 -1.5 6t-5.5 1q-12 -3 -23 4.5t-19.5 25t-13.5 31t-11.5 36.5t-7.5 26q-16 46 -73 44q15 8 68 39q19 11 36.5 20.5t26 13.5t15 8t9 7.5t3.5 8.5l2 7q1 4 -2 7.5t-7 3.5h-99
q-12 0 -14 -10q-1 -2 -1.5 -4t-1.5 -7.5t1 -6.5q8 -9 9.5 -13.5t-3 -10.5t-18.5 -15l-64 -38l-40 -23q18 103 42 240q11 58 -1.5 70.5t-56.5 5.5q-67 -15 -103 -35q-8 -4 -9.5 -14t3.5 -16q2 -2 14.5 -7.5t19 -16t3.5 -30.5l-56 -318q-2 -16 -31 -41t-31 -29l-3 -15
q-1 -10 10 -10h197q12 0 14 10l1 6q1 8 -18 33.5t-16 44.5l2 10q1 10 5 31.5t7 41.5l18 10l40 -120q24 -70 80 -70q36 0 67 19.5t37 38.5z" />
    <glyph glyph-name="Adieresis" unicode="&#xc4;" horiz-adv-x="1063" 
d="M149 705h1012l-124 -705h-1012zM548 141q0 9 -8 7q-12 -3 -23 4.5t-19.5 25t-13.5 31t-11.5 36.5t-7.5 26q-16 46 -72 44q15 8 39 22t29 17q19 11 36.5 20.5t26 13.5t15 8t9 7.5t3.5 8.5l1 7q1 4 -1.5 7.5t-7.5 3.5h-99q-5 0 -9.5 -3t-4.5 -7l-1 -18q10 -11 8.5 -19
t-21.5 -20l-64 -38l-40 -23q9 52 25.5 142t17.5 98q6 31 4.5 48.5t-9 24t-21 7t-32.5 -3.5q-65 -14 -104 -35q-8 -4 -9.5 -14t3.5 -16q2 -2 14.5 -7.5t19 -16t2.5 -30.5l-56 -318q-2 -16 -30.5 -41t-30.5 -29l-3 -15q-1 -10 10 -10h198q10 0 12 10l1 6q2 8 -17.5 33.5
t-16.5 44.5q0 3 15 83l17 10l41 -120q24 -70 80 -70q37 0 68 19.5t37 38.5zM1004 141q1 4 -1.5 6t-5.5 1q-12 -3 -23 4.5t-19.5 25t-13.5 31t-11.5 36.5t-7.5 26q-16 46 -73 44q15 8 68 39q19 11 36.5 20.5t26 13.5t15 8t9 7.5t3.5 8.5l2 7q1 4 -2 7.5t-7 3.5h-99
q-12 0 -14 -10q-1 -2 -1.5 -4t-1.5 -7.5t1 -6.5q8 -9 9.5 -13.5t-3 -10.5t-18.5 -15l-64 -38l-40 -23q18 103 42 240q11 58 -1.5 70.5t-56.5 5.5q-67 -15 -103 -35q-8 -4 -9.5 -14t3.5 -16q2 -2 14.5 -7.5t19 -16t3.5 -30.5l-56 -318q-2 -16 -31 -41t-31 -29l-3 -15
q-1 -10 10 -10h197q12 0 14 10l1 6q1 8 -18 33.5t-16 44.5l2 10q1 10 5 31.5t7 41.5l18 10l40 -120q24 -70 80 -70q36 0 67 19.5t37 38.5z" />
    <glyph glyph-name="Aring" unicode="&#xc5;" horiz-adv-x="1063" 
d="M149 705h1012l-124 -705h-1012zM548 141q0 9 -8 7q-12 -3 -23 4.5t-19.5 25t-13.5 31t-11.5 36.5t-7.5 26q-16 46 -72 44q15 8 39 22t29 17q19 11 36.5 20.5t26 13.5t15 8t9 7.5t3.5 8.5l1 7q1 4 -1.5 7.5t-7.5 3.5h-99q-5 0 -9.5 -3t-4.5 -7l-1 -18q10 -11 8.5 -19
t-21.5 -20l-64 -38l-40 -23q9 52 25.5 142t17.5 98q6 31 4.5 48.5t-9 24t-21 7t-32.5 -3.5q-65 -14 -104 -35q-8 -4 -9.5 -14t3.5 -16q2 -2 14.5 -7.5t19 -16t2.5 -30.5l-56 -318q-2 -16 -30.5 -41t-30.5 -29l-3 -15q-1 -10 10 -10h198q10 0 12 10l1 6q2 8 -17.5 33.5
t-16.5 44.5q0 3 15 83l17 10l41 -120q24 -70 80 -70q37 0 68 19.5t37 38.5zM1004 141q1 4 -1.5 6t-5.5 1q-12 -3 -23 4.5t-19.5 25t-13.5 31t-11.5 36.5t-7.5 26q-16 46 -73 44q15 8 68 39q19 11 36.5 20.5t26 13.5t15 8t9 7.5t3.5 8.5l2 7q1 4 -2 7.5t-7 3.5h-99
q-12 0 -14 -10q-1 -2 -1.5 -4t-1.5 -7.5t1 -6.5q8 -9 9.5 -13.5t-3 -10.5t-18.5 -15l-64 -38l-40 -23q18 103 42 240q11 58 -1.5 70.5t-56.5 5.5q-67 -15 -103 -35q-8 -4 -9.5 -14t3.5 -16q2 -2 14.5 -7.5t19 -16t3.5 -30.5l-56 -318q-2 -16 -31 -41t-31 -29l-3 -15
q-1 -10 10 -10h197q12 0 14 10l1 6q1 8 -18 33.5t-16 44.5l2 10q1 10 5 31.5t7 41.5l18 10l40 -120q24 -70 80 -70q36 0 67 19.5t37 38.5z" />
    <glyph glyph-name="AE" unicode="&#xc6;" horiz-adv-x="1080" 
d="M149 705h1012l-124 -705h-1012zM548 141q0 9 -8 7q-12 -3 -23 4.5t-19.5 25t-13.5 31t-11.5 36.5t-7.5 26q-16 46 -72 44q15 8 39 22t29 17q19 11 36.5 20.5t26 13.5t15 8t9 7.5t3.5 8.5l1 7q1 4 -1.5 7.5t-7.5 3.5h-99q-5 0 -9.5 -3t-4.5 -7l-1 -18q10 -11 8.5 -19
t-21.5 -20l-64 -38l-40 -23q9 52 25.5 142t17.5 98q6 31 4.5 48.5t-9 24t-21 7t-32.5 -3.5q-65 -14 -104 -35q-8 -4 -9.5 -14t3.5 -16q2 -2 14.5 -7.5t19 -16t2.5 -30.5l-56 -318q-2 -16 -30.5 -41t-30.5 -29l-3 -15q-1 -10 10 -10h198q10 0 12 10l1 6q2 8 -17.5 33.5
t-16.5 44.5q0 3 15 83l17 10l41 -120q24 -70 80 -70q37 0 68 19.5t37 38.5zM1004 141q1 4 -1.5 6t-5.5 1q-12 -3 -23 4.5t-19.5 25t-13.5 31t-11.5 36.5t-7.5 26q-16 46 -73 44q15 8 68 39q19 11 36.5 20.5t26 13.5t15 8t9 7.5t3.5 8.5l2 7q1 4 -2 7.5t-7 3.5h-99
q-12 0 -14 -10q-1 -2 -1.5 -4t-1.5 -7.5t1 -6.5q8 -9 9.5 -13.5t-3 -10.5t-18.5 -15l-64 -38l-40 -23q18 103 42 240q11 58 -1.5 70.5t-56.5 5.5q-67 -15 -103 -35q-8 -4 -9.5 -14t3.5 -16q2 -2 14.5 -7.5t19 -16t3.5 -30.5l-56 -318q-2 -16 -31 -41t-31 -29l-3 -15
q-1 -10 10 -10h197q12 0 14 10l1 6q1 8 -18 33.5t-16 44.5l2 10q1 10 5 31.5t7 41.5l18 10l40 -120q24 -70 80 -70q36 0 67 19.5t37 38.5z" />
    <glyph glyph-name="Ccedilla" unicode="&#xc7;" horiz-adv-x="1070" 
d="M159 705h1012l-124 -705h-1012zM558 141q0 9 -8 7q-12 -3 -23 4.5t-19.5 25t-13.5 31t-11.5 36.5t-7.5 26q-16 46 -72 44q15 8 39 22t29 17q19 11 36.5 20.5t26 13.5t15 8t9 7.5t3.5 8.5l1 7q1 4 -1.5 7.5t-7.5 3.5h-99q-5 0 -9.5 -3t-4.5 -7l-1 -18q10 -11 8.5 -19
t-21.5 -20l-64 -38l-40 -23q9 52 25.5 142t17.5 98q6 31 4.5 48.5t-9 24t-21 7t-32.5 -3.5q-65 -14 -104 -35q-8 -4 -9.5 -14t3.5 -16q2 -2 14.5 -7.5t19 -16t2.5 -30.5l-56 -318q-2 -16 -30.5 -41t-30.5 -29l-3 -15q-1 -10 10 -10h198q10 0 12 10l1 6q2 8 -17.5 33.5
t-16.5 44.5q0 3 15 83l17 10l41 -120q24 -70 80 -70q37 0 68 19.5t37 38.5zM1014 141q1 4 -1.5 6t-5.5 1q-12 -3 -23 4.5t-19.5 25t-13.5 31t-11.5 36.5t-7.5 26q-16 46 -73 44q15 8 68 39q19 11 36.5 20.5t26 13.5t15 8t9 7.5t3.5 8.5l2 7q1 4 -2 7.5t-7 3.5h-99
q-12 0 -14 -10q-1 -2 -1.5 -4t-1.5 -7.5t1 -6.5q8 -9 9.5 -13.5t-3 -10.5t-18.5 -15l-64 -38l-40 -23q18 103 42 240q11 58 -1.5 70.5t-56.5 5.5q-67 -15 -103 -35q-8 -4 -9.5 -14t3.5 -16q2 -2 14.5 -7.5t19 -16t3.5 -30.5l-56 -318q-2 -16 -31 -41t-31 -29l-3 -15
q-1 -10 10 -10h197q12 0 14 10l1 6q1 8 -18 33.5t-16 44.5l2 10q1 10 5 31.5t7 41.5l18 10l40 -120q24 -70 80 -70q36 0 67 19.5t37 38.5z" />
    <glyph glyph-name="Egrave" unicode="&#xc8;" horiz-adv-x="1074" 
d="M143 705h1012l-124 -705h-1012zM542 141q0 9 -8 7q-12 -3 -23 4.5t-19.5 25t-13.5 31t-11.5 36.5t-7.5 26q-16 46 -72 44q15 8 39 22t29 17q19 11 36.5 20.5t26 13.5t15 8t9 7.5t3.5 8.5l1 7q1 4 -1.5 7.5t-7.5 3.5h-99q-5 0 -9.5 -3t-4.5 -7l-1 -18q10 -11 8.5 -19
t-21.5 -20l-64 -38l-40 -23q9 52 25.5 142t17.5 98q6 31 4.5 48.5t-9 24t-21 7t-32.5 -3.5q-65 -14 -104 -35q-8 -4 -9.5 -14t3.5 -16q2 -2 14.5 -7.5t19 -16t2.5 -30.5l-56 -318q-2 -16 -30.5 -41t-30.5 -29l-3 -15q-1 -10 10 -10h198q10 0 12 10l1 6q2 8 -17.5 33.5
t-16.5 44.5q0 3 15 83l17 10l41 -120q24 -70 80 -70q37 0 68 19.5t37 38.5zM998 141q1 4 -1.5 6t-5.5 1q-12 -3 -23 4.5t-19.5 25t-13.5 31t-11.5 36.5t-7.5 26q-16 46 -73 44q15 8 68 39q19 11 36.5 20.5t26 13.5t15 8t9 7.5t3.5 8.5l2 7q1 4 -2 7.5t-7 3.5h-99
q-12 0 -14 -10q-1 -2 -1.5 -4t-1.5 -7.5t1 -6.5q8 -9 9.5 -13.5t-3 -10.5t-18.5 -15l-64 -38l-40 -23q18 103 42 240q11 58 -1.5 70.5t-56.5 5.5q-67 -15 -103 -35q-8 -4 -9.5 -14t3.5 -16q2 -2 14.5 -7.5t19 -16t3.5 -30.5l-56 -318q-2 -16 -31 -41t-31 -29l-3 -15
q-1 -10 10 -10h197q12 0 14 10l1 6q1 8 -18 33.5t-16 44.5l2 10q1 10 5 31.5t7 41.5l18 10l40 -120q24 -70 80 -70q36 0 67 19.5t37 38.5z" />
    <glyph glyph-name="Eacute" unicode="&#xc9;" horiz-adv-x="1074" 
d="M143 705h1012l-124 -705h-1012zM542 141q0 9 -8 7q-12 -3 -23 4.5t-19.5 25t-13.5 31t-11.5 36.5t-7.5 26q-16 46 -72 44q15 8 39 22t29 17q19 11 36.5 20.5t26 13.5t15 8t9 7.5t3.5 8.5l1 7q1 4 -1.5 7.5t-7.5 3.5h-99q-5 0 -9.5 -3t-4.5 -7l-1 -18q10 -11 8.5 -19
t-21.5 -20l-64 -38l-40 -23q9 52 25.5 142t17.5 98q6 31 4.5 48.5t-9 24t-21 7t-32.5 -3.5q-65 -14 -104 -35q-8 -4 -9.5 -14t3.5 -16q2 -2 14.5 -7.5t19 -16t2.5 -30.5l-56 -318q-2 -16 -30.5 -41t-30.5 -29l-3 -15q-1 -10 10 -10h198q10 0 12 10l1 6q2 8 -17.5 33.5
t-16.5 44.5q0 3 15 83l17 10l41 -120q24 -70 80 -70q37 0 68 19.5t37 38.5zM998 141q1 4 -1.5 6t-5.5 1q-12 -3 -23 4.5t-19.5 25t-13.5 31t-11.5 36.5t-7.5 26q-16 46 -73 44q15 8 68 39q19 11 36.5 20.5t26 13.5t15 8t9 7.5t3.5 8.5l2 7q1 4 -2 7.5t-7 3.5h-99
q-12 0 -14 -10q-1 -2 -1.5 -4t-1.5 -7.5t1 -6.5q8 -9 9.5 -13.5t-3 -10.5t-18.5 -15l-64 -38l-40 -23q18 103 42 240q11 58 -1.5 70.5t-56.5 5.5q-67 -15 -103 -35q-8 -4 -9.5 -14t3.5 -16q2 -2 14.5 -7.5t19 -16t3.5 -30.5l-56 -318q-2 -16 -31 -41t-31 -29l-3 -15
q-1 -10 10 -10h197q12 0 14 10l1 6q1 8 -18 33.5t-16 44.5l2 10q1 10 5 31.5t7 41.5l18 10l40 -120q24 -70 80 -70q36 0 67 19.5t37 38.5z" />
    <glyph glyph-name="Ecircumflex" unicode="&#xca;" horiz-adv-x="1074" 
d="M143 705h1012l-124 -705h-1012zM542 141q0 9 -8 7q-12 -3 -23 4.5t-19.5 25t-13.5 31t-11.5 36.5t-7.5 26q-16 46 -72 44q15 8 39 22t29 17q19 11 36.5 20.5t26 13.5t15 8t9 7.5t3.5 8.5l1 7q1 4 -1.5 7.5t-7.5 3.5h-99q-5 0 -9.5 -3t-4.5 -7l-1 -18q10 -11 8.5 -19
t-21.5 -20l-64 -38l-40 -23q9 52 25.5 142t17.5 98q6 31 4.5 48.5t-9 24t-21 7t-32.5 -3.5q-65 -14 -104 -35q-8 -4 -9.5 -14t3.5 -16q2 -2 14.5 -7.5t19 -16t2.5 -30.5l-56 -318q-2 -16 -30.5 -41t-30.5 -29l-3 -15q-1 -10 10 -10h198q10 0 12 10l1 6q2 8 -17.5 33.5
t-16.5 44.5q0 3 15 83l17 10l41 -120q24 -70 80 -70q37 0 68 19.5t37 38.5zM998 141q1 4 -1.5 6t-5.5 1q-12 -3 -23 4.5t-19.5 25t-13.5 31t-11.5 36.5t-7.5 26q-16 46 -73 44q15 8 68 39q19 11 36.5 20.5t26 13.5t15 8t9 7.5t3.5 8.5l2 7q1 4 -2 7.5t-7 3.5h-99
q-12 0 -14 -10q-1 -2 -1.5 -4t-1.5 -7.5t1 -6.5q8 -9 9.5 -13.5t-3 -10.5t-18.5 -15l-64 -38l-40 -23q18 103 42 240q11 58 -1.5 70.5t-56.5 5.5q-67 -15 -103 -35q-8 -4 -9.5 -14t3.5 -16q2 -2 14.5 -7.5t19 -16t3.5 -30.5l-56 -318q-2 -16 -31 -41t-31 -29l-3 -15
q-1 -10 10 -10h197q12 0 14 10l1 6q1 8 -18 33.5t-16 44.5l2 10q1 10 5 31.5t7 41.5l18 10l40 -120q24 -70 80 -70q36 0 67 19.5t37 38.5z" />
    <glyph glyph-name="Edieresis" unicode="&#xcb;" horiz-adv-x="1074" 
d="M143 705h1012l-124 -705h-1012zM542 141q0 9 -8 7q-12 -3 -23 4.5t-19.5 25t-13.5 31t-11.5 36.5t-7.5 26q-16 46 -72 44q15 8 39 22t29 17q19 11 36.5 20.5t26 13.5t15 8t9 7.5t3.5 8.5l1 7q1 4 -1.5 7.5t-7.5 3.5h-99q-5 0 -9.5 -3t-4.5 -7l-1 -18q10 -11 8.5 -19
t-21.5 -20l-64 -38l-40 -23q9 52 25.5 142t17.5 98q6 31 4.5 48.5t-9 24t-21 7t-32.5 -3.5q-65 -14 -104 -35q-8 -4 -9.5 -14t3.5 -16q2 -2 14.5 -7.5t19 -16t2.5 -30.5l-56 -318q-2 -16 -30.5 -41t-30.5 -29l-3 -15q-1 -10 10 -10h198q10 0 12 10l1 6q2 8 -17.5 33.5
t-16.5 44.5q0 3 15 83l17 10l41 -120q24 -70 80 -70q37 0 68 19.5t37 38.5zM998 141q1 4 -1.5 6t-5.5 1q-12 -3 -23 4.5t-19.5 25t-13.5 31t-11.5 36.5t-7.5 26q-16 46 -73 44q15 8 68 39q19 11 36.5 20.5t26 13.5t15 8t9 7.5t3.5 8.5l2 7q1 4 -2 7.5t-7 3.5h-99
q-12 0 -14 -10q-1 -2 -1.5 -4t-1.5 -7.5t1 -6.5q8 -9 9.5 -13.5t-3 -10.5t-18.5 -15l-64 -38l-40 -23q18 103 42 240q11 58 -1.5 70.5t-56.5 5.5q-67 -15 -103 -35q-8 -4 -9.5 -14t3.5 -16q2 -2 14.5 -7.5t19 -16t3.5 -30.5l-56 -318q-2 -16 -31 -41t-31 -29l-3 -15
q-1 -10 10 -10h197q12 0 14 10l1 6q1 8 -18 33.5t-16 44.5l2 10q1 10 5 31.5t7 41.5l18 10l40 -120q24 -70 80 -70q36 0 67 19.5t37 38.5z" />
    <glyph glyph-name="Igrave" unicode="&#xcc;" horiz-adv-x="1133" 
d="M184 705h1012l-124 -705h-1012zM583 141q0 9 -8 7q-12 -3 -23 4.5t-19.5 25t-13.5 31t-11.5 36.5t-7.5 26q-16 46 -72 44q15 8 39 22t29 17q19 11 36.5 20.5t26 13.5t15 8t9 7.5t3.5 8.5l1 7q1 4 -1.5 7.5t-7.5 3.5h-99q-5 0 -9.5 -3t-4.5 -7l-1 -18q10 -11 8.5 -19
t-21.5 -20l-64 -38l-40 -23q9 52 25.5 142t17.5 98q6 31 4.5 48.5t-9 24t-21 7t-32.5 -3.5q-65 -14 -104 -35q-8 -4 -9.5 -14t3.5 -16q2 -2 14.5 -7.5t19 -16t2.5 -30.5l-56 -318q-2 -16 -30.5 -41t-30.5 -29l-3 -15q-1 -10 10 -10h198q10 0 12 10l1 6q2 8 -17.5 33.5
t-16.5 44.5q0 3 15 83l17 10l41 -120q24 -70 80 -70q37 0 68 19.5t37 38.5zM1039 141q1 4 -1.5 6t-5.5 1q-12 -3 -23 4.5t-19.5 25t-13.5 31t-11.5 36.5t-7.5 26q-16 46 -73 44q15 8 68 39q19 11 36.5 20.5t26 13.5t15 8t9 7.5t3.5 8.5l2 7q1 4 -2 7.5t-7 3.5h-99
q-12 0 -14 -10q-1 -2 -1.5 -4t-1.5 -7.5t1 -6.5q8 -9 9.5 -13.5t-3 -10.5t-18.5 -15l-64 -38l-40 -23q18 103 42 240q11 58 -1.5 70.5t-56.5 5.5q-67 -15 -103 -35q-8 -4 -9.5 -14t3.5 -16q2 -2 14.5 -7.5t19 -16t3.5 -30.5l-56 -318q-2 -16 -31 -41t-31 -29l-3 -15
q-1 -10 10 -10h197q12 0 14 10l1 6q1 8 -18 33.5t-16 44.5l1 10q2 10 6 31.5t7 41.5l18 10l40 -120q24 -70 80 -70q36 0 67 19.5t37 38.5z" />
    <glyph glyph-name="Iacute" unicode="&#xcd;" horiz-adv-x="1133" 
d="M184 705h1012l-124 -705h-1012zM583 141q0 9 -8 7q-12 -3 -23 4.5t-19.5 25t-13.5 31t-11.5 36.5t-7.5 26q-16 46 -72 44q15 8 39 22t29 17q19 11 36.5 20.5t26 13.5t15 8t9 7.5t3.5 8.5l1 7q1 4 -1.5 7.5t-7.5 3.5h-99q-5 0 -9.5 -3t-4.5 -7l-1 -18q10 -11 8.5 -19
t-21.5 -20l-64 -38l-40 -23q9 52 25.5 142t17.5 98q6 31 4.5 48.5t-9 24t-21 7t-32.5 -3.5q-65 -14 -104 -35q-8 -4 -9.5 -14t3.5 -16q2 -2 14.5 -7.5t19 -16t2.5 -30.5l-56 -318q-2 -16 -30.5 -41t-30.5 -29l-3 -15q-1 -10 10 -10h198q10 0 12 10l1 6q2 8 -17.5 33.5
t-16.5 44.5q0 3 15 83l17 10l41 -120q24 -70 80 -70q37 0 68 19.5t37 38.5zM1039 141q1 4 -1.5 6t-5.5 1q-12 -3 -23 4.5t-19.5 25t-13.5 31t-11.5 36.5t-7.5 26q-16 46 -73 44q15 8 68 39q19 11 36.5 20.5t26 13.5t15 8t9 7.5t3.5 8.5l2 7q1 4 -2 7.5t-7 3.5h-99
q-12 0 -14 -10q-1 -2 -1.5 -4t-1.5 -7.5t1 -6.5q8 -9 9.5 -13.5t-3 -10.5t-18.5 -15l-64 -38l-40 -23q18 103 42 240q11 58 -1.5 70.5t-56.5 5.5q-67 -15 -103 -35q-8 -4 -9.5 -14t3.5 -16q2 -2 14.5 -7.5t19 -16t3.5 -30.5l-56 -318q-2 -16 -31 -41t-31 -29l-3 -15
q-1 -10 10 -10h197q12 0 14 10l1 6q1 8 -18 33.5t-16 44.5l1 10q2 10 6 31.5t7 41.5l18 10l40 -120q24 -70 80 -70q36 0 67 19.5t37 38.5z" />
    <glyph glyph-name="Icircumflex" unicode="&#xce;" horiz-adv-x="1133" 
d="M184 705h1012l-124 -705h-1012zM583 141q0 9 -8 7q-12 -3 -23 4.5t-19.5 25t-13.5 31t-11.5 36.5t-7.5 26q-16 46 -72 44q15 8 39 22t29 17q19 11 36.5 20.5t26 13.5t15 8t9 7.5t3.5 8.5l1 7q1 4 -1.5 7.5t-7.5 3.5h-99q-5 0 -9.5 -3t-4.5 -7l-1 -18q10 -11 8.5 -19
t-21.5 -20l-64 -38l-40 -23q9 52 25.5 142t17.5 98q6 31 4.5 48.5t-9 24t-21 7t-32.5 -3.5q-65 -14 -104 -35q-8 -4 -9.5 -14t3.5 -16q2 -2 14.5 -7.5t19 -16t2.5 -30.5l-56 -318q-2 -16 -30.5 -41t-30.5 -29l-3 -15q-1 -10 10 -10h198q10 0 12 10l1 6q2 8 -17.5 33.5
t-16.5 44.5q0 3 15 83l17 10l41 -120q24 -70 80 -70q37 0 68 19.5t37 38.5zM1039 141q1 4 -1.5 6t-5.5 1q-12 -3 -23 4.5t-19.5 25t-13.5 31t-11.5 36.5t-7.5 26q-16 46 -73 44q15 8 68 39q19 11 36.5 20.5t26 13.5t15 8t9 7.5t3.5 8.5l2 7q1 4 -2 7.5t-7 3.5h-99
q-12 0 -14 -10q-1 -2 -1.5 -4t-1.5 -7.5t1 -6.5q8 -9 9.5 -13.5t-3 -10.5t-18.5 -15l-64 -38l-40 -23q18 103 42 240q11 58 -1.5 70.5t-56.5 5.5q-67 -15 -103 -35q-8 -4 -9.5 -14t3.5 -16q2 -2 14.5 -7.5t19 -16t3.5 -30.5l-56 -318q-2 -16 -31 -41t-31 -29l-3 -15
q-1 -10 10 -10h197q12 0 14 10l1 6q1 8 -18 33.5t-16 44.5l1 10q2 10 6 31.5t7 41.5l18 10l40 -120q24 -70 80 -70q36 0 67 19.5t37 38.5z" />
    <glyph glyph-name="Idieresis" unicode="&#xcf;" horiz-adv-x="1133" 
d="M184 705h1012l-124 -705h-1012zM583 141q0 9 -8 7q-12 -3 -23 4.5t-19.5 25t-13.5 31t-11.5 36.5t-7.5 26q-16 46 -72 44q15 8 39 22t29 17q19 11 36.5 20.5t26 13.5t15 8t9 7.5t3.5 8.5l1 7q1 4 -1.5 7.5t-7.5 3.5h-99q-5 0 -9.5 -3t-4.5 -7l-1 -18q10 -11 8.5 -19
t-21.5 -20l-64 -38l-40 -23q9 52 25.5 142t17.5 98q6 31 4.5 48.5t-9 24t-21 7t-32.5 -3.5q-65 -14 -104 -35q-8 -4 -9.5 -14t3.5 -16q2 -2 14.5 -7.5t19 -16t2.5 -30.5l-56 -318q-2 -16 -30.5 -41t-30.5 -29l-3 -15q-1 -10 10 -10h198q10 0 12 10l1 6q2 8 -17.5 33.5
t-16.5 44.5q0 3 15 83l17 10l41 -120q24 -70 80 -70q37 0 68 19.5t37 38.5zM1039 141q1 4 -1.5 6t-5.5 1q-12 -3 -23 4.5t-19.5 25t-13.5 31t-11.5 36.5t-7.5 26q-16 46 -73 44q15 8 68 39q19 11 36.5 20.5t26 13.5t15 8t9 7.5t3.5 8.5l2 7q1 4 -2 7.5t-7 3.5h-99
q-12 0 -14 -10q-1 -2 -1.5 -4t-1.5 -7.5t1 -6.5q8 -9 9.5 -13.5t-3 -10.5t-18.5 -15l-64 -38l-40 -23q18 103 42 240q11 58 -1.5 70.5t-56.5 5.5q-67 -15 -103 -35q-8 -4 -9.5 -14t3.5 -16q2 -2 14.5 -7.5t19 -16t3.5 -30.5l-56 -318q-2 -16 -31 -41t-31 -29l-3 -15
q-1 -10 10 -10h197q12 0 14 10l1 6q1 8 -18 33.5t-16 44.5l1 10q2 10 6 31.5t7 41.5l18 10l40 -120q24 -70 80 -70q36 0 67 19.5t37 38.5z" />
    <glyph glyph-name="Eth" unicode="&#xd0;" horiz-adv-x="1057" 
d="M143 705h1012l-124 -705h-1012zM542 141q0 9 -8 7q-12 -3 -23 4.5t-19.5 25t-13.5 31t-11.5 36.5t-7.5 26q-16 46 -72 44q15 8 39 22t29 17q19 11 36.5 20.5t26 13.5t15 8t9 7.5t3.5 8.5l1 7q1 4 -1.5 7.5t-7.5 3.5h-99q-5 0 -9.5 -3t-4.5 -7l-1 -18q10 -11 8.5 -19
t-21.5 -20l-64 -38l-40 -23q9 52 25.5 142t17.5 98q6 31 4.5 48.5t-9 24t-21 7t-32.5 -3.5q-65 -14 -104 -35q-8 -4 -9.5 -14t3.5 -16q2 -2 14.5 -7.5t19 -16t2.5 -30.5l-56 -318q-2 -16 -30.5 -41t-30.5 -29l-3 -15q-1 -10 10 -10h198q10 0 12 10l1 6q2 8 -17.5 33.5
t-16.5 44.5q0 3 15 83l17 10l41 -120q24 -70 80 -70q37 0 68 19.5t37 38.5zM998 141q1 4 -1.5 6t-5.5 1q-12 -3 -23 4.5t-19.5 25t-13.5 31t-11.5 36.5t-7.5 26q-16 46 -73 44q15 8 68 39q19 11 36.5 20.5t26 13.5t15 8t9 7.5t3.5 8.5l2 7q1 4 -2 7.5t-7 3.5h-99
q-12 0 -14 -10q-1 -2 -1.5 -4t-1.5 -7.5t1 -6.5q8 -9 9.5 -13.5t-3 -10.5t-18.5 -15l-64 -38l-40 -23q18 103 42 240q11 58 -1.5 70.5t-56.5 5.5q-67 -15 -103 -35q-8 -4 -9.5 -14t3.5 -16q2 -2 14.5 -7.5t19 -16t3.5 -30.5l-56 -318q-2 -16 -31 -41t-31 -29l-3 -15
q-1 -10 10 -10h197q12 0 14 10l1 6q1 8 -18 33.5t-16 44.5l2 10q1 10 5 31.5t7 41.5l18 10l40 -120q24 -70 80 -70q36 0 67 19.5t37 38.5z" />
    <glyph glyph-name="Ntilde" unicode="&#xd1;" horiz-adv-x="1052" 
d="M143 705h1012l-124 -705h-1012zM542 141q0 9 -8 7q-12 -3 -23 4.5t-19.5 25t-13.5 31t-11.5 36.5t-7.5 26q-16 46 -72 44q15 8 39 22t29 17q19 11 36.5 20.5t26 13.5t15 8t9 7.5t3.5 8.5l1 7q1 4 -1.5 7.5t-7.5 3.5h-99q-5 0 -9.5 -3t-4.5 -7l-1 -18q10 -11 8.5 -19
t-21.5 -20l-64 -38l-40 -23q9 52 25.5 142t17.5 98q6 31 4.5 48.5t-9 24t-21 7t-32.5 -3.5q-65 -14 -104 -35q-8 -4 -9.5 -14t3.5 -16q2 -2 14.5 -7.5t19 -16t2.5 -30.5l-56 -318q-2 -16 -30.5 -41t-30.5 -29l-3 -15q-1 -10 10 -10h198q10 0 12 10l1 6q2 8 -17.5 33.5
t-16.5 44.5q0 3 15 83l17 10l41 -120q24 -70 80 -70q37 0 68 19.5t37 38.5zM998 141q1 4 -1.5 6t-5.5 1q-12 -3 -23 4.5t-19.5 25t-13.5 31t-11.5 36.5t-7.5 26q-16 46 -73 44q15 8 68 39q19 11 36.5 20.5t26 13.5t15 8t9 7.5t3.5 8.5l2 7q1 4 -2 7.5t-7 3.5h-99
q-12 0 -14 -10q-1 -2 -1.5 -4t-1.5 -7.5t1 -6.5q8 -9 9.5 -13.5t-3 -10.5t-18.5 -15l-64 -38l-40 -23q18 103 42 240q11 58 -1.5 70.5t-56.5 5.5q-67 -15 -103 -35q-8 -4 -9.5 -14t3.5 -16q2 -2 14.5 -7.5t19 -16t3.5 -30.5l-56 -318q-2 -16 -31 -41t-31 -29l-3 -15
q-1 -10 10 -10h197q12 0 14 10l1 6q1 8 -18 33.5t-16 44.5l2 10q1 10 5 31.5t7 41.5l18 10l40 -120q24 -70 80 -70q36 0 67 19.5t37 38.5z" />
    <glyph glyph-name="Ograve" unicode="&#xd2;" horiz-adv-x="1073" 
d="M159 705h1012l-124 -705h-1012zM558 141q0 9 -8 7q-12 -3 -23 4.5t-19.5 25t-13.5 31t-11.5 36.5t-7.5 26q-16 46 -72 44q15 8 39 22t29 17q19 11 36.5 20.5t26 13.5t15 8t9 7.5t3.5 8.5l1 7q1 4 -1.5 7.5t-7.5 3.5h-99q-5 0 -9.5 -3t-4.5 -7l-1 -18q10 -11 8.5 -19
t-21.5 -20l-64 -38l-40 -23q9 52 25.5 142t17.5 98q6 31 4.5 48.5t-9 24t-21 7t-32.5 -3.5q-65 -14 -104 -35q-8 -4 -9.5 -14t3.5 -16q2 -2 14.5 -7.5t19 -16t2.5 -30.5l-56 -318q-2 -16 -30.5 -41t-30.5 -29l-3 -15q-1 -10 10 -10h198q10 0 12 10l1 6q2 8 -17.5 33.5
t-16.5 44.5q0 3 15 83l17 10l41 -120q24 -70 80 -70q37 0 68 19.5t37 38.5zM1014 141q1 4 -1.5 6t-5.5 1q-12 -3 -23 4.5t-19.5 25t-13.5 31t-11.5 36.5t-7.5 26q-16 46 -73 44q15 8 68 39q19 11 36.5 20.5t26 13.5t15 8t9 7.5t3.5 8.5l2 7q1 4 -2 7.5t-7 3.5h-99
q-12 0 -14 -10q-1 -2 -1.5 -4t-1.5 -7.5t1 -6.5q8 -9 9.5 -13.5t-3 -10.5t-18.5 -15l-64 -38l-40 -23q18 103 42 240q11 58 -1.5 70.5t-56.5 5.5q-67 -15 -103 -35q-8 -4 -9.5 -14t3.5 -16q2 -2 14.5 -7.5t19 -16t3.5 -30.5l-56 -318q-2 -16 -31 -41t-31 -29l-3 -15
q-1 -10 10 -10h197q12 0 14 10l1 6q1 8 -18 33.5t-16 44.5l2 10q1 10 5 31.5t7 41.5l18 10l40 -120q24 -70 80 -70q36 0 67 19.5t37 38.5z" />
    <glyph glyph-name="Oacute" unicode="&#xd3;" horiz-adv-x="1073" 
d="M159 705h1012l-124 -705h-1012zM558 141q0 9 -8 7q-12 -3 -23 4.5t-19.5 25t-13.5 31t-11.5 36.5t-7.5 26q-16 46 -72 44q15 8 39 22t29 17q19 11 36.5 20.5t26 13.5t15 8t9 7.5t3.5 8.5l1 7q1 4 -1.5 7.5t-7.5 3.5h-99q-5 0 -9.5 -3t-4.5 -7l-1 -18q10 -11 8.5 -19
t-21.5 -20l-64 -38l-40 -23q9 52 25.5 142t17.5 98q6 31 4.5 48.5t-9 24t-21 7t-32.5 -3.5q-65 -14 -104 -35q-8 -4 -9.5 -14t3.5 -16q2 -2 14.5 -7.5t19 -16t2.5 -30.5l-56 -318q-2 -16 -30.5 -41t-30.5 -29l-3 -15q-1 -10 10 -10h198q10 0 12 10l1 6q2 8 -17.5 33.5
t-16.5 44.5q0 3 15 83l17 10l41 -120q24 -70 80 -70q37 0 68 19.5t37 38.5zM1014 141q1 4 -1.5 6t-5.5 1q-12 -3 -23 4.5t-19.5 25t-13.5 31t-11.5 36.5t-7.5 26q-16 46 -73 44q15 8 68 39q19 11 36.5 20.5t26 13.5t15 8t9 7.5t3.5 8.5l2 7q1 4 -2 7.5t-7 3.5h-99
q-12 0 -14 -10q-1 -2 -1.5 -4t-1.5 -7.5t1 -6.5q8 -9 9.5 -13.5t-3 -10.5t-18.5 -15l-64 -38l-40 -23q18 103 42 240q11 58 -1.5 70.5t-56.5 5.5q-67 -15 -103 -35q-8 -4 -9.5 -14t3.5 -16q2 -2 14.5 -7.5t19 -16t3.5 -30.5l-56 -318q-2 -16 -31 -41t-31 -29l-3 -15
q-1 -10 10 -10h197q12 0 14 10l1 6q1 8 -18 33.5t-16 44.5l2 10q1 10 5 31.5t7 41.5l18 10l40 -120q24 -70 80 -70q36 0 67 19.5t37 38.5z" />
    <glyph glyph-name="Ocircumflex" unicode="&#xd4;" horiz-adv-x="1073" 
d="M159 705h1012l-124 -705h-1012zM558 141q0 9 -8 7q-12 -3 -23 4.5t-19.5 25t-13.5 31t-11.5 36.5t-7.5 26q-16 46 -72 44q15 8 39 22t29 17q19 11 36.5 20.5t26 13.5t15 8t9 7.5t3.5 8.5l1 7q1 4 -1.5 7.5t-7.5 3.5h-99q-5 0 -9.5 -3t-4.5 -7l-1 -18q10 -11 8.5 -19
t-21.5 -20l-64 -38l-40 -23q9 52 25.5 142t17.5 98q6 31 4.5 48.5t-9 24t-21 7t-32.5 -3.5q-65 -14 -104 -35q-8 -4 -9.5 -14t3.5 -16q2 -2 14.5 -7.5t19 -16t2.5 -30.5l-56 -318q-2 -16 -30.5 -41t-30.5 -29l-3 -15q-1 -10 10 -10h198q10 0 12 10l1 6q2 8 -17.5 33.5
t-16.5 44.5q0 3 15 83l17 10l41 -120q24 -70 80 -70q37 0 68 19.5t37 38.5zM1014 141q1 4 -1.5 6t-5.5 1q-12 -3 -23 4.5t-19.5 25t-13.5 31t-11.5 36.5t-7.5 26q-16 46 -73 44q15 8 68 39q19 11 36.5 20.5t26 13.5t15 8t9 7.5t3.5 8.5l2 7q1 4 -2 7.5t-7 3.5h-99
q-12 0 -14 -10q-1 -2 -1.5 -4t-1.5 -7.5t1 -6.5q8 -9 9.5 -13.5t-3 -10.5t-18.5 -15l-64 -38l-40 -23q18 103 42 240q11 58 -1.5 70.5t-56.5 5.5q-67 -15 -103 -35q-8 -4 -9.5 -14t3.5 -16q2 -2 14.5 -7.5t19 -16t3.5 -30.5l-56 -318q-2 -16 -31 -41t-31 -29l-3 -15
q-1 -10 10 -10h197q12 0 14 10l1 6q1 8 -18 33.5t-16 44.5l2 10q1 10 5 31.5t7 41.5l18 10l40 -120q24 -70 80 -70q36 0 67 19.5t37 38.5z" />
    <glyph glyph-name="Otilde" unicode="&#xd5;" horiz-adv-x="1073" 
d="M159 705h1012l-124 -705h-1012zM558 141q0 9 -8 7q-12 -3 -23 4.5t-19.5 25t-13.5 31t-11.5 36.5t-7.5 26q-16 46 -72 44q15 8 39 22t29 17q19 11 36.5 20.5t26 13.5t15 8t9 7.5t3.5 8.5l1 7q1 4 -1.5 7.5t-7.5 3.5h-99q-5 0 -9.5 -3t-4.5 -7l-1 -18q10 -11 8.5 -19
t-21.5 -20l-64 -38l-40 -23q9 52 25.5 142t17.5 98q6 31 4.5 48.5t-9 24t-21 7t-32.5 -3.5q-65 -14 -104 -35q-8 -4 -9.5 -14t3.5 -16q2 -2 14.5 -7.5t19 -16t2.5 -30.5l-56 -318q-2 -16 -30.5 -41t-30.5 -29l-3 -15q-1 -10 10 -10h198q10 0 12 10l1 6q2 8 -17.5 33.5
t-16.5 44.5q0 3 15 83l17 10l41 -120q24 -70 80 -70q37 0 68 19.5t37 38.5zM1014 141q1 4 -1.5 6t-5.5 1q-12 -3 -23 4.5t-19.5 25t-13.5 31t-11.5 36.5t-7.5 26q-16 46 -73 44q15 8 68 39q19 11 36.5 20.5t26 13.5t15 8t9 7.5t3.5 8.5l2 7q1 4 -2 7.5t-7 3.5h-99
q-12 0 -14 -10q-1 -2 -1.5 -4t-1.5 -7.5t1 -6.5q8 -9 9.5 -13.5t-3 -10.5t-18.5 -15l-64 -38l-40 -23q18 103 42 240q11 58 -1.5 70.5t-56.5 5.5q-67 -15 -103 -35q-8 -4 -9.5 -14t3.5 -16q2 -2 14.5 -7.5t19 -16t3.5 -30.5l-56 -318q-2 -16 -31 -41t-31 -29l-3 -15
q-1 -10 10 -10h197q12 0 14 10l1 6q1 8 -18 33.5t-16 44.5l2 10q1 10 5 31.5t7 41.5l18 10l40 -120q24 -70 80 -70q36 0 67 19.5t37 38.5z" />
    <glyph glyph-name="Odieresis" unicode="&#xd6;" horiz-adv-x="1073" 
d="M159 705h1012l-124 -705h-1012zM558 141q0 9 -8 7q-12 -3 -23 4.5t-19.5 25t-13.5 31t-11.5 36.5t-7.5 26q-16 46 -72 44q15 8 39 22t29 17q19 11 36.5 20.5t26 13.5t15 8t9 7.5t3.5 8.5l1 7q1 4 -1.5 7.5t-7.5 3.5h-99q-5 0 -9.5 -3t-4.5 -7l-1 -18q10 -11 8.5 -19
t-21.5 -20l-64 -38l-40 -23q9 52 25.5 142t17.5 98q6 31 4.5 48.5t-9 24t-21 7t-32.5 -3.5q-65 -14 -104 -35q-8 -4 -9.5 -14t3.5 -16q2 -2 14.5 -7.5t19 -16t2.5 -30.5l-56 -318q-2 -16 -30.5 -41t-30.5 -29l-3 -15q-1 -10 10 -10h198q10 0 12 10l1 6q2 8 -17.5 33.5
t-16.5 44.5q0 3 15 83l17 10l41 -120q24 -70 80 -70q37 0 68 19.5t37 38.5zM1014 141q1 4 -1.5 6t-5.5 1q-12 -3 -23 4.5t-19.5 25t-13.5 31t-11.5 36.5t-7.5 26q-16 46 -73 44q15 8 68 39q19 11 36.5 20.5t26 13.5t15 8t9 7.5t3.5 8.5l2 7q1 4 -2 7.5t-7 3.5h-99
q-12 0 -14 -10q-1 -2 -1.5 -4t-1.5 -7.5t1 -6.5q8 -9 9.5 -13.5t-3 -10.5t-18.5 -15l-64 -38l-40 -23q18 103 42 240q11 58 -1.5 70.5t-56.5 5.5q-67 -15 -103 -35q-8 -4 -9.5 -14t3.5 -16q2 -2 14.5 -7.5t19 -16t3.5 -30.5l-56 -318q-2 -16 -31 -41t-31 -29l-3 -15
q-1 -10 10 -10h197q12 0 14 10l1 6q1 8 -18 33.5t-16 44.5l2 10q1 10 5 31.5t7 41.5l18 10l40 -120q24 -70 80 -70q36 0 67 19.5t37 38.5z" />
    <glyph glyph-name="multiply" unicode="&#xd7;" horiz-adv-x="1113" 
d="M174 705h1012l-124 -705h-1012zM573 141q0 9 -8 7q-12 -3 -23 4.5t-19.5 25t-13.5 31t-11.5 36.5t-7.5 26q-16 46 -72 44q15 8 39 22t29 17q19 11 36.5 20.5t26 13.5t15 8t9 7.5t3.5 8.5l1 7q1 4 -1.5 7.5t-7.5 3.5h-99q-5 0 -9.5 -3t-4.5 -7l-1 -18q10 -11 8.5 -19
t-21.5 -20l-64 -38l-40 -23q9 52 25.5 142t17.5 98q6 31 4.5 48.5t-9 24t-21 7t-32.5 -3.5q-65 -14 -104 -35q-8 -4 -9.5 -14t3.5 -16q2 -2 14.5 -7.5t19 -16t2.5 -30.5l-56 -318q-2 -16 -30.5 -41t-30.5 -29l-3 -15q-1 -10 10 -10h198q10 0 12 10l1 6q2 8 -17.5 33.5
t-16.5 44.5q0 3 15 83l17 10l41 -120q24 -70 80 -70q37 0 68 19.5t37 38.5zM1029 141q1 4 -1.5 6t-5.5 1q-12 -3 -23 4.5t-19.5 25t-13.5 31t-11.5 36.5t-7.5 26q-16 46 -73 44q15 8 68 39q19 11 36.5 20.5t26 13.5t15 8t9 7.5t3.5 8.5l2 7q1 4 -2 7.5t-7 3.5h-99
q-12 0 -14 -10q-1 -2 -1.5 -4t-1.5 -7.5t1 -6.5q8 -9 9.5 -13.5t-3 -10.5t-18.5 -15l-64 -38l-40 -23q18 103 42 240q11 58 -1.5 70.5t-56.5 5.5q-67 -15 -103 -35q-8 -4 -9.5 -14t3.5 -16q2 -2 14.5 -7.5t19 -16t3.5 -30.5l-56 -318q-2 -16 -31 -41t-31 -29l-3 -15
q-1 -10 10 -10h197q12 0 14 10l1 6q1 8 -18 33.5t-16 44.5l1 10q2 10 6 31.5t7 41.5l18 10l40 -120q24 -70 80 -70q36 0 67 19.5t37 38.5z" />
    <glyph glyph-name="Oslash" unicode="&#xd8;" horiz-adv-x="1073" 
d="M159 705h1012l-124 -705h-1012zM558 141q0 9 -8 7q-12 -3 -23 4.5t-19.5 25t-13.5 31t-11.5 36.5t-7.5 26q-16 46 -72 44q15 8 39 22t29 17q19 11 36.5 20.5t26 13.5t15 8t9 7.5t3.5 8.5l1 7q1 4 -1.5 7.5t-7.5 3.5h-99q-5 0 -9.5 -3t-4.5 -7l-1 -18q10 -11 8.5 -19
t-21.5 -20l-64 -38l-40 -23q9 52 25.5 142t17.5 98q6 31 4.5 48.5t-9 24t-21 7t-32.5 -3.5q-65 -14 -104 -35q-8 -4 -9.5 -14t3.5 -16q2 -2 14.5 -7.5t19 -16t2.5 -30.5l-56 -318q-2 -16 -30.5 -41t-30.5 -29l-3 -15q-1 -10 10 -10h198q10 0 12 10l1 6q2 8 -17.5 33.5
t-16.5 44.5q0 3 15 83l17 10l41 -120q24 -70 80 -70q37 0 68 19.5t37 38.5zM1014 141q1 4 -1.5 6t-5.5 1q-12 -3 -23 4.5t-19.5 25t-13.5 31t-11.5 36.5t-7.5 26q-16 46 -73 44q15 8 68 39q19 11 36.5 20.5t26 13.5t15 8t9 7.5t3.5 8.5l2 7q1 4 -2 7.5t-7 3.5h-99
q-12 0 -14 -10q-1 -2 -1.5 -4t-1.5 -7.5t1 -6.5q8 -9 9.5 -13.5t-3 -10.5t-18.5 -15l-64 -38l-40 -23q18 103 42 240q11 58 -1.5 70.5t-56.5 5.5q-67 -15 -103 -35q-8 -4 -9.5 -14t3.5 -16q2 -2 14.5 -7.5t19 -16t3.5 -30.5l-56 -318q-2 -16 -31 -41t-31 -29l-3 -15
q-1 -10 10 -10h197q12 0 14 10l1 6q1 8 -18 33.5t-16 44.5l2 10q1 10 5 31.5t7 41.5l18 10l40 -120q24 -70 80 -70q36 0 67 19.5t37 38.5z" />
    <glyph glyph-name="Ugrave" unicode="&#xd9;" horiz-adv-x="1083" 
d="M169 705h1012l-124 -705h-1012zM568 141q0 9 -8 7q-12 -3 -23 4.5t-19.5 25t-13.5 31t-11.5 36.5t-7.5 26q-16 46 -72 44q15 8 39 22t29 17q19 11 36.5 20.5t26 13.5t15 8t9 7.5t3.5 8.5l1 7q1 4 -1.5 7.5t-7.5 3.5h-99q-5 0 -9.5 -3t-4.5 -7l-1 -18q10 -11 8.5 -19
t-21.5 -20l-64 -38l-40 -23q9 52 25.5 142t17.5 98q6 31 4.5 48.5t-9 24t-21 7t-32.5 -3.5q-65 -14 -104 -35q-8 -4 -9.5 -14t3.5 -16q2 -2 14.5 -7.5t19 -16t2.5 -30.5l-56 -318q-2 -16 -30.5 -41t-30.5 -29l-3 -15q-1 -10 10 -10h198q10 0 12 10l1 6q2 8 -17.5 33.5
t-16.5 44.5q0 3 15 83l17 10l41 -120q24 -70 80 -70q37 0 68 19.5t37 38.5zM1024 141q1 4 -1.5 6t-5.5 1q-12 -3 -23 4.5t-19.5 25t-13.5 31t-11.5 36.5t-7.5 26q-16 46 -73 44q15 8 68 39q19 11 36.5 20.5t26 13.5t15 8t9 7.5t3.5 8.5l2 7q1 4 -2 7.5t-7 3.5h-99
q-12 0 -14 -10q-1 -2 -1.5 -4t-1.5 -7.5t1 -6.5q8 -9 9.5 -13.5t-3 -10.5t-18.5 -15l-64 -38l-40 -23q18 103 42 240q11 58 -1.5 70.5t-56.5 5.5q-67 -15 -103 -35q-8 -4 -9.5 -14t3.5 -16q2 -2 14.5 -7.5t19 -16t3.5 -30.5l-56 -318q-2 -16 -31 -41t-31 -29l-3 -15
q-1 -10 10 -10h197q12 0 14 10l1 6q1 8 -18 33.5t-16 44.5l2 10q1 10 5 31.5t7 41.5l18 10l40 -120q24 -70 80 -70q36 0 67 19.5t37 38.5z" />
    <glyph glyph-name="Uacute" unicode="&#xda;" horiz-adv-x="1083" 
d="M169 705h1012l-124 -705h-1012zM568 141q0 9 -8 7q-12 -3 -23 4.5t-19.5 25t-13.5 31t-11.5 36.5t-7.5 26q-16 46 -72 44q15 8 39 22t29 17q19 11 36.5 20.5t26 13.5t15 8t9 7.5t3.5 8.5l1 7q1 4 -1.5 7.5t-7.5 3.5h-99q-5 0 -9.5 -3t-4.5 -7l-1 -18q10 -11 8.5 -19
t-21.5 -20l-64 -38l-40 -23q9 52 25.5 142t17.5 98q6 31 4.5 48.5t-9 24t-21 7t-32.5 -3.5q-65 -14 -104 -35q-8 -4 -9.5 -14t3.5 -16q2 -2 14.5 -7.5t19 -16t2.5 -30.5l-56 -318q-2 -16 -30.5 -41t-30.5 -29l-3 -15q-1 -10 10 -10h198q10 0 12 10l1 6q2 8 -17.5 33.5
t-16.5 44.5q0 3 15 83l17 10l41 -120q24 -70 80 -70q37 0 68 19.5t37 38.5zM1024 141q1 4 -1.5 6t-5.5 1q-12 -3 -23 4.5t-19.5 25t-13.5 31t-11.5 36.5t-7.5 26q-16 46 -73 44q15 8 68 39q19 11 36.5 20.5t26 13.5t15 8t9 7.5t3.5 8.5l2 7q1 4 -2 7.5t-7 3.5h-99
q-12 0 -14 -10q-1 -2 -1.5 -4t-1.5 -7.5t1 -6.5q8 -9 9.5 -13.5t-3 -10.5t-18.5 -15l-64 -38l-40 -23q18 103 42 240q11 58 -1.5 70.5t-56.5 5.5q-67 -15 -103 -35q-8 -4 -9.5 -14t3.5 -16q2 -2 14.5 -7.5t19 -16t3.5 -30.5l-56 -318q-2 -16 -31 -41t-31 -29l-3 -15
q-1 -10 10 -10h197q12 0 14 10l1 6q1 8 -18 33.5t-16 44.5l2 10q1 10 5 31.5t7 41.5l18 10l40 -120q24 -70 80 -70q36 0 67 19.5t37 38.5z" />
    <glyph glyph-name="Ucircumflex" unicode="&#xdb;" horiz-adv-x="1083" 
d="M169 705h1012l-124 -705h-1012zM568 141q0 9 -8 7q-12 -3 -23 4.5t-19.5 25t-13.5 31t-11.5 36.5t-7.5 26q-16 46 -72 44q15 8 39 22t29 17q19 11 36.5 20.5t26 13.5t15 8t9 7.5t3.5 8.5l1 7q1 4 -1.5 7.5t-7.5 3.5h-99q-5 0 -9.5 -3t-4.5 -7l-1 -18q10 -11 8.5 -19
t-21.5 -20l-64 -38l-40 -23q9 52 25.5 142t17.5 98q6 31 4.5 48.5t-9 24t-21 7t-32.5 -3.5q-65 -14 -104 -35q-8 -4 -9.5 -14t3.5 -16q2 -2 14.5 -7.5t19 -16t2.5 -30.5l-56 -318q-2 -16 -30.5 -41t-30.5 -29l-3 -15q-1 -10 10 -10h198q10 0 12 10l1 6q2 8 -17.5 33.5
t-16.5 44.5q0 3 15 83l17 10l41 -120q24 -70 80 -70q37 0 68 19.5t37 38.5zM1024 141q1 4 -1.5 6t-5.5 1q-12 -3 -23 4.5t-19.5 25t-13.5 31t-11.5 36.5t-7.5 26q-16 46 -73 44q15 8 68 39q19 11 36.5 20.5t26 13.5t15 8t9 7.5t3.5 8.5l2 7q1 4 -2 7.5t-7 3.5h-99
q-12 0 -14 -10q-1 -2 -1.5 -4t-1.5 -7.5t1 -6.5q8 -9 9.5 -13.5t-3 -10.5t-18.5 -15l-64 -38l-40 -23q18 103 42 240q11 58 -1.5 70.5t-56.5 5.5q-67 -15 -103 -35q-8 -4 -9.5 -14t3.5 -16q2 -2 14.5 -7.5t19 -16t3.5 -30.5l-56 -318q-2 -16 -31 -41t-31 -29l-3 -15
q-1 -10 10 -10h197q12 0 14 10l1 6q1 8 -18 33.5t-16 44.5l2 10q1 10 5 31.5t7 41.5l18 10l40 -120q24 -70 80 -70q36 0 67 19.5t37 38.5z" />
    <glyph glyph-name="Udieresis" unicode="&#xdc;" horiz-adv-x="1083" 
d="M169 705h1012l-124 -705h-1012zM568 141q0 9 -8 7q-12 -3 -23 4.5t-19.5 25t-13.5 31t-11.5 36.5t-7.5 26q-16 46 -72 44q15 8 39 22t29 17q19 11 36.5 20.5t26 13.5t15 8t9 7.5t3.5 8.5l1 7q1 4 -1.5 7.5t-7.5 3.5h-99q-5 0 -9.5 -3t-4.5 -7l-1 -18q10 -11 8.5 -19
t-21.5 -20l-64 -38l-40 -23q9 52 25.5 142t17.5 98q6 31 4.5 48.5t-9 24t-21 7t-32.5 -3.5q-65 -14 -104 -35q-8 -4 -9.5 -14t3.5 -16q2 -2 14.5 -7.5t19 -16t2.5 -30.5l-56 -318q-2 -16 -30.5 -41t-30.5 -29l-3 -15q-1 -10 10 -10h198q10 0 12 10l1 6q2 8 -17.5 33.5
t-16.5 44.5q0 3 15 83l17 10l41 -120q24 -70 80 -70q37 0 68 19.5t37 38.5zM1024 141q1 4 -1.5 6t-5.5 1q-12 -3 -23 4.5t-19.5 25t-13.5 31t-11.5 36.5t-7.5 26q-16 46 -73 44q15 8 68 39q19 11 36.5 20.5t26 13.5t15 8t9 7.5t3.5 8.5l2 7q1 4 -2 7.5t-7 3.5h-99
q-12 0 -14 -10q-1 -2 -1.5 -4t-1.5 -7.5t1 -6.5q8 -9 9.5 -13.5t-3 -10.5t-18.5 -15l-64 -38l-40 -23q18 103 42 240q11 58 -1.5 70.5t-56.5 5.5q-67 -15 -103 -35q-8 -4 -9.5 -14t3.5 -16q2 -2 14.5 -7.5t19 -16t3.5 -30.5l-56 -318q-2 -16 -31 -41t-31 -29l-3 -15
q-1 -10 10 -10h197q12 0 14 10l1 6q1 8 -18 33.5t-16 44.5l2 10q1 10 5 31.5t7 41.5l18 10l40 -120q24 -70 80 -70q36 0 67 19.5t37 38.5z" />
    <glyph glyph-name="Yacute" unicode="&#xdd;" horiz-adv-x="1033" 
d="M144 705h1012l-124 -705h-1012zM543 141q0 9 -8 7q-12 -3 -23 4.5t-19.5 25t-13.5 31t-11.5 36.5t-7.5 26q-16 46 -72 44q15 8 39 22t29 17q19 11 36.5 20.5t26 13.5t15 8t9 7.5t3.5 8.5l1 7q1 4 -1.5 7.5t-7.5 3.5h-99q-5 0 -9.5 -3t-4.5 -7l-1 -18q10 -11 8.5 -19
t-21.5 -20l-64 -38l-40 -23q9 52 25.5 142t17.5 98q6 31 4.5 48.5t-9 24t-21 7t-32.5 -3.5q-65 -14 -104 -35q-8 -4 -9.5 -14t3.5 -16q2 -2 14.5 -7.5t19 -16t2.5 -30.5l-56 -318q-2 -16 -30.5 -41t-30.5 -29l-3 -15q-1 -10 10 -10h198q10 0 12 10l1 6q2 8 -17.5 33.5
t-16.5 44.5q0 3 15 83l17 10l41 -120q24 -70 80 -70q37 0 68 19.5t37 38.5zM999 141q1 4 -1.5 6t-5.5 1q-12 -3 -23 4.5t-19.5 25t-13.5 31t-11.5 36.5t-7.5 26q-16 46 -73 44q15 8 68 39q19 11 36.5 20.5t26 13.5t15 8t9 7.5t3.5 8.5l2 7q1 4 -2 7.5t-7 3.5h-99
q-12 0 -14 -10q-1 -2 -1.5 -4t-1.5 -7.5t1 -6.5q8 -9 9.5 -13.5t-3 -10.5t-18.5 -15l-64 -38l-40 -23q18 103 42 240q11 58 -1.5 70.5t-56.5 5.5q-67 -15 -103 -35q-8 -4 -9.5 -14t3.5 -16q2 -2 14.5 -7.5t19 -16t3.5 -30.5l-56 -318q-2 -16 -31 -41t-31 -29l-3 -15
q-1 -10 10 -10h197q12 0 14 10l1 6q1 8 -18 33.5t-16 44.5l1 10q2 10 6 31.5t7 41.5l18 10l40 -120q24 -70 80 -70q36 0 67 19.5t37 38.5z" />
    <glyph glyph-name="germandbls" unicode="&#xdf;" horiz-adv-x="1054" 
d="M143 705h1012l-124 -705h-1012zM542 141q0 9 -8 7q-12 -3 -23 4.5t-19.5 25t-13.5 31t-11.5 36.5t-7.5 26q-16 46 -72 44q15 8 39 22t29 17q19 11 36.5 20.5t26 13.5t15 8t9 7.5t3.5 8.5l1 7q1 4 -1.5 7.5t-7.5 3.5h-99q-5 0 -9.5 -3t-4.5 -7l-1 -18q10 -11 8.5 -19
t-21.5 -20l-64 -38l-40 -23q9 52 25.5 142t17.5 98q6 31 4.5 48.5t-9 24t-21 7t-32.5 -3.5q-65 -14 -104 -35q-8 -4 -9.5 -14t3.5 -16q2 -2 14.5 -7.5t19 -16t2.5 -30.5l-56 -318q-2 -16 -30.5 -41t-30.5 -29l-3 -15q-1 -10 10 -10h198q10 0 12 10l1 6q2 8 -17.5 33.5
t-16.5 44.5q0 3 15 83l17 10l41 -120q24 -70 80 -70q37 0 68 19.5t37 38.5zM998 141q1 4 -1.5 6t-5.5 1q-12 -3 -23 4.5t-19.5 25t-13.5 31t-11.5 36.5t-7.5 26q-16 46 -73 44q15 8 68 39q19 11 36.5 20.5t26 13.5t15 8t9 7.5t3.5 8.5l2 7q1 4 -2 7.5t-7 3.5h-99
q-12 0 -14 -10q-1 -2 -1.5 -4t-1.5 -7.5t1 -6.5q8 -9 9.5 -13.5t-3 -10.5t-18.5 -15l-64 -38l-40 -23q18 103 42 240q11 58 -1.5 70.5t-56.5 5.5q-67 -15 -103 -35q-8 -4 -9.5 -14t3.5 -16q2 -2 14.5 -7.5t19 -16t3.5 -30.5l-56 -318q-2 -16 -31 -41t-31 -29l-3 -15
q-1 -10 10 -10h197q12 0 14 10l1 6q1 8 -18 33.5t-16 44.5l2 10q1 10 5 31.5t7 41.5l18 10l40 -120q24 -70 80 -70q36 0 67 19.5t37 38.5z" />
    <glyph glyph-name="agrave" unicode="&#xe0;" horiz-adv-x="1049" 
d="M145 705h1012l-124 -705h-1012zM544 141q0 9 -8 7q-12 -3 -23 4.5t-19.5 25t-13.5 31t-11.5 36.5t-7.5 26q-16 46 -72 44q15 8 39 22t29 17q19 11 36.5 20.5t26 13.5t15 8t9 7.5t3.5 8.5l1 7q1 4 -1.5 7.5t-7.5 3.5h-99q-5 0 -9.5 -3t-4.5 -7l-1 -18q10 -11 8.5 -19
t-21.5 -20l-64 -38l-40 -23q9 52 25.5 142t17.5 98q6 31 4.5 48.5t-9 24t-21 7t-32.5 -3.5q-65 -14 -104 -35q-8 -4 -9.5 -14t3.5 -16q2 -2 14.5 -7.5t19 -16t2.5 -30.5l-56 -318q-2 -16 -30.5 -41t-30.5 -29l-3 -15q-1 -10 10 -10h198q10 0 12 10l1 6q2 8 -17.5 33.5
t-16.5 44.5q0 3 15 83l17 10l41 -120q24 -70 80 -70q37 0 68 19.5t37 38.5zM1000 141q1 4 -1.5 6t-5.5 1q-12 -3 -23 4.5t-19.5 25t-13.5 31t-11.5 36.5t-7.5 26q-16 46 -73 44q15 8 68 39q19 11 36.5 20.5t26 13.5t15 8t9 7.5t3.5 8.5l2 7q1 4 -2 7.5t-7 3.5h-99
q-12 0 -14 -10q-1 -2 -1.5 -4t-1.5 -7.5t1 -6.5q8 -9 9.5 -13.5t-3 -10.5t-18.5 -15l-64 -38l-40 -23q18 103 42 240q11 58 -1.5 70.5t-56.5 5.5q-67 -15 -103 -35q-8 -4 -9.5 -14t3.5 -16q2 -2 14.5 -7.5t19 -16t3.5 -30.5l-56 -318q-2 -16 -31 -41t-31 -29l-3 -15
q-1 -10 10 -10h197q12 0 14 10l1 6q1 8 -18 33.5t-16 44.5l2 10q1 10 5 31.5t7 41.5l18 10l40 -120q24 -70 80 -70q36 0 67 19.5t37 38.5z" />
    <glyph glyph-name="aacute" unicode="&#xe1;" horiz-adv-x="1049" 
d="M145 705h1012l-124 -705h-1012zM544 141q0 9 -8 7q-12 -3 -23 4.5t-19.5 25t-13.5 31t-11.5 36.5t-7.5 26q-16 46 -72 44q15 8 39 22t29 17q19 11 36.5 20.5t26 13.5t15 8t9 7.5t3.5 8.5l1 7q1 4 -1.5 7.5t-7.5 3.5h-99q-5 0 -9.5 -3t-4.5 -7l-1 -18q10 -11 8.5 -19
t-21.5 -20l-64 -38l-40 -23q9 52 25.5 142t17.5 98q6 31 4.5 48.5t-9 24t-21 7t-32.5 -3.5q-65 -14 -104 -35q-8 -4 -9.5 -14t3.5 -16q2 -2 14.5 -7.5t19 -16t2.5 -30.5l-56 -318q-2 -16 -30.5 -41t-30.5 -29l-3 -15q-1 -10 10 -10h198q10 0 12 10l1 6q2 8 -17.5 33.5
t-16.5 44.5q0 3 15 83l17 10l41 -120q24 -70 80 -70q37 0 68 19.5t37 38.5zM1000 141q1 4 -1.5 6t-5.5 1q-12 -3 -23 4.5t-19.5 25t-13.5 31t-11.5 36.5t-7.5 26q-16 46 -73 44q15 8 68 39q19 11 36.5 20.5t26 13.5t15 8t9 7.5t3.5 8.5l2 7q1 4 -2 7.5t-7 3.5h-99
q-12 0 -14 -10q-1 -2 -1.5 -4t-1.5 -7.5t1 -6.5q8 -9 9.5 -13.5t-3 -10.5t-18.5 -15l-64 -38l-40 -23q18 103 42 240q11 58 -1.5 70.5t-56.5 5.5q-67 -15 -103 -35q-8 -4 -9.5 -14t3.5 -16q2 -2 14.5 -7.5t19 -16t3.5 -30.5l-56 -318q-2 -16 -31 -41t-31 -29l-3 -15
q-1 -10 10 -10h197q12 0 14 10l1 6q1 8 -18 33.5t-16 44.5l2 10q1 10 5 31.5t7 41.5l18 10l40 -120q24 -70 80 -70q36 0 67 19.5t37 38.5z" />
    <glyph glyph-name="acircumflex" unicode="&#xe2;" horiz-adv-x="1049" 
d="M145 705h1012l-124 -705h-1012zM544 141q0 9 -8 7q-12 -3 -23 4.5t-19.5 25t-13.5 31t-11.5 36.5t-7.5 26q-16 46 -72 44q15 8 39 22t29 17q19 11 36.5 20.5t26 13.5t15 8t9 7.5t3.5 8.5l1 7q1 4 -1.5 7.5t-7.5 3.5h-99q-5 0 -9.5 -3t-4.5 -7l-1 -18q10 -11 8.5 -19
t-21.5 -20l-64 -38l-40 -23q9 52 25.5 142t17.5 98q6 31 4.5 48.5t-9 24t-21 7t-32.5 -3.5q-65 -14 -104 -35q-8 -4 -9.5 -14t3.5 -16q2 -2 14.5 -7.5t19 -16t2.5 -30.5l-56 -318q-2 -16 -30.5 -41t-30.5 -29l-3 -15q-1 -10 10 -10h198q10 0 12 10l1 6q2 8 -17.5 33.5
t-16.5 44.5q0 3 15 83l17 10l41 -120q24 -70 80 -70q37 0 68 19.5t37 38.5zM1000 141q1 4 -1.5 6t-5.5 1q-12 -3 -23 4.5t-19.5 25t-13.5 31t-11.5 36.5t-7.5 26q-16 46 -73 44q15 8 68 39q19 11 36.5 20.5t26 13.5t15 8t9 7.5t3.5 8.5l2 7q1 4 -2 7.5t-7 3.5h-99
q-12 0 -14 -10q-1 -2 -1.5 -4t-1.5 -7.5t1 -6.5q8 -9 9.5 -13.5t-3 -10.5t-18.5 -15l-64 -38l-40 -23q18 103 42 240q11 58 -1.5 70.5t-56.5 5.5q-67 -15 -103 -35q-8 -4 -9.5 -14t3.5 -16q2 -2 14.5 -7.5t19 -16t3.5 -30.5l-56 -318q-2 -16 -31 -41t-31 -29l-3 -15
q-1 -10 10 -10h197q12 0 14 10l1 6q1 8 -18 33.5t-16 44.5l2 10q1 10 5 31.5t7 41.5l18 10l40 -120q24 -70 80 -70q36 0 67 19.5t37 38.5z" />
    <glyph glyph-name="atilde" unicode="&#xe3;" horiz-adv-x="1049" 
d="M145 705h1012l-124 -705h-1012zM544 141q0 9 -8 7q-12 -3 -23 4.5t-19.5 25t-13.5 31t-11.5 36.5t-7.5 26q-16 46 -72 44q15 8 39 22t29 17q19 11 36.5 20.5t26 13.5t15 8t9 7.5t3.5 8.5l1 7q1 4 -1.5 7.5t-7.5 3.5h-99q-5 0 -9.5 -3t-4.5 -7l-1 -18q10 -11 8.5 -19
t-21.5 -20l-64 -38l-40 -23q9 52 25.5 142t17.5 98q6 31 4.5 48.5t-9 24t-21 7t-32.5 -3.5q-65 -14 -104 -35q-8 -4 -9.5 -14t3.5 -16q2 -2 14.5 -7.5t19 -16t2.5 -30.5l-56 -318q-2 -16 -30.5 -41t-30.5 -29l-3 -15q-1 -10 10 -10h198q10 0 12 10l1 6q2 8 -17.5 33.5
t-16.5 44.5q0 3 15 83l17 10l41 -120q24 -70 80 -70q37 0 68 19.5t37 38.5zM1000 141q1 4 -1.5 6t-5.5 1q-12 -3 -23 4.5t-19.5 25t-13.5 31t-11.5 36.5t-7.5 26q-16 46 -73 44q15 8 68 39q19 11 36.5 20.5t26 13.5t15 8t9 7.5t3.5 8.5l2 7q1 4 -2 7.5t-7 3.5h-99
q-12 0 -14 -10q-1 -2 -1.5 -4t-1.5 -7.5t1 -6.5q8 -9 9.5 -13.5t-3 -10.5t-18.5 -15l-64 -38l-40 -23q18 103 42 240q11 58 -1.5 70.5t-56.5 5.5q-67 -15 -103 -35q-8 -4 -9.5 -14t3.5 -16q2 -2 14.5 -7.5t19 -16t3.5 -30.5l-56 -318q-2 -16 -31 -41t-31 -29l-3 -15
q-1 -10 10 -10h197q12 0 14 10l1 6q1 8 -18 33.5t-16 44.5l2 10q1 10 5 31.5t7 41.5l18 10l40 -120q24 -70 80 -70q36 0 67 19.5t37 38.5z" />
    <glyph glyph-name="adieresis" unicode="&#xe4;" horiz-adv-x="1049" 
d="M145 705h1012l-124 -705h-1012zM544 141q0 9 -8 7q-12 -3 -23 4.5t-19.5 25t-13.5 31t-11.5 36.5t-7.5 26q-16 46 -72 44q15 8 39 22t29 17q19 11 36.5 20.5t26 13.5t15 8t9 7.5t3.5 8.5l1 7q1 4 -1.5 7.5t-7.5 3.5h-99q-5 0 -9.5 -3t-4.5 -7l-1 -18q10 -11 8.5 -19
t-21.5 -20l-64 -38l-40 -23q9 52 25.5 142t17.5 98q6 31 4.5 48.5t-9 24t-21 7t-32.5 -3.5q-65 -14 -104 -35q-8 -4 -9.5 -14t3.5 -16q2 -2 14.5 -7.5t19 -16t2.5 -30.5l-56 -318q-2 -16 -30.5 -41t-30.5 -29l-3 -15q-1 -10 10 -10h198q10 0 12 10l1 6q2 8 -17.5 33.5
t-16.5 44.5q0 3 15 83l17 10l41 -120q24 -70 80 -70q37 0 68 19.5t37 38.5zM1000 141q1 4 -1.5 6t-5.5 1q-12 -3 -23 4.5t-19.5 25t-13.5 31t-11.5 36.5t-7.5 26q-16 46 -73 44q15 8 68 39q19 11 36.5 20.5t26 13.5t15 8t9 7.5t3.5 8.5l2 7q1 4 -2 7.5t-7 3.5h-99
q-12 0 -14 -10q-1 -2 -1.5 -4t-1.5 -7.5t1 -6.5q8 -9 9.5 -13.5t-3 -10.5t-18.5 -15l-64 -38l-40 -23q18 103 42 240q11 58 -1.5 70.5t-56.5 5.5q-67 -15 -103 -35q-8 -4 -9.5 -14t3.5 -16q2 -2 14.5 -7.5t19 -16t3.5 -30.5l-56 -318q-2 -16 -31 -41t-31 -29l-3 -15
q-1 -10 10 -10h197q12 0 14 10l1 6q1 8 -18 33.5t-16 44.5l2 10q1 10 5 31.5t7 41.5l18 10l40 -120q24 -70 80 -70q36 0 67 19.5t37 38.5z" />
    <glyph glyph-name="aring" unicode="&#xe5;" horiz-adv-x="1049" 
d="M145 705h1012l-124 -705h-1012zM544 141q0 9 -8 7q-12 -3 -23 4.5t-19.5 25t-13.5 31t-11.5 36.5t-7.5 26q-16 46 -72 44q15 8 39 22t29 17q19 11 36.5 20.5t26 13.5t15 8t9 7.5t3.5 8.5l1 7q1 4 -1.5 7.5t-7.5 3.5h-99q-5 0 -9.5 -3t-4.5 -7l-1 -18q10 -11 8.5 -19
t-21.5 -20l-64 -38l-40 -23q9 52 25.5 142t17.5 98q6 31 4.5 48.5t-9 24t-21 7t-32.5 -3.5q-65 -14 -104 -35q-8 -4 -9.5 -14t3.5 -16q2 -2 14.5 -7.5t19 -16t2.5 -30.5l-56 -318q-2 -16 -30.5 -41t-30.5 -29l-3 -15q-1 -10 10 -10h198q10 0 12 10l1 6q2 8 -17.5 33.5
t-16.5 44.5q0 3 15 83l17 10l41 -120q24 -70 80 -70q37 0 68 19.5t37 38.5zM1000 141q1 4 -1.5 6t-5.5 1q-12 -3 -23 4.5t-19.5 25t-13.5 31t-11.5 36.5t-7.5 26q-16 46 -73 44q15 8 68 39q19 11 36.5 20.5t26 13.5t15 8t9 7.5t3.5 8.5l2 7q1 4 -2 7.5t-7 3.5h-99
q-12 0 -14 -10q-1 -2 -1.5 -4t-1.5 -7.5t1 -6.5q8 -9 9.5 -13.5t-3 -10.5t-18.5 -15l-64 -38l-40 -23q18 103 42 240q11 58 -1.5 70.5t-56.5 5.5q-67 -15 -103 -35q-8 -4 -9.5 -14t3.5 -16q2 -2 14.5 -7.5t19 -16t3.5 -30.5l-56 -318q-2 -16 -31 -41t-31 -29l-3 -15
q-1 -10 10 -10h197q12 0 14 10l1 6q1 8 -18 33.5t-16 44.5l2 10q1 10 5 31.5t7 41.5l18 10l40 -120q24 -70 80 -70q36 0 67 19.5t37 38.5z" />
    <glyph glyph-name="ae" unicode="&#xe6;" horiz-adv-x="1062" 
d="M145 705h1012l-124 -705h-1012zM544 141q0 9 -8 7q-12 -3 -23 4.5t-19.5 25t-13.5 31t-11.5 36.5t-7.5 26q-16 46 -72 44q15 8 39 22t29 17q19 11 36.5 20.5t26 13.5t15 8t9 7.5t3.5 8.5l1 7q1 4 -1.5 7.5t-7.5 3.5h-99q-5 0 -9.5 -3t-4.5 -7l-1 -18q10 -11 8.5 -19
t-21.5 -20l-64 -38l-40 -23q9 52 25.5 142t17.5 98q6 31 4.5 48.5t-9 24t-21 7t-32.5 -3.5q-65 -14 -104 -35q-8 -4 -9.5 -14t3.5 -16q2 -2 14.5 -7.5t19 -16t2.5 -30.5l-56 -318q-2 -16 -30.5 -41t-30.5 -29l-3 -15q-1 -10 10 -10h198q10 0 12 10l1 6q2 8 -17.5 33.5
t-16.5 44.5q0 3 15 83l17 10l41 -120q24 -70 80 -70q37 0 68 19.5t37 38.5zM1000 141q1 4 -1.5 6t-5.5 1q-12 -3 -23 4.5t-19.5 25t-13.5 31t-11.5 36.5t-7.5 26q-16 46 -73 44q15 8 68 39q19 11 36.5 20.5t26 13.5t15 8t9 7.5t3.5 8.5l2 7q1 4 -2 7.5t-7 3.5h-99
q-12 0 -14 -10q-1 -2 -1.5 -4t-1.5 -7.5t1 -6.5q8 -9 9.5 -13.5t-3 -10.5t-18.5 -15l-64 -38l-40 -23q18 103 42 240q11 58 -1.5 70.5t-56.5 5.5q-67 -15 -103 -35q-8 -4 -9.5 -14t3.5 -16q2 -2 14.5 -7.5t19 -16t3.5 -30.5l-56 -318q-2 -16 -31 -41t-31 -29l-3 -15
q-1 -10 10 -10h197q12 0 14 10l1 6q1 8 -18 33.5t-16 44.5l2 10q1 10 5 31.5t7 41.5l18 10l40 -120q24 -70 80 -70q36 0 67 19.5t37 38.5z" />
    <glyph glyph-name="ccedilla" unicode="&#xe7;" horiz-adv-x="1052" 
d="M135 705h1012l-124 -705h-1012zM534 141q0 9 -8 7q-12 -3 -23 4.5t-19.5 25t-13.5 31t-11.5 36.5t-7.5 26q-16 46 -72 44q15 8 39 22t29 17q19 11 36.5 20.5t26 13.5t15 8t9 7.5t3.5 8.5l1 7q1 4 -1.5 7.5t-7.5 3.5h-99q-5 0 -9.5 -3t-4.5 -7l-1 -18q10 -11 8.5 -19
t-21.5 -20l-64 -38l-40 -23q9 52 25.5 142t17.5 98q6 31 4.5 48.5t-9 24t-21 7t-32.5 -3.5q-65 -14 -104 -35q-8 -4 -9.5 -14t3.5 -16q2 -2 14.5 -7.5t19 -16t2.5 -30.5l-56 -318q-2 -16 -30.5 -41t-30.5 -29l-3 -15q-1 -10 10 -10h198q10 0 12 10l1 6q2 8 -17.5 33.5
t-16.5 44.5q0 3 15 83l17 10l41 -120q24 -70 80 -70q37 0 68 19.5t37 38.5zM990 141q1 4 -1.5 6t-5.5 1q-12 -3 -23 4.5t-19.5 25t-13.5 31t-11.5 36.5t-7.5 26q-16 46 -73 44q15 8 68 39q19 11 36.5 20.5t26 13.5t15 8t9 7.5t3.5 8.5l2 7q1 4 -2 7.5t-7 3.5h-99
q-12 0 -14 -10q-1 -2 -1.5 -4t-1.5 -7.5t1 -6.5q8 -9 9.5 -13.5t-3 -10.5t-18.5 -15l-64 -38l-40 -23q18 103 42 240q11 58 -1.5 70.5t-56.5 5.5q-67 -15 -103 -35q-8 -4 -9.5 -14t3.5 -16q2 -2 14.5 -7.5t19 -16t3.5 -30.5l-56 -318q-2 -16 -31 -41t-31 -29l-3 -15
q-1 -10 10 -10h197q12 0 14 10l1 6q1 8 -18 33.5t-16 44.5l2 10q1 10 5 31.5t7 41.5l18 10l40 -120q24 -70 80 -70q36 0 67 19.5t37 38.5z" />
    <glyph glyph-name="egrave" unicode="&#xe8;" horiz-adv-x="1052" 
d="M135 705h1012l-124 -705h-1012zM534 141q0 9 -8 7q-12 -3 -23 4.5t-19.5 25t-13.5 31t-11.5 36.5t-7.5 26q-16 46 -72 44q15 8 39 22t29 17q19 11 36.5 20.5t26 13.5t15 8t9 7.5t3.5 8.5l1 7q1 4 -1.5 7.5t-7.5 3.5h-99q-5 0 -9.5 -3t-4.5 -7l-1 -18q10 -11 8.5 -19
t-21.5 -20l-64 -38l-40 -23q9 52 25.5 142t17.5 98q6 31 4.5 48.5t-9 24t-21 7t-32.5 -3.5q-65 -14 -104 -35q-8 -4 -9.5 -14t3.5 -16q2 -2 14.5 -7.5t19 -16t2.5 -30.5l-56 -318q-2 -16 -30.5 -41t-30.5 -29l-3 -15q-1 -10 10 -10h198q10 0 12 10l1 6q2 8 -17.5 33.5
t-16.5 44.5q0 3 15 83l17 10l41 -120q24 -70 80 -70q37 0 68 19.5t37 38.5zM990 141q1 4 -1.5 6t-5.5 1q-12 -3 -23 4.5t-19.5 25t-13.5 31t-11.5 36.5t-7.5 26q-16 46 -73 44q15 8 68 39q19 11 36.5 20.5t26 13.5t15 8t9 7.5t3.5 8.5l2 7q1 4 -2 7.5t-7 3.5h-99
q-12 0 -14 -10q-1 -2 -1.5 -4t-1.5 -7.5t1 -6.5q8 -9 9.5 -13.5t-3 -10.5t-18.5 -15l-64 -38l-40 -23q18 103 42 240q11 58 -1.5 70.5t-56.5 5.5q-67 -15 -103 -35q-8 -4 -9.5 -14t3.5 -16q2 -2 14.5 -7.5t19 -16t3.5 -30.5l-56 -318q-2 -16 -31 -41t-31 -29l-3 -15
q-1 -10 10 -10h197q12 0 14 10l1 6q1 8 -18 33.5t-16 44.5l2 10q1 10 5 31.5t7 41.5l18 10l40 -120q24 -70 80 -70q36 0 67 19.5t37 38.5z" />
    <glyph glyph-name="eacute" unicode="&#xe9;" horiz-adv-x="1052" 
d="M135 705h1012l-124 -705h-1012zM534 141q0 9 -8 7q-12 -3 -23 4.5t-19.5 25t-13.5 31t-11.5 36.5t-7.5 26q-16 46 -72 44q15 8 39 22t29 17q19 11 36.5 20.5t26 13.5t15 8t9 7.5t3.5 8.5l1 7q1 4 -1.5 7.5t-7.5 3.5h-99q-5 0 -9.5 -3t-4.5 -7l-1 -18q10 -11 8.5 -19
t-21.5 -20l-64 -38l-40 -23q9 52 25.5 142t17.5 98q6 31 4.5 48.5t-9 24t-21 7t-32.5 -3.5q-65 -14 -104 -35q-8 -4 -9.5 -14t3.5 -16q2 -2 14.5 -7.5t19 -16t2.5 -30.5l-56 -318q-2 -16 -30.5 -41t-30.5 -29l-3 -15q-1 -10 10 -10h198q10 0 12 10l1 6q2 8 -17.5 33.5
t-16.5 44.5q0 3 15 83l17 10l41 -120q24 -70 80 -70q37 0 68 19.5t37 38.5zM990 141q1 4 -1.5 6t-5.5 1q-12 -3 -23 4.5t-19.5 25t-13.5 31t-11.5 36.5t-7.5 26q-16 46 -73 44q15 8 68 39q19 11 36.5 20.5t26 13.5t15 8t9 7.5t3.5 8.5l2 7q1 4 -2 7.5t-7 3.5h-99
q-12 0 -14 -10q-1 -2 -1.5 -4t-1.5 -7.5t1 -6.5q8 -9 9.5 -13.5t-3 -10.5t-18.5 -15l-64 -38l-40 -23q18 103 42 240q11 58 -1.5 70.5t-56.5 5.5q-67 -15 -103 -35q-8 -4 -9.5 -14t3.5 -16q2 -2 14.5 -7.5t19 -16t3.5 -30.5l-56 -318q-2 -16 -31 -41t-31 -29l-3 -15
q-1 -10 10 -10h197q12 0 14 10l1 6q1 8 -18 33.5t-16 44.5l2 10q1 10 5 31.5t7 41.5l18 10l40 -120q24 -70 80 -70q36 0 67 19.5t37 38.5z" />
    <glyph glyph-name="ecircumflex" unicode="&#xea;" horiz-adv-x="1052" 
d="M135 705h1012l-124 -705h-1012zM534 141q0 9 -8 7q-12 -3 -23 4.5t-19.5 25t-13.5 31t-11.5 36.5t-7.5 26q-16 46 -72 44q15 8 39 22t29 17q19 11 36.5 20.5t26 13.5t15 8t9 7.5t3.5 8.5l1 7q1 4 -1.5 7.5t-7.5 3.5h-99q-5 0 -9.5 -3t-4.5 -7l-1 -18q10 -11 8.5 -19
t-21.5 -20l-64 -38l-40 -23q9 52 25.5 142t17.5 98q6 31 4.5 48.5t-9 24t-21 7t-32.5 -3.5q-65 -14 -104 -35q-8 -4 -9.5 -14t3.5 -16q2 -2 14.5 -7.5t19 -16t2.5 -30.5l-56 -318q-2 -16 -30.5 -41t-30.5 -29l-3 -15q-1 -10 10 -10h198q10 0 12 10l1 6q2 8 -17.5 33.5
t-16.5 44.5q0 3 15 83l17 10l41 -120q24 -70 80 -70q37 0 68 19.5t37 38.5zM990 141q1 4 -1.5 6t-5.5 1q-12 -3 -23 4.5t-19.5 25t-13.5 31t-11.5 36.5t-7.5 26q-16 46 -73 44q15 8 68 39q19 11 36.5 20.5t26 13.5t15 8t9 7.5t3.5 8.5l2 7q1 4 -2 7.5t-7 3.5h-99
q-12 0 -14 -10q-1 -2 -1.5 -4t-1.5 -7.5t1 -6.5q8 -9 9.5 -13.5t-3 -10.5t-18.5 -15l-64 -38l-40 -23q18 103 42 240q11 58 -1.5 70.5t-56.5 5.5q-67 -15 -103 -35q-8 -4 -9.5 -14t3.5 -16q2 -2 14.5 -7.5t19 -16t3.5 -30.5l-56 -318q-2 -16 -31 -41t-31 -29l-3 -15
q-1 -10 10 -10h197q12 0 14 10l1 6q1 8 -18 33.5t-16 44.5l2 10q1 10 5 31.5t7 41.5l18 10l40 -120q24 -70 80 -70q36 0 67 19.5t37 38.5z" />
    <glyph glyph-name="edieresis" unicode="&#xeb;" horiz-adv-x="1052" 
d="M135 705h1012l-124 -705h-1012zM534 141q0 9 -8 7q-12 -3 -23 4.5t-19.5 25t-13.5 31t-11.5 36.5t-7.5 26q-16 46 -72 44q15 8 39 22t29 17q19 11 36.5 20.5t26 13.5t15 8t9 7.5t3.5 8.5l1 7q1 4 -1.5 7.5t-7.5 3.5h-99q-5 0 -9.5 -3t-4.5 -7l-1 -18q10 -11 8.5 -19
t-21.5 -20l-64 -38l-40 -23q9 52 25.5 142t17.5 98q6 31 4.5 48.5t-9 24t-21 7t-32.5 -3.5q-65 -14 -104 -35q-8 -4 -9.5 -14t3.5 -16q2 -2 14.5 -7.5t19 -16t2.5 -30.5l-56 -318q-2 -16 -30.5 -41t-30.5 -29l-3 -15q-1 -10 10 -10h198q10 0 12 10l1 6q2 8 -17.5 33.5
t-16.5 44.5q0 3 15 83l17 10l41 -120q24 -70 80 -70q37 0 68 19.5t37 38.5zM990 141q1 4 -1.5 6t-5.5 1q-12 -3 -23 4.5t-19.5 25t-13.5 31t-11.5 36.5t-7.5 26q-16 46 -73 44q15 8 68 39q19 11 36.5 20.5t26 13.5t15 8t9 7.5t3.5 8.5l2 7q1 4 -2 7.5t-7 3.5h-99
q-12 0 -14 -10q-1 -2 -1.5 -4t-1.5 -7.5t1 -6.5q8 -9 9.5 -13.5t-3 -10.5t-18.5 -15l-64 -38l-40 -23q18 103 42 240q11 58 -1.5 70.5t-56.5 5.5q-67 -15 -103 -35q-8 -4 -9.5 -14t3.5 -16q2 -2 14.5 -7.5t19 -16t3.5 -30.5l-56 -318q-2 -16 -31 -41t-31 -29l-3 -15
q-1 -10 10 -10h197q12 0 14 10l1 6q1 8 -18 33.5t-16 44.5l2 10q1 10 5 31.5t7 41.5l18 10l40 -120q24 -70 80 -70q36 0 67 19.5t37 38.5z" />
    <glyph glyph-name="igrave" unicode="&#xec;" horiz-adv-x="1030" 
d="M128 705h1012l-124 -705h-1012zM527 141q0 9 -8 7q-12 -3 -23 4.5t-19.5 25t-13.5 31t-11.5 36.5t-7.5 26q-16 46 -72 44q15 8 39 22t29 17q19 11 36.5 20.5t26 13.5t15 8t9 7.5t3.5 8.5l1 7q1 4 -1.5 7.5t-7.5 3.5h-99q-5 0 -9.5 -3t-4.5 -7l-1 -18q10 -11 8.5 -19
t-21.5 -20l-64 -38l-40 -23q9 52 25.5 142t17.5 98q6 31 4.5 48.5t-9 24t-21 7t-32.5 -3.5q-65 -14 -104 -35q-8 -4 -9.5 -14t3.5 -16q2 -2 14.5 -7.5t19 -16t2.5 -30.5l-56 -318q-2 -16 -30.5 -41t-30.5 -29l-3 -15q-1 -10 10 -10h198q10 0 12 10l1 6q2 8 -17.5 33.5
t-16.5 44.5q0 3 15 83l17 10l41 -120q24 -70 80 -70q37 0 68 19.5t37 38.5zM983 141q1 4 -1.5 6t-5.5 1q-12 -3 -23 4.5t-19.5 25t-13.5 31t-11.5 36.5t-7.5 26q-16 46 -73 44q15 8 68 39q19 11 36.5 20.5t26 13.5t15 8t9 7.5t3.5 8.5l2 7q1 4 -2 7.5t-7 3.5h-99
q-12 0 -14 -10q-1 -2 -1.5 -4t-1.5 -7.5t1 -6.5q8 -9 9.5 -13.5t-3 -10.5t-18.5 -15l-64 -38l-40 -23q18 103 42 240q11 58 -1.5 70.5t-56.5 5.5q-67 -15 -103 -35q-8 -4 -9.5 -14t3.5 -16q2 -2 14.5 -7.5t19 -16t3.5 -30.5l-56 -318q-2 -16 -31 -41t-31 -29l-3 -15
q-1 -10 10 -10h197q12 0 14 10l1 6q1 8 -18 33.5t-16 44.5l1 10q2 10 6 31.5t7 41.5l18 10l40 -120q24 -70 80 -70q36 0 67 19.5t37 38.5z" />
    <glyph glyph-name="iacute" unicode="&#xed;" horiz-adv-x="1030" 
d="M128 705h1012l-124 -705h-1012zM527 141q0 9 -8 7q-12 -3 -23 4.5t-19.5 25t-13.5 31t-11.5 36.5t-7.5 26q-16 46 -72 44q15 8 39 22t29 17q19 11 36.5 20.5t26 13.5t15 8t9 7.5t3.5 8.5l1 7q1 4 -1.5 7.5t-7.5 3.5h-99q-5 0 -9.5 -3t-4.5 -7l-1 -18q10 -11 8.5 -19
t-21.5 -20l-64 -38l-40 -23q9 52 25.5 142t17.5 98q6 31 4.5 48.5t-9 24t-21 7t-32.5 -3.5q-65 -14 -104 -35q-8 -4 -9.5 -14t3.5 -16q2 -2 14.5 -7.5t19 -16t2.5 -30.5l-56 -318q-2 -16 -30.5 -41t-30.5 -29l-3 -15q-1 -10 10 -10h198q10 0 12 10l1 6q2 8 -17.5 33.5
t-16.5 44.5q0 3 15 83l17 10l41 -120q24 -70 80 -70q37 0 68 19.5t37 38.5zM983 141q1 4 -1.5 6t-5.5 1q-12 -3 -23 4.5t-19.5 25t-13.5 31t-11.5 36.5t-7.5 26q-16 46 -73 44q15 8 68 39q19 11 36.5 20.5t26 13.5t15 8t9 7.5t3.5 8.5l2 7q1 4 -2 7.5t-7 3.5h-99
q-12 0 -14 -10q-1 -2 -1.5 -4t-1.5 -7.5t1 -6.5q8 -9 9.5 -13.5t-3 -10.5t-18.5 -15l-64 -38l-40 -23q18 103 42 240q11 58 -1.5 70.5t-56.5 5.5q-67 -15 -103 -35q-8 -4 -9.5 -14t3.5 -16q2 -2 14.5 -7.5t19 -16t3.5 -30.5l-56 -318q-2 -16 -31 -41t-31 -29l-3 -15
q-1 -10 10 -10h197q12 0 14 10l1 6q1 8 -18 33.5t-16 44.5l1 10q2 10 6 31.5t7 41.5l18 10l40 -120q24 -70 80 -70q36 0 67 19.5t37 38.5z" />
    <glyph glyph-name="icircumflex" unicode="&#xee;" horiz-adv-x="1030" 
d="M128 705h1012l-124 -705h-1012zM527 141q0 9 -8 7q-12 -3 -23 4.5t-19.5 25t-13.5 31t-11.5 36.5t-7.5 26q-16 46 -72 44q15 8 39 22t29 17q19 11 36.5 20.5t26 13.5t15 8t9 7.5t3.5 8.5l1 7q1 4 -1.5 7.5t-7.5 3.5h-99q-5 0 -9.5 -3t-4.5 -7l-1 -18q10 -11 8.5 -19
t-21.5 -20l-64 -38l-40 -23q9 52 25.5 142t17.5 98q6 31 4.5 48.5t-9 24t-21 7t-32.5 -3.5q-65 -14 -104 -35q-8 -4 -9.5 -14t3.5 -16q2 -2 14.5 -7.5t19 -16t2.5 -30.5l-56 -318q-2 -16 -30.5 -41t-30.5 -29l-3 -15q-1 -10 10 -10h198q10 0 12 10l1 6q2 8 -17.5 33.5
t-16.5 44.5q0 3 15 83l17 10l41 -120q24 -70 80 -70q37 0 68 19.5t37 38.5zM983 141q1 4 -1.5 6t-5.5 1q-12 -3 -23 4.5t-19.5 25t-13.5 31t-11.5 36.5t-7.5 26q-16 46 -73 44q15 8 68 39q19 11 36.5 20.5t26 13.5t15 8t9 7.5t3.5 8.5l2 7q1 4 -2 7.5t-7 3.5h-99
q-12 0 -14 -10q-1 -2 -1.5 -4t-1.5 -7.5t1 -6.5q8 -9 9.5 -13.5t-3 -10.5t-18.5 -15l-64 -38l-40 -23q18 103 42 240q11 58 -1.5 70.5t-56.5 5.5q-67 -15 -103 -35q-8 -4 -9.5 -14t3.5 -16q2 -2 14.5 -7.5t19 -16t3.5 -30.5l-56 -318q-2 -16 -31 -41t-31 -29l-3 -15
q-1 -10 10 -10h197q12 0 14 10l1 6q1 8 -18 33.5t-16 44.5l1 10q2 10 6 31.5t7 41.5l18 10l40 -120q24 -70 80 -70q36 0 67 19.5t37 38.5z" />
    <glyph glyph-name="idieresis" unicode="&#xef;" horiz-adv-x="1030" 
d="M128 705h1012l-124 -705h-1012zM527 141q0 9 -8 7q-12 -3 -23 4.5t-19.5 25t-13.5 31t-11.5 36.5t-7.5 26q-16 46 -72 44q15 8 39 22t29 17q19 11 36.5 20.5t26 13.5t15 8t9 7.5t3.5 8.5l1 7q1 4 -1.5 7.5t-7.5 3.5h-99q-5 0 -9.5 -3t-4.5 -7l-1 -18q10 -11 8.5 -19
t-21.5 -20l-64 -38l-40 -23q9 52 25.5 142t17.5 98q6 31 4.5 48.5t-9 24t-21 7t-32.5 -3.5q-65 -14 -104 -35q-8 -4 -9.5 -14t3.5 -16q2 -2 14.5 -7.5t19 -16t2.5 -30.5l-56 -318q-2 -16 -30.5 -41t-30.5 -29l-3 -15q-1 -10 10 -10h198q10 0 12 10l1 6q2 8 -17.5 33.5
t-16.5 44.5q0 3 15 83l17 10l41 -120q24 -70 80 -70q37 0 68 19.5t37 38.5zM983 141q1 4 -1.5 6t-5.5 1q-12 -3 -23 4.5t-19.5 25t-13.5 31t-11.5 36.5t-7.5 26q-16 46 -73 44q15 8 68 39q19 11 36.5 20.5t26 13.5t15 8t9 7.5t3.5 8.5l2 7q1 4 -2 7.5t-7 3.5h-99
q-12 0 -14 -10q-1 -2 -1.5 -4t-1.5 -7.5t1 -6.5q8 -9 9.5 -13.5t-3 -10.5t-18.5 -15l-64 -38l-40 -23q18 103 42 240q11 58 -1.5 70.5t-56.5 5.5q-67 -15 -103 -35q-8 -4 -9.5 -14t3.5 -16q2 -2 14.5 -7.5t19 -16t3.5 -30.5l-56 -318q-2 -16 -31 -41t-31 -29l-3 -15
q-1 -10 10 -10h197q12 0 14 10l1 6q1 8 -18 33.5t-16 44.5l1 10q2 10 6 31.5t7 41.5l18 10l40 -120q24 -70 80 -70q36 0 67 19.5t37 38.5z" />
    <glyph glyph-name="eth" unicode="&#xf0;" horiz-adv-x="1055" 
d="M135 705h1012l-124 -705h-1012zM534 141q0 9 -8 7q-12 -3 -23 4.5t-19.5 25t-13.5 31t-11.5 36.5t-7.5 26q-16 46 -72 44q15 8 39 22t29 17q19 11 36.5 20.5t26 13.5t15 8t9 7.5t3.5 8.5l1 7q1 4 -1.5 7.5t-7.5 3.5h-99q-5 0 -9.5 -3t-4.5 -7l-1 -18q10 -11 8.5 -19
t-21.5 -20l-64 -38l-40 -23q9 52 25.5 142t17.5 98q6 31 4.5 48.5t-9 24t-21 7t-32.5 -3.5q-65 -14 -104 -35q-8 -4 -9.5 -14t3.5 -16q2 -2 14.5 -7.5t19 -16t2.5 -30.5l-56 -318q-2 -16 -30.5 -41t-30.5 -29l-3 -15q-1 -10 10 -10h198q10 0 12 10l1 6q2 8 -17.5 33.5
t-16.5 44.5q0 3 15 83l17 10l41 -120q24 -70 80 -70q37 0 68 19.5t37 38.5zM990 141q1 4 -1.5 6t-5.5 1q-12 -3 -23 4.5t-19.5 25t-13.5 31t-11.5 36.5t-7.5 26q-16 46 -73 44q15 8 68 39q19 11 36.5 20.5t26 13.5t15 8t9 7.5t3.5 8.5l2 7q1 4 -2 7.5t-7 3.5h-99
q-12 0 -14 -10q-1 -2 -1.5 -4t-1.5 -7.5t1 -6.5q8 -9 9.5 -13.5t-3 -10.5t-18.5 -15l-64 -38l-40 -23q18 103 42 240q11 58 -1.5 70.5t-56.5 5.5q-67 -15 -103 -35q-8 -4 -9.5 -14t3.5 -16q2 -2 14.5 -7.5t19 -16t3.5 -30.5l-56 -318q-2 -16 -31 -41t-31 -29l-3 -15
q-1 -10 10 -10h197q12 0 14 10l1 6q1 8 -18 33.5t-16 44.5l2 10q1 10 5 31.5t7 41.5l18 10l40 -120q24 -70 80 -70q36 0 67 19.5t37 38.5z" />
    <glyph glyph-name="ntilde" unicode="&#xf1;" horiz-adv-x="1031" 
d="M129 705h1012l-124 -705h-1012zM528 141q0 9 -8 7q-12 -3 -23 4.5t-19.5 25t-13.5 31t-11.5 36.5t-7.5 26q-16 46 -72 44q15 8 39 22t29 17q19 11 36.5 20.5t26 13.5t15 8t9 7.5t3.5 8.5l1 7q1 4 -1.5 7.5t-7.5 3.5h-99q-5 0 -9.5 -3t-4.5 -7l-1 -18q10 -11 8.5 -19
t-21.5 -20l-64 -38l-40 -23q9 52 25.5 142t17.5 98q6 31 4.5 48.5t-9 24t-21 7t-32.5 -3.5q-65 -14 -104 -35q-8 -4 -9.5 -14t3.5 -16q2 -2 14.5 -7.5t19 -16t2.5 -30.5l-56 -318q-2 -16 -30.5 -41t-30.5 -29l-3 -15q-1 -10 10 -10h198q10 0 12 10l1 6q2 8 -17.5 33.5
t-16.5 44.5q0 3 15 83l17 10l41 -120q24 -70 80 -70q37 0 68 19.5t37 38.5zM984 141q1 4 -1.5 6t-5.5 1q-12 -3 -23 4.5t-19.5 25t-13.5 31t-11.5 36.5t-7.5 26q-16 46 -73 44q15 8 68 39q19 11 36.5 20.5t26 13.5t15 8t9 7.5t3.5 8.5l2 7q1 4 -2 7.5t-7 3.5h-99
q-12 0 -14 -10q-1 -2 -1.5 -4t-1.5 -7.5t1 -6.5q8 -9 9.5 -13.5t-3 -10.5t-18.5 -15l-64 -38l-40 -23q18 103 42 240q11 58 -1.5 70.5t-56.5 5.5q-67 -15 -103 -35q-8 -4 -9.5 -14t3.5 -16q2 -2 14.5 -7.5t19 -16t3.5 -30.5l-56 -318q-2 -16 -31 -41t-31 -29l-3 -15
q-1 -10 10 -10h197q12 0 14 10l1 6q1 8 -18 33.5t-16 44.5l2 10q1 10 5 31.5t7 41.5l18 10l40 -120q24 -70 80 -70q36 0 67 19.5t37 38.5z" />
    <glyph glyph-name="ograve" unicode="&#xf2;" horiz-adv-x="1055" 
d="M135 705h1012l-124 -705h-1012zM534 141q0 9 -8 7q-12 -3 -23 4.5t-19.5 25t-13.5 31t-11.5 36.5t-7.5 26q-16 46 -72 44q15 8 39 22t29 17q19 11 36.5 20.5t26 13.5t15 8t9 7.5t3.5 8.5l1 7q1 4 -1.5 7.5t-7.5 3.5h-99q-5 0 -9.5 -3t-4.5 -7l-1 -18q10 -11 8.5 -19
t-21.5 -20l-64 -38l-40 -23q9 52 25.5 142t17.5 98q6 31 4.5 48.5t-9 24t-21 7t-32.5 -3.5q-65 -14 -104 -35q-8 -4 -9.5 -14t3.5 -16q2 -2 14.5 -7.5t19 -16t2.5 -30.5l-56 -318q-2 -16 -30.5 -41t-30.5 -29l-3 -15q-1 -10 10 -10h198q10 0 12 10l1 6q2 8 -17.5 33.5
t-16.5 44.5q0 3 15 83l17 10l41 -120q24 -70 80 -70q37 0 68 19.5t37 38.5zM990 141q1 4 -1.5 6t-5.5 1q-12 -3 -23 4.5t-19.5 25t-13.5 31t-11.5 36.5t-7.5 26q-16 46 -73 44q15 8 68 39q19 11 36.5 20.5t26 13.5t15 8t9 7.5t3.5 8.5l2 7q1 4 -2 7.5t-7 3.5h-99
q-12 0 -14 -10q-1 -2 -1.5 -4t-1.5 -7.5t1 -6.5q8 -9 9.5 -13.5t-3 -10.5t-18.5 -15l-64 -38l-40 -23q18 103 42 240q11 58 -1.5 70.5t-56.5 5.5q-67 -15 -103 -35q-8 -4 -9.5 -14t3.5 -16q2 -2 14.5 -7.5t19 -16t3.5 -30.5l-56 -318q-2 -16 -31 -41t-31 -29l-3 -15
q-1 -10 10 -10h197q12 0 14 10l1 6q1 8 -18 33.5t-16 44.5l2 10q1 10 5 31.5t7 41.5l18 10l40 -120q24 -70 80 -70q36 0 67 19.5t37 38.5z" />
    <glyph glyph-name="oacute" unicode="&#xf3;" horiz-adv-x="1055" 
d="M135 705h1012l-124 -705h-1012zM534 141q0 9 -8 7q-12 -3 -23 4.5t-19.5 25t-13.5 31t-11.5 36.5t-7.5 26q-16 46 -72 44q15 8 39 22t29 17q19 11 36.5 20.5t26 13.5t15 8t9 7.5t3.5 8.5l1 7q1 4 -1.5 7.5t-7.5 3.5h-99q-5 0 -9.5 -3t-4.5 -7l-1 -18q10 -11 8.5 -19
t-21.5 -20l-64 -38l-40 -23q9 52 25.5 142t17.5 98q6 31 4.5 48.5t-9 24t-21 7t-32.5 -3.5q-65 -14 -104 -35q-8 -4 -9.5 -14t3.5 -16q2 -2 14.5 -7.5t19 -16t2.5 -30.5l-56 -318q-2 -16 -30.5 -41t-30.5 -29l-3 -15q-1 -10 10 -10h198q10 0 12 10l1 6q2 8 -17.5 33.5
t-16.5 44.5q0 3 15 83l17 10l41 -120q24 -70 80 -70q37 0 68 19.5t37 38.5zM990 141q1 4 -1.5 6t-5.5 1q-12 -3 -23 4.5t-19.5 25t-13.5 31t-11.5 36.5t-7.5 26q-16 46 -73 44q15 8 68 39q19 11 36.5 20.5t26 13.5t15 8t9 7.5t3.5 8.5l2 7q1 4 -2 7.5t-7 3.5h-99
q-12 0 -14 -10q-1 -2 -1.5 -4t-1.5 -7.5t1 -6.5q8 -9 9.5 -13.5t-3 -10.5t-18.5 -15l-64 -38l-40 -23q18 103 42 240q11 58 -1.5 70.5t-56.5 5.5q-67 -15 -103 -35q-8 -4 -9.5 -14t3.5 -16q2 -2 14.5 -7.5t19 -16t3.5 -30.5l-56 -318q-2 -16 -31 -41t-31 -29l-3 -15
q-1 -10 10 -10h197q12 0 14 10l1 6q1 8 -18 33.5t-16 44.5l2 10q1 10 5 31.5t7 41.5l18 10l40 -120q24 -70 80 -70q36 0 67 19.5t37 38.5z" />
    <glyph glyph-name="ocircumflex" unicode="&#xf4;" horiz-adv-x="1055" 
d="M135 705h1012l-124 -705h-1012zM534 141q0 9 -8 7q-12 -3 -23 4.5t-19.5 25t-13.5 31t-11.5 36.5t-7.5 26q-16 46 -72 44q15 8 39 22t29 17q19 11 36.5 20.5t26 13.5t15 8t9 7.5t3.5 8.5l1 7q1 4 -1.5 7.5t-7.5 3.5h-99q-5 0 -9.5 -3t-4.5 -7l-1 -18q10 -11 8.5 -19
t-21.5 -20l-64 -38l-40 -23q9 52 25.5 142t17.5 98q6 31 4.5 48.5t-9 24t-21 7t-32.5 -3.5q-65 -14 -104 -35q-8 -4 -9.5 -14t3.5 -16q2 -2 14.5 -7.5t19 -16t2.5 -30.5l-56 -318q-2 -16 -30.5 -41t-30.5 -29l-3 -15q-1 -10 10 -10h198q10 0 12 10l1 6q2 8 -17.5 33.5
t-16.5 44.5q0 3 15 83l17 10l41 -120q24 -70 80 -70q37 0 68 19.5t37 38.5zM990 141q1 4 -1.5 6t-5.5 1q-12 -3 -23 4.5t-19.5 25t-13.5 31t-11.5 36.5t-7.5 26q-16 46 -73 44q15 8 68 39q19 11 36.5 20.5t26 13.5t15 8t9 7.5t3.5 8.5l2 7q1 4 -2 7.5t-7 3.5h-99
q-12 0 -14 -10q-1 -2 -1.5 -4t-1.5 -7.5t1 -6.5q8 -9 9.5 -13.5t-3 -10.5t-18.5 -15l-64 -38l-40 -23q18 103 42 240q11 58 -1.5 70.5t-56.5 5.5q-67 -15 -103 -35q-8 -4 -9.5 -14t3.5 -16q2 -2 14.5 -7.5t19 -16t3.5 -30.5l-56 -318q-2 -16 -31 -41t-31 -29l-3 -15
q-1 -10 10 -10h197q12 0 14 10l1 6q1 8 -18 33.5t-16 44.5l2 10q1 10 5 31.5t7 41.5l18 10l40 -120q24 -70 80 -70q36 0 67 19.5t37 38.5z" />
    <glyph glyph-name="otilde" unicode="&#xf5;" horiz-adv-x="1055" 
d="M135 705h1012l-124 -705h-1012zM534 141q0 9 -8 7q-12 -3 -23 4.5t-19.5 25t-13.5 31t-11.5 36.5t-7.5 26q-16 46 -72 44q15 8 39 22t29 17q19 11 36.5 20.5t26 13.5t15 8t9 7.5t3.5 8.5l1 7q1 4 -1.5 7.5t-7.5 3.5h-99q-5 0 -9.5 -3t-4.5 -7l-1 -18q10 -11 8.5 -19
t-21.5 -20l-64 -38l-40 -23q9 52 25.5 142t17.5 98q6 31 4.5 48.5t-9 24t-21 7t-32.5 -3.5q-65 -14 -104 -35q-8 -4 -9.5 -14t3.5 -16q2 -2 14.5 -7.5t19 -16t2.5 -30.5l-56 -318q-2 -16 -30.5 -41t-30.5 -29l-3 -15q-1 -10 10 -10h198q10 0 12 10l1 6q2 8 -17.5 33.5
t-16.5 44.5q0 3 15 83l17 10l41 -120q24 -70 80 -70q37 0 68 19.5t37 38.5zM990 141q1 4 -1.5 6t-5.5 1q-12 -3 -23 4.5t-19.5 25t-13.5 31t-11.5 36.5t-7.5 26q-16 46 -73 44q15 8 68 39q19 11 36.5 20.5t26 13.5t15 8t9 7.5t3.5 8.5l2 7q1 4 -2 7.5t-7 3.5h-99
q-12 0 -14 -10q-1 -2 -1.5 -4t-1.5 -7.5t1 -6.5q8 -9 9.5 -13.5t-3 -10.5t-18.5 -15l-64 -38l-40 -23q18 103 42 240q11 58 -1.5 70.5t-56.5 5.5q-67 -15 -103 -35q-8 -4 -9.5 -14t3.5 -16q2 -2 14.5 -7.5t19 -16t3.5 -30.5l-56 -318q-2 -16 -31 -41t-31 -29l-3 -15
q-1 -10 10 -10h197q12 0 14 10l1 6q1 8 -18 33.5t-16 44.5l2 10q1 10 5 31.5t7 41.5l18 10l40 -120q24 -70 80 -70q36 0 67 19.5t37 38.5z" />
    <glyph glyph-name="odieresis" unicode="&#xf6;" horiz-adv-x="1055" 
d="M135 705h1012l-124 -705h-1012zM534 141q0 9 -8 7q-12 -3 -23 4.5t-19.5 25t-13.5 31t-11.5 36.5t-7.5 26q-16 46 -72 44q15 8 39 22t29 17q19 11 36.5 20.5t26 13.5t15 8t9 7.5t3.5 8.5l1 7q1 4 -1.5 7.5t-7.5 3.5h-99q-5 0 -9.5 -3t-4.5 -7l-1 -18q10 -11 8.5 -19
t-21.5 -20l-64 -38l-40 -23q9 52 25.5 142t17.5 98q6 31 4.5 48.5t-9 24t-21 7t-32.5 -3.5q-65 -14 -104 -35q-8 -4 -9.5 -14t3.5 -16q2 -2 14.5 -7.5t19 -16t2.5 -30.5l-56 -318q-2 -16 -30.5 -41t-30.5 -29l-3 -15q-1 -10 10 -10h198q10 0 12 10l1 6q2 8 -17.5 33.5
t-16.5 44.5q0 3 15 83l17 10l41 -120q24 -70 80 -70q37 0 68 19.5t37 38.5zM990 141q1 4 -1.5 6t-5.5 1q-12 -3 -23 4.5t-19.5 25t-13.5 31t-11.5 36.5t-7.5 26q-16 46 -73 44q15 8 68 39q19 11 36.5 20.5t26 13.5t15 8t9 7.5t3.5 8.5l2 7q1 4 -2 7.5t-7 3.5h-99
q-12 0 -14 -10q-1 -2 -1.5 -4t-1.5 -7.5t1 -6.5q8 -9 9.5 -13.5t-3 -10.5t-18.5 -15l-64 -38l-40 -23q18 103 42 240q11 58 -1.5 70.5t-56.5 5.5q-67 -15 -103 -35q-8 -4 -9.5 -14t3.5 -16q2 -2 14.5 -7.5t19 -16t3.5 -30.5l-56 -318q-2 -16 -31 -41t-31 -29l-3 -15
q-1 -10 10 -10h197q12 0 14 10l1 6q1 8 -18 33.5t-16 44.5l2 10q1 10 5 31.5t7 41.5l18 10l40 -120q24 -70 80 -70q36 0 67 19.5t37 38.5z" />
    <glyph glyph-name="oslash" unicode="&#xf8;" horiz-adv-x="1055" 
d="M135 705h1012l-124 -705h-1012zM534 141q0 9 -8 7q-12 -3 -23 4.5t-19.5 25t-13.5 31t-11.5 36.5t-7.5 26q-16 46 -72 44q15 8 39 22t29 17q19 11 36.5 20.5t26 13.5t15 8t9 7.5t3.5 8.5l1 7q1 4 -1.5 7.5t-7.5 3.5h-99q-5 0 -9.5 -3t-4.5 -7l-1 -18q10 -11 8.5 -19
t-21.5 -20l-64 -38l-40 -23q9 52 25.5 142t17.5 98q6 31 4.5 48.5t-9 24t-21 7t-32.5 -3.5q-65 -14 -104 -35q-8 -4 -9.5 -14t3.5 -16q2 -2 14.5 -7.5t19 -16t2.5 -30.5l-56 -318q-2 -16 -30.5 -41t-30.5 -29l-3 -15q-1 -10 10 -10h198q10 0 12 10l1 6q2 8 -17.5 33.5
t-16.5 44.5q0 3 15 83l17 10l41 -120q24 -70 80 -70q37 0 68 19.5t37 38.5zM990 141q1 4 -1.5 6t-5.5 1q-12 -3 -23 4.5t-19.5 25t-13.5 31t-11.5 36.5t-7.5 26q-16 46 -73 44q15 8 68 39q19 11 36.5 20.5t26 13.5t15 8t9 7.5t3.5 8.5l2 7q1 4 -2 7.5t-7 3.5h-99
q-12 0 -14 -10q-1 -2 -1.5 -4t-1.5 -7.5t1 -6.5q8 -9 9.5 -13.5t-3 -10.5t-18.5 -15l-64 -38l-40 -23q18 103 42 240q11 58 -1.5 70.5t-56.5 5.5q-67 -15 -103 -35q-8 -4 -9.5 -14t3.5 -16q2 -2 14.5 -7.5t19 -16t3.5 -30.5l-56 -318q-2 -16 -31 -41t-31 -29l-3 -15
q-1 -10 10 -10h197q12 0 14 10l1 6q1 8 -18 33.5t-16 44.5l2 10q1 10 5 31.5t7 41.5l18 10l40 -120q24 -70 80 -70q36 0 67 19.5t37 38.5z" />
    <glyph glyph-name="ugrave" unicode="&#xf9;" horiz-adv-x="1032" 
d="M128 705h1012l-124 -705h-1012zM527 141q0 9 -8 7q-12 -3 -23 4.5t-19.5 25t-13.5 31t-11.5 36.5t-7.5 26q-16 46 -72 44q15 8 39 22t29 17q19 11 36.5 20.5t26 13.5t15 8t9 7.5t3.5 8.5l1 7q1 4 -1.5 7.5t-7.5 3.5h-99q-5 0 -9.5 -3t-4.5 -7l-1 -18q10 -11 8.5 -19
t-21.5 -20l-64 -38l-40 -23q9 52 25.5 142t17.5 98q6 31 4.5 48.5t-9 24t-21 7t-32.5 -3.5q-65 -14 -104 -35q-8 -4 -9.5 -14t3.5 -16q2 -2 14.5 -7.5t19 -16t2.5 -30.5l-56 -318q-2 -16 -30.5 -41t-30.5 -29l-3 -15q-1 -10 10 -10h198q10 0 12 10l1 6q2 8 -17.5 33.5
t-16.5 44.5q0 3 15 83l17 10l41 -120q24 -70 80 -70q37 0 68 19.5t37 38.5zM983 141q1 4 -1.5 6t-5.5 1q-12 -3 -23 4.5t-19.5 25t-13.5 31t-11.5 36.5t-7.5 26q-16 46 -73 44q15 8 68 39q19 11 36.5 20.5t26 13.5t15 8t9 7.5t3.5 8.5l2 7q1 4 -2 7.5t-7 3.5h-99
q-12 0 -14 -10q-1 -2 -1.5 -4t-1.5 -7.5t1 -6.5q8 -9 9.5 -13.5t-3 -10.5t-18.5 -15l-64 -38l-40 -23q18 103 42 240q11 58 -1.5 70.5t-56.5 5.5q-67 -15 -103 -35q-8 -4 -9.5 -14t3.5 -16q2 -2 14.5 -7.5t19 -16t3.5 -30.5l-56 -318q-2 -16 -31 -41t-31 -29l-3 -15
q-1 -10 10 -10h197q12 0 14 10l1 6q1 8 -18 33.5t-16 44.5l1 10q2 10 6 31.5t7 41.5l18 10l40 -120q24 -70 80 -70q36 0 67 19.5t37 38.5z" />
    <glyph glyph-name="uacute" unicode="&#xfa;" horiz-adv-x="1032" 
d="M128 705h1012l-124 -705h-1012zM527 141q0 9 -8 7q-12 -3 -23 4.5t-19.5 25t-13.5 31t-11.5 36.5t-7.5 26q-16 46 -72 44q15 8 39 22t29 17q19 11 36.5 20.5t26 13.5t15 8t9 7.5t3.5 8.5l1 7q1 4 -1.5 7.5t-7.5 3.5h-99q-5 0 -9.5 -3t-4.5 -7l-1 -18q10 -11 8.5 -19
t-21.5 -20l-64 -38l-40 -23q9 52 25.5 142t17.5 98q6 31 4.5 48.5t-9 24t-21 7t-32.5 -3.5q-65 -14 -104 -35q-8 -4 -9.5 -14t3.5 -16q2 -2 14.5 -7.5t19 -16t2.5 -30.5l-56 -318q-2 -16 -30.5 -41t-30.5 -29l-3 -15q-1 -10 10 -10h198q10 0 12 10l1 6q2 8 -17.5 33.5
t-16.5 44.5q0 3 15 83l17 10l41 -120q24 -70 80 -70q37 0 68 19.5t37 38.5zM983 141q1 4 -1.5 6t-5.5 1q-12 -3 -23 4.5t-19.5 25t-13.5 31t-11.5 36.5t-7.5 26q-16 46 -73 44q15 8 68 39q19 11 36.5 20.5t26 13.5t15 8t9 7.5t3.5 8.5l2 7q1 4 -2 7.5t-7 3.5h-99
q-12 0 -14 -10q-1 -2 -1.5 -4t-1.5 -7.5t1 -6.5q8 -9 9.5 -13.5t-3 -10.5t-18.5 -15l-64 -38l-40 -23q18 103 42 240q11 58 -1.5 70.5t-56.5 5.5q-67 -15 -103 -35q-8 -4 -9.5 -14t3.5 -16q2 -2 14.5 -7.5t19 -16t3.5 -30.5l-56 -318q-2 -16 -31 -41t-31 -29l-3 -15
q-1 -10 10 -10h197q12 0 14 10l1 6q1 8 -18 33.5t-16 44.5l1 10q2 10 6 31.5t7 41.5l18 10l40 -120q24 -70 80 -70q36 0 67 19.5t37 38.5z" />
    <glyph glyph-name="ucircumflex" unicode="&#xfb;" horiz-adv-x="1032" 
d="M128 705h1012l-124 -705h-1012zM527 141q0 9 -8 7q-12 -3 -23 4.5t-19.5 25t-13.5 31t-11.5 36.5t-7.5 26q-16 46 -72 44q15 8 39 22t29 17q19 11 36.5 20.5t26 13.5t15 8t9 7.5t3.5 8.5l1 7q1 4 -1.5 7.5t-7.5 3.5h-99q-5 0 -9.5 -3t-4.5 -7l-1 -18q10 -11 8.5 -19
t-21.5 -20l-64 -38l-40 -23q9 52 25.5 142t17.5 98q6 31 4.5 48.5t-9 24t-21 7t-32.5 -3.5q-65 -14 -104 -35q-8 -4 -9.5 -14t3.5 -16q2 -2 14.5 -7.5t19 -16t2.5 -30.5l-56 -318q-2 -16 -30.5 -41t-30.5 -29l-3 -15q-1 -10 10 -10h198q10 0 12 10l1 6q2 8 -17.5 33.5
t-16.5 44.5q0 3 15 83l17 10l41 -120q24 -70 80 -70q37 0 68 19.5t37 38.5zM983 141q1 4 -1.5 6t-5.5 1q-12 -3 -23 4.5t-19.5 25t-13.5 31t-11.5 36.5t-7.5 26q-16 46 -73 44q15 8 68 39q19 11 36.5 20.5t26 13.5t15 8t9 7.5t3.5 8.5l2 7q1 4 -2 7.5t-7 3.5h-99
q-12 0 -14 -10q-1 -2 -1.5 -4t-1.5 -7.5t1 -6.5q8 -9 9.5 -13.5t-3 -10.5t-18.5 -15l-64 -38l-40 -23q18 103 42 240q11 58 -1.5 70.5t-56.5 5.5q-67 -15 -103 -35q-8 -4 -9.5 -14t3.5 -16q2 -2 14.5 -7.5t19 -16t3.5 -30.5l-56 -318q-2 -16 -31 -41t-31 -29l-3 -15
q-1 -10 10 -10h197q12 0 14 10l1 6q1 8 -18 33.5t-16 44.5l1 10q2 10 6 31.5t7 41.5l18 10l40 -120q24 -70 80 -70q36 0 67 19.5t37 38.5z" />
    <glyph glyph-name="udieresis" unicode="&#xfc;" horiz-adv-x="1032" 
d="M128 705h1012l-124 -705h-1012zM527 141q0 9 -8 7q-12 -3 -23 4.5t-19.5 25t-13.5 31t-11.5 36.5t-7.5 26q-16 46 -72 44q15 8 39 22t29 17q19 11 36.5 20.5t26 13.5t15 8t9 7.5t3.5 8.5l1 7q1 4 -1.5 7.5t-7.5 3.5h-99q-5 0 -9.5 -3t-4.5 -7l-1 -18q10 -11 8.5 -19
t-21.5 -20l-64 -38l-40 -23q9 52 25.5 142t17.5 98q6 31 4.5 48.5t-9 24t-21 7t-32.5 -3.5q-65 -14 -104 -35q-8 -4 -9.5 -14t3.5 -16q2 -2 14.5 -7.5t19 -16t2.5 -30.5l-56 -318q-2 -16 -30.5 -41t-30.5 -29l-3 -15q-1 -10 10 -10h198q10 0 12 10l1 6q2 8 -17.5 33.5
t-16.5 44.5q0 3 15 83l17 10l41 -120q24 -70 80 -70q37 0 68 19.5t37 38.5zM983 141q1 4 -1.5 6t-5.5 1q-12 -3 -23 4.5t-19.5 25t-13.5 31t-11.5 36.5t-7.5 26q-16 46 -73 44q15 8 68 39q19 11 36.5 20.5t26 13.5t15 8t9 7.5t3.5 8.5l2 7q1 4 -2 7.5t-7 3.5h-99
q-12 0 -14 -10q-1 -2 -1.5 -4t-1.5 -7.5t1 -6.5q8 -9 9.5 -13.5t-3 -10.5t-18.5 -15l-64 -38l-40 -23q18 103 42 240q11 58 -1.5 70.5t-56.5 5.5q-67 -15 -103 -35q-8 -4 -9.5 -14t3.5 -16q2 -2 14.5 -7.5t19 -16t3.5 -30.5l-56 -318q-2 -16 -31 -41t-31 -29l-3 -15
q-1 -10 10 -10h197q12 0 14 10l1 6q1 8 -18 33.5t-16 44.5l1 10q2 10 6 31.5t7 41.5l18 10l40 -120q24 -70 80 -70q36 0 67 19.5t37 38.5z" />
    <glyph glyph-name="yacute" unicode="&#xfd;" horiz-adv-x="1021" 
d="M125 705h1012l-124 -705h-1012zM524 141q0 9 -8 7q-12 -3 -23 4.5t-19.5 25t-13.5 31t-11.5 36.5t-7.5 26q-16 46 -72 44q15 8 39 22t29 17q19 11 36.5 20.5t26 13.5t15 8t9 7.5t3.5 8.5l1 7q1 4 -1.5 7.5t-7.5 3.5h-99q-5 0 -9.5 -3t-4.5 -7l-1 -18q10 -11 8.5 -19
t-21.5 -20l-64 -38l-40 -23q9 52 25.5 142t17.5 98q6 31 4.5 48.5t-9 24t-21 7t-32.5 -3.5q-65 -14 -104 -35q-8 -4 -9.5 -14t3.5 -16q2 -2 14.5 -7.5t19 -16t2.5 -30.5l-56 -318q-2 -16 -30.5 -41t-30.5 -29l-3 -15q-1 -10 10 -10h198q10 0 12 10l1 6q2 8 -17.5 33.5
t-16.5 44.5q0 3 15 83l17 10l41 -120q24 -70 80 -70q37 0 68 19.5t37 38.5zM980 141q1 4 -1.5 6t-5.5 1q-12 -3 -23 4.5t-19.5 25t-13.5 31t-11.5 36.5t-7.5 26q-16 46 -73 44q15 8 68 39q19 11 36.5 20.5t26 13.5t15 8t9 7.5t3.5 8.5l2 7q1 4 -2 7.5t-7 3.5h-99
q-12 0 -14 -10q-1 -2 -1.5 -4t-1.5 -7.5t1 -6.5q8 -9 9.5 -13.5t-3 -10.5t-18.5 -15l-64 -38l-40 -23q18 103 42 240q11 58 -1.5 70.5t-56.5 5.5q-67 -15 -103 -35q-8 -4 -9.5 -14t3.5 -16q2 -2 14.5 -7.5t19 -16t3.5 -30.5l-56 -318q-2 -16 -31 -41t-31 -29l-3 -15
q-1 -10 10 -10h197q12 0 14 10l1 6q1 8 -18 33.5t-16 44.5l2 10q1 10 5 31.5t7 41.5l18 10l40 -120q24 -70 80 -70q36 0 67 19.5t37 38.5z" />
    <glyph glyph-name="ydieresis" unicode="&#xff;" horiz-adv-x="1021" 
d="M125 705h1012l-124 -705h-1012zM524 141q0 9 -8 7q-12 -3 -23 4.5t-19.5 25t-13.5 31t-11.5 36.5t-7.5 26q-16 46 -72 44q15 8 39 22t29 17q19 11 36.5 20.5t26 13.5t15 8t9 7.5t3.5 8.5l1 7q1 4 -1.5 7.5t-7.5 3.5h-99q-5 0 -9.5 -3t-4.5 -7l-1 -18q10 -11 8.5 -19
t-21.5 -20l-64 -38l-40 -23q9 52 25.5 142t17.5 98q6 31 4.5 48.5t-9 24t-21 7t-32.5 -3.5q-65 -14 -104 -35q-8 -4 -9.5 -14t3.5 -16q2 -2 14.5 -7.5t19 -16t2.5 -30.5l-56 -318q-2 -16 -30.5 -41t-30.5 -29l-3 -15q-1 -10 10 -10h198q10 0 12 10l1 6q2 8 -17.5 33.5
t-16.5 44.5q0 3 15 83l17 10l41 -120q24 -70 80 -70q37 0 68 19.5t37 38.5zM980 141q1 4 -1.5 6t-5.5 1q-12 -3 -23 4.5t-19.5 25t-13.5 31t-11.5 36.5t-7.5 26q-16 46 -73 44q15 8 68 39q19 11 36.5 20.5t26 13.5t15 8t9 7.5t3.5 8.5l2 7q1 4 -2 7.5t-7 3.5h-99
q-12 0 -14 -10q-1 -2 -1.5 -4t-1.5 -7.5t1 -6.5q8 -9 9.5 -13.5t-3 -10.5t-18.5 -15l-64 -38l-40 -23q18 103 42 240q11 58 -1.5 70.5t-56.5 5.5q-67 -15 -103 -35q-8 -4 -9.5 -14t3.5 -16q2 -2 14.5 -7.5t19 -16t3.5 -30.5l-56 -318q-2 -16 -31 -41t-31 -29l-3 -15
q-1 -10 10 -10h197q12 0 14 10l1 6q1 8 -18 33.5t-16 44.5l2 10q1 10 5 31.5t7 41.5l18 10l40 -120q24 -70 80 -70q36 0 67 19.5t37 38.5z" />
    <glyph glyph-name="dotlessi" unicode="&#x131;" horiz-adv-x="1030" 
d="M128 705h1012l-124 -705h-1012zM527 141q0 9 -8 7q-12 -3 -23 4.5t-19.5 25t-13.5 31t-11.5 36.5t-7.5 26q-16 46 -72 44q15 8 39 22t29 17q19 11 36.5 20.5t26 13.5t15 8t9 7.5t3.5 8.5l1 7q1 4 -1.5 7.5t-7.5 3.5h-99q-5 0 -9.5 -3t-4.5 -7l-1 -18q10 -11 8.5 -19
t-21.5 -20l-64 -38l-40 -23q9 52 25.5 142t17.5 98q6 31 4.5 48.5t-9 24t-21 7t-32.5 -3.5q-65 -14 -104 -35q-8 -4 -9.5 -14t3.5 -16q2 -2 14.5 -7.5t19 -16t2.5 -30.5l-56 -318q-2 -16 -30.5 -41t-30.5 -29l-3 -15q-1 -10 10 -10h198q10 0 12 10l1 6q2 8 -17.5 33.5
t-16.5 44.5q0 3 15 83l17 10l41 -120q24 -70 80 -70q37 0 68 19.5t37 38.5zM983 141q1 4 -1.5 6t-5.5 1q-12 -3 -23 4.5t-19.5 25t-13.5 31t-11.5 36.5t-7.5 26q-16 46 -73 44q15 8 68 39q19 11 36.5 20.5t26 13.5t15 8t9 7.5t3.5 8.5l2 7q1 4 -2 7.5t-7 3.5h-99
q-12 0 -14 -10q-1 -2 -1.5 -4t-1.5 -7.5t1 -6.5q8 -9 9.5 -13.5t-3 -10.5t-18.5 -15l-64 -38l-40 -23q18 103 42 240q11 58 -1.5 70.5t-56.5 5.5q-67 -15 -103 -35q-8 -4 -9.5 -14t3.5 -16q2 -2 14.5 -7.5t19 -16t3.5 -30.5l-56 -318q-2 -16 -31 -41t-31 -29l-3 -15
q-1 -10 10 -10h197q12 0 14 10l1 6q1 8 -18 33.5t-16 44.5l1 10q2 10 6 31.5t7 41.5l18 10l40 -120q24 -70 80 -70q36 0 67 19.5t37 38.5z" />
    <glyph glyph-name="OE" unicode="&#x152;" horiz-adv-x="1090" 
d="M159 705h1012l-124 -705h-1012zM558 141q0 9 -8 7q-12 -3 -23 4.5t-19.5 25t-13.5 31t-11.5 36.5t-7.5 26q-16 46 -72 44q15 8 39 22t29 17q19 11 36.5 20.5t26 13.5t15 8t9 7.5t3.5 8.5l1 7q1 4 -1.5 7.5t-7.5 3.5h-99q-5 0 -9.5 -3t-4.5 -7l-1 -18q10 -11 8.5 -19
t-21.5 -20l-64 -38l-40 -23q9 52 25.5 142t17.5 98q6 31 4.5 48.5t-9 24t-21 7t-32.5 -3.5q-65 -14 -104 -35q-8 -4 -9.5 -14t3.5 -16q2 -2 14.5 -7.5t19 -16t2.5 -30.5l-56 -318q-2 -16 -30.5 -41t-30.5 -29l-3 -15q-1 -10 10 -10h198q10 0 12 10l1 6q2 8 -17.5 33.5
t-16.5 44.5q0 3 15 83l17 10l41 -120q24 -70 80 -70q37 0 68 19.5t37 38.5zM1014 141q1 4 -1.5 6t-5.5 1q-12 -3 -23 4.5t-19.5 25t-13.5 31t-11.5 36.5t-7.5 26q-16 46 -73 44q15 8 68 39q19 11 36.5 20.5t26 13.5t15 8t9 7.5t3.5 8.5l2 7q1 4 -2 7.5t-7 3.5h-99
q-12 0 -14 -10q-1 -2 -1.5 -4t-1.5 -7.5t1 -6.5q8 -9 9.5 -13.5t-3 -10.5t-18.5 -15l-64 -38l-40 -23q18 103 42 240q11 58 -1.5 70.5t-56.5 5.5q-67 -15 -103 -35q-8 -4 -9.5 -14t3.5 -16q2 -2 14.5 -7.5t19 -16t3.5 -30.5l-56 -318q-2 -16 -31 -41t-31 -29l-3 -15
q-1 -10 10 -10h197q12 0 14 10l1 6q1 8 -18 33.5t-16 44.5l2 10q1 10 5 31.5t7 41.5l18 10l40 -120q24 -70 80 -70q36 0 67 19.5t37 38.5z" />
    <glyph glyph-name="oe" unicode="&#x153;" horiz-adv-x="1052" 
d="M135 705h1012l-124 -705h-1012zM534 141q0 9 -8 7q-12 -3 -23 4.5t-19.5 25t-13.5 31t-11.5 36.5t-7.5 26q-16 46 -72 44q15 8 39 22t29 17q19 11 36.5 20.5t26 13.5t15 8t9 7.5t3.5 8.5l1 7q1 4 -1.5 7.5t-7.5 3.5h-99q-5 0 -9.5 -3t-4.5 -7l-1 -18q10 -11 8.5 -19
t-21.5 -20l-64 -38l-40 -23q9 52 25.5 142t17.5 98q6 31 4.5 48.5t-9 24t-21 7t-32.5 -3.5q-65 -14 -104 -35q-8 -4 -9.5 -14t3.5 -16q2 -2 14.5 -7.5t19 -16t2.5 -30.5l-56 -318q-2 -16 -30.5 -41t-30.5 -29l-3 -15q-1 -10 10 -10h198q10 0 12 10l1 6q2 8 -17.5 33.5
t-16.5 44.5q0 3 15 83l17 10l41 -120q24 -70 80 -70q37 0 68 19.5t37 38.5zM990 141q1 4 -1.5 6t-5.5 1q-12 -3 -23 4.5t-19.5 25t-13.5 31t-11.5 36.5t-7.5 26q-16 46 -73 44q15 8 68 39q19 11 36.5 20.5t26 13.5t15 8t9 7.5t3.5 8.5l2 7q1 4 -2 7.5t-7 3.5h-99
q-12 0 -14 -10q-1 -2 -1.5 -4t-1.5 -7.5t1 -6.5q8 -9 9.5 -13.5t-3 -10.5t-18.5 -15l-64 -38l-40 -23q18 103 42 240q11 58 -1.5 70.5t-56.5 5.5q-67 -15 -103 -35q-8 -4 -9.5 -14t3.5 -16q2 -2 14.5 -7.5t19 -16t3.5 -30.5l-56 -318q-2 -16 -31 -41t-31 -29l-3 -15
q-1 -10 10 -10h197q12 0 14 10l1 6q1 8 -18 33.5t-16 44.5l2 10q1 10 5 31.5t7 41.5l18 10l40 -120q24 -70 80 -70q36 0 67 19.5t37 38.5z" />
    <glyph glyph-name="Scaron" unicode="&#x160;" horiz-adv-x="1087" 
d="M161 705h1012l-124 -705h-1012zM560 141q0 9 -8 7q-12 -3 -23 4.5t-19.5 25t-13.5 31t-11.5 36.5t-7.5 26q-16 46 -72 44q15 8 39 22t29 17q19 11 36.5 20.5t26 13.5t15 8t9 7.5t3.5 8.5l1 7q1 4 -1.5 7.5t-7.5 3.5h-99q-5 0 -9.5 -3t-4.5 -7l-1 -18q10 -11 8.5 -19
t-21.5 -20l-64 -38l-40 -23q9 52 25.5 142t17.5 98q6 31 4.5 48.5t-9 24t-21 7t-32.5 -3.5q-65 -14 -104 -35q-8 -4 -9.5 -14t3.5 -16q2 -2 14.5 -7.5t19 -16t2.5 -30.5l-56 -318q-2 -16 -30.5 -41t-30.5 -29l-3 -15q-1 -10 10 -10h198q10 0 12 10l1 6q2 8 -17.5 33.5
t-16.5 44.5q0 3 15 83l17 10l41 -120q24 -70 80 -70q37 0 68 19.5t37 38.5zM1016 141q1 4 -1.5 6t-5.5 1q-12 -3 -23 4.5t-19.5 25t-13.5 31t-11.5 36.5t-7.5 26q-16 46 -73 44q15 8 68 39q19 11 36.5 20.5t26 13.5t15 8t9 7.5t3.5 8.5l2 7q1 4 -2 7.5t-7 3.5h-99
q-12 0 -14 -10q-1 -2 -1.5 -4t-1.5 -7.5t1 -6.5q8 -9 9.5 -13.5t-3 -10.5t-18.5 -15l-64 -38l-40 -23q18 103 42 240q11 58 -1.5 70.5t-56.5 5.5q-67 -15 -103 -35q-8 -4 -9.5 -14t3.5 -16q2 -2 14.5 -7.5t19 -16t3.5 -30.5l-56 -318q-2 -16 -31 -41t-31 -29l-3 -15
q-1 -10 10 -10h197q12 0 14 10l1 6q1 8 -18 33.5t-16 44.5l2 10q1 10 5 31.5t7 41.5l18 10l40 -120q24 -70 80 -70q36 0 67 19.5t37 38.5z" />
    <glyph glyph-name="scaron" unicode="&#x161;" horiz-adv-x="1055" 
d="M135 705h1012l-124 -705h-1012zM534 141q0 9 -8 7q-12 -3 -23 4.5t-19.5 25t-13.5 31t-11.5 36.5t-7.5 26q-16 46 -72 44q15 8 39 22t29 17q19 11 36.5 20.5t26 13.5t15 8t9 7.5t3.5 8.5l1 7q1 4 -1.5 7.5t-7.5 3.5h-99q-5 0 -9.5 -3t-4.5 -7l-1 -18q10 -11 8.5 -19
t-21.5 -20l-64 -38l-40 -23q9 52 25.5 142t17.5 98q6 31 4.5 48.5t-9 24t-21 7t-32.5 -3.5q-65 -14 -104 -35q-8 -4 -9.5 -14t3.5 -16q2 -2 14.5 -7.5t19 -16t2.5 -30.5l-56 -318q-2 -16 -30.5 -41t-30.5 -29l-3 -15q-1 -10 10 -10h198q10 0 12 10l1 6q2 8 -17.5 33.5
t-16.5 44.5q0 3 15 83l17 10l41 -120q24 -70 80 -70q37 0 68 19.5t37 38.5zM990 141q1 4 -1.5 6t-5.5 1q-12 -3 -23 4.5t-19.5 25t-13.5 31t-11.5 36.5t-7.5 26q-16 46 -73 44q15 8 68 39q19 11 36.5 20.5t26 13.5t15 8t9 7.5t3.5 8.5l2 7q1 4 -2 7.5t-7 3.5h-99
q-12 0 -14 -10q-1 -2 -1.5 -4t-1.5 -7.5t1 -6.5q8 -9 9.5 -13.5t-3 -10.5t-18.5 -15l-64 -38l-40 -23q18 103 42 240q11 58 -1.5 70.5t-56.5 5.5q-67 -15 -103 -35q-8 -4 -9.5 -14t3.5 -16q2 -2 14.5 -7.5t19 -16t3.5 -30.5l-56 -318q-2 -16 -31 -41t-31 -29l-3 -15
q-1 -10 10 -10h197q12 0 14 10l1 6q1 8 -18 33.5t-16 44.5l2 10q1 10 5 31.5t7 41.5l18 10l40 -120q24 -70 80 -70q36 0 67 19.5t37 38.5z" />
    <glyph glyph-name="Ydieresis" unicode="&#x178;" horiz-adv-x="1033" 
d="M144 705h1012l-124 -705h-1012zM543 141q0 9 -8 7q-12 -3 -23 4.5t-19.5 25t-13.5 31t-11.5 36.5t-7.5 26q-16 46 -72 44q15 8 39 22t29 17q19 11 36.5 20.5t26 13.5t15 8t9 7.5t3.5 8.5l1 7q1 4 -1.5 7.5t-7.5 3.5h-99q-5 0 -9.5 -3t-4.5 -7l-1 -18q10 -11 8.5 -19
t-21.5 -20l-64 -38l-40 -23q9 52 25.5 142t17.5 98q6 31 4.5 48.5t-9 24t-21 7t-32.5 -3.5q-65 -14 -104 -35q-8 -4 -9.5 -14t3.5 -16q2 -2 14.5 -7.5t19 -16t2.5 -30.5l-56 -318q-2 -16 -30.5 -41t-30.5 -29l-3 -15q-1 -10 10 -10h198q10 0 12 10l1 6q2 8 -17.5 33.5
t-16.5 44.5q0 3 15 83l17 10l41 -120q24 -70 80 -70q37 0 68 19.5t37 38.5zM999 141q1 4 -1.5 6t-5.5 1q-12 -3 -23 4.5t-19.5 25t-13.5 31t-11.5 36.5t-7.5 26q-16 46 -73 44q15 8 68 39q19 11 36.5 20.5t26 13.5t15 8t9 7.5t3.5 8.5l2 7q1 4 -2 7.5t-7 3.5h-99
q-12 0 -14 -10q-1 -2 -1.5 -4t-1.5 -7.5t1 -6.5q8 -9 9.5 -13.5t-3 -10.5t-18.5 -15l-64 -38l-40 -23q18 103 42 240q11 58 -1.5 70.5t-56.5 5.5q-67 -15 -103 -35q-8 -4 -9.5 -14t3.5 -16q2 -2 14.5 -7.5t19 -16t3.5 -30.5l-56 -318q-2 -16 -31 -41t-31 -29l-3 -15
q-1 -10 10 -10h197q12 0 14 10l1 6q1 8 -18 33.5t-16 44.5l1 10q2 10 6 31.5t7 41.5l18 10l40 -120q24 -70 80 -70q36 0 67 19.5t37 38.5z" />
    <glyph glyph-name="Zcaron" unicode="&#x17d;" horiz-adv-x="1093" 
d="M164 705h1012l-124 -705h-1012zM563 141q0 9 -8 7q-12 -3 -23 4.5t-19.5 25t-13.5 31t-11.5 36.5t-7.5 26q-16 46 -72 44q15 8 39 22t29 17q19 11 36.5 20.5t26 13.5t15 8t9 7.5t3.5 8.5l1 7q1 4 -1.5 7.5t-7.5 3.5h-99q-5 0 -9.5 -3t-4.5 -7l-1 -18q10 -11 8.5 -19
t-21.5 -20l-64 -38l-40 -23q9 52 25.5 142t17.5 98q6 31 4.5 48.5t-9 24t-21 7t-32.5 -3.5q-65 -14 -104 -35q-8 -4 -9.5 -14t3.5 -16q2 -2 14.5 -7.5t19 -16t2.5 -30.5l-56 -318q-2 -16 -30.5 -41t-30.5 -29l-3 -15q-1 -10 10 -10h198q10 0 12 10l1 6q2 8 -17.5 33.5
t-16.5 44.5q0 3 15 83l17 10l41 -120q24 -70 80 -70q37 0 68 19.5t37 38.5zM1019 141q1 4 -1.5 6t-5.5 1q-12 -3 -23 4.5t-19.5 25t-13.5 31t-11.5 36.5t-7.5 26q-16 46 -73 44q15 8 68 39q19 11 36.5 20.5t26 13.5t15 8t9 7.5t3.5 8.5l2 7q1 4 -2 7.5t-7 3.5h-99
q-12 0 -14 -10q-1 -2 -1.5 -4t-1.5 -7.5t1 -6.5q8 -9 9.5 -13.5t-3 -10.5t-18.5 -15l-64 -38l-40 -23q18 103 42 240q11 58 -1.5 70.5t-56.5 5.5q-67 -15 -103 -35q-8 -4 -9.5 -14t3.5 -16q2 -2 14.5 -7.5t19 -16t3.5 -30.5l-56 -318q-2 -16 -31 -41t-31 -29l-3 -15
q-1 -10 10 -10h197q12 0 14 10l1 6q1 8 -18 33.5t-16 44.5l1 10q2 10 6 31.5t7 41.5l18 10l40 -120q24 -70 80 -70q36 0 67 19.5t37 38.5z" />
    <glyph glyph-name="zcaron" unicode="&#x17e;" horiz-adv-x="1029" 
d="M128 705h1012l-124 -705h-1012zM527 141q0 9 -8 7q-12 -3 -23 4.5t-19.5 25t-13.5 31t-11.5 36.5t-7.5 26q-16 46 -72 44q15 8 39 22t29 17q19 11 36.5 20.5t26 13.5t15 8t9 7.5t3.5 8.5l1 7q1 4 -1.5 7.5t-7.5 3.5h-99q-5 0 -9.5 -3t-4.5 -7l-1 -18q10 -11 8.5 -19
t-21.5 -20l-64 -38l-40 -23q9 52 25.5 142t17.5 98q6 31 4.5 48.5t-9 24t-21 7t-32.5 -3.5q-65 -14 -104 -35q-8 -4 -9.5 -14t3.5 -16q2 -2 14.5 -7.5t19 -16t2.5 -30.5l-56 -318q-2 -16 -30.5 -41t-30.5 -29l-3 -15q-1 -10 10 -10h198q10 0 12 10l1 6q2 8 -17.5 33.5
t-16.5 44.5q0 3 15 83l17 10l41 -120q24 -70 80 -70q37 0 68 19.5t37 38.5zM983 141q1 4 -1.5 6t-5.5 1q-12 -3 -23 4.5t-19.5 25t-13.5 31t-11.5 36.5t-7.5 26q-16 46 -73 44q15 8 68 39q19 11 36.5 20.5t26 13.5t15 8t9 7.5t3.5 8.5l2 7q1 4 -2 7.5t-7 3.5h-99
q-12 0 -14 -10q-1 -2 -1.5 -4t-1.5 -7.5t1 -6.5q8 -9 9.5 -13.5t-3 -10.5t-18.5 -15l-64 -38l-40 -23q18 103 42 240q11 58 -1.5 70.5t-56.5 5.5q-67 -15 -103 -35q-8 -4 -9.5 -14t3.5 -16q2 -2 14.5 -7.5t19 -16t3.5 -30.5l-56 -318q-2 -16 -31 -41t-31 -29l-3 -15
q-1 -10 10 -10h197q12 0 14 10l1 6q1 8 -18 33.5t-16 44.5l1 10q2 10 6 31.5t7 41.5l18 10l40 -120q24 -70 80 -70q36 0 67 19.5t37 38.5z" />
    <glyph glyph-name="endash" unicode="&#x2013;" 
d="M169 705h1012l-124 -705h-1012zM568 141q0 9 -8 7q-12 -3 -23 4.5t-19.5 25t-13.5 31t-11.5 36.5t-7.5 26q-16 46 -72 44q15 8 39 22t29 17q19 11 36.5 20.5t26 13.5t15 8t9 7.5t3.5 8.5l1 7q1 4 -1.5 7.5t-7.5 3.5h-99q-5 0 -9.5 -3t-4.5 -7l-1 -18q10 -11 8.5 -19
t-21.5 -20l-64 -38l-40 -23q9 52 25.5 142t17.5 98q6 31 4.5 48.5t-9 24t-21 7t-32.5 -3.5q-65 -14 -104 -35q-8 -4 -9.5 -14t3.5 -16q2 -2 14.5 -7.5t19 -16t2.5 -30.5l-56 -318q-2 -16 -30.5 -41t-30.5 -29l-3 -15q-1 -10 10 -10h198q10 0 12 10l1 6q2 8 -17.5 33.5
t-16.5 44.5q0 3 15 83l17 10l41 -120q24 -70 80 -70q37 0 68 19.5t37 38.5zM1024 141q1 4 -1.5 6t-5.5 1q-12 -3 -23 4.5t-19.5 25t-13.5 31t-11.5 36.5t-7.5 26q-16 46 -73 44q15 8 68 39q19 11 36.5 20.5t26 13.5t15 8t9 7.5t3.5 8.5l2 7q1 4 -2 7.5t-7 3.5h-99
q-12 0 -14 -10q-1 -2 -1.5 -4t-1.5 -7.5t1 -6.5q8 -9 9.5 -13.5t-3 -10.5t-18.5 -15l-64 -38l-40 -23q18 103 42 240q11 58 -1.5 70.5t-56.5 5.5q-67 -15 -103 -35q-8 -4 -9.5 -14t3.5 -16q2 -2 14.5 -7.5t19 -16t3.5 -30.5l-56 -318q-2 -16 -31 -41t-31 -29l-3 -15
q-1 -10 10 -10h197q12 0 14 10l1 6q1 8 -18 33.5t-16 44.5l2 10q1 10 5 31.5t7 41.5l18 10l40 -120q24 -70 80 -70q36 0 67 19.5t37 38.5z" />
    <glyph glyph-name="emdash" unicode="&#x2014;" 
d="M169 705h1012l-124 -705h-1012zM568 141q0 9 -8 7q-12 -3 -23 4.5t-19.5 25t-13.5 31t-11.5 36.5t-7.5 26q-16 46 -72 44q15 8 39 22t29 17q19 11 36.5 20.5t26 13.5t15 8t9 7.5t3.5 8.5l1 7q1 4 -1.5 7.5t-7.5 3.5h-99q-5 0 -9.5 -3t-4.5 -7l-1 -18q10 -11 8.5 -19
t-21.5 -20l-64 -38l-40 -23q9 52 25.5 142t17.5 98q6 31 4.5 48.5t-9 24t-21 7t-32.5 -3.5q-65 -14 -104 -35q-8 -4 -9.5 -14t3.5 -16q2 -2 14.5 -7.5t19 -16t2.5 -30.5l-56 -318q-2 -16 -30.5 -41t-30.5 -29l-3 -15q-1 -10 10 -10h198q10 0 12 10l1 6q2 8 -17.5 33.5
t-16.5 44.5q0 3 15 83l17 10l41 -120q24 -70 80 -70q37 0 68 19.5t37 38.5zM1024 141q1 4 -1.5 6t-5.5 1q-12 -3 -23 4.5t-19.5 25t-13.5 31t-11.5 36.5t-7.5 26q-16 46 -73 44q15 8 68 39q19 11 36.5 20.5t26 13.5t15 8t9 7.5t3.5 8.5l2 7q1 4 -2 7.5t-7 3.5h-99
q-12 0 -14 -10q-1 -2 -1.5 -4t-1.5 -7.5t1 -6.5q8 -9 9.5 -13.5t-3 -10.5t-18.5 -15l-64 -38l-40 -23q18 103 42 240q11 58 -1.5 70.5t-56.5 5.5q-67 -15 -103 -35q-8 -4 -9.5 -14t3.5 -16q2 -2 14.5 -7.5t19 -16t3.5 -30.5l-56 -318q-2 -16 -31 -41t-31 -29l-3 -15
q-1 -10 10 -10h197q12 0 14 10l1 6q1 8 -18 33.5t-16 44.5l2 10q1 10 5 31.5t7 41.5l18 10l40 -120q24 -70 80 -70q36 0 67 19.5t37 38.5z" />
    <glyph glyph-name="quoteleft" unicode="&#x2018;" 
d="M169 705h1012l-124 -705h-1012zM568 141q0 9 -8 7q-12 -3 -23 4.5t-19.5 25t-13.5 31t-11.5 36.5t-7.5 26q-16 46 -72 44q15 8 39 22t29 17q19 11 36.5 20.5t26 13.5t15 8t9 7.5t3.5 8.5l1 7q1 4 -1.5 7.5t-7.5 3.5h-99q-5 0 -9.5 -3t-4.5 -7l-1 -18q10 -11 8.5 -19
t-21.5 -20l-64 -38l-40 -23q9 52 25.5 142t17.5 98q6 31 4.5 48.5t-9 24t-21 7t-32.5 -3.5q-65 -14 -104 -35q-8 -4 -9.5 -14t3.5 -16q2 -2 14.5 -7.5t19 -16t2.5 -30.5l-56 -318q-2 -16 -30.5 -41t-30.5 -29l-3 -15q-1 -10 10 -10h198q10 0 12 10l1 6q2 8 -17.5 33.5
t-16.5 44.5q0 3 15 83l17 10l41 -120q24 -70 80 -70q37 0 68 19.5t37 38.5zM1024 141q1 4 -1.5 6t-5.5 1q-12 -3 -23 4.5t-19.5 25t-13.5 31t-11.5 36.5t-7.5 26q-16 46 -73 44q15 8 68 39q19 11 36.5 20.5t26 13.5t15 8t9 7.5t3.5 8.5l2 7q1 4 -2 7.5t-7 3.5h-99
q-12 0 -14 -10q-1 -2 -1.5 -4t-1.5 -7.5t1 -6.5q8 -9 9.5 -13.5t-3 -10.5t-18.5 -15l-64 -38l-40 -23q18 103 42 240q11 58 -1.5 70.5t-56.5 5.5q-67 -15 -103 -35q-8 -4 -9.5 -14t3.5 -16q2 -2 14.5 -7.5t19 -16t3.5 -30.5l-56 -318q-2 -16 -31 -41t-31 -29l-3 -15
q-1 -10 10 -10h197q12 0 14 10l1 6q1 8 -18 33.5t-16 44.5l2 10q1 10 5 31.5t7 41.5l18 10l40 -120q24 -70 80 -70q36 0 67 19.5t37 38.5z" />
    <glyph glyph-name="quoteright" unicode="&#x2019;" 
d="M169 705h1012l-124 -705h-1012zM568 141q0 9 -8 7q-12 -3 -23 4.5t-19.5 25t-13.5 31t-11.5 36.5t-7.5 26q-16 46 -72 44q15 8 39 22t29 17q19 11 36.5 20.5t26 13.5t15 8t9 7.5t3.5 8.5l1 7q1 4 -1.5 7.5t-7.5 3.5h-99q-5 0 -9.5 -3t-4.5 -7l-1 -18q10 -11 8.5 -19
t-21.5 -20l-64 -38l-40 -23q9 52 25.5 142t17.5 98q6 31 4.5 48.5t-9 24t-21 7t-32.5 -3.5q-65 -14 -104 -35q-8 -4 -9.5 -14t3.5 -16q2 -2 14.5 -7.5t19 -16t2.5 -30.5l-56 -318q-2 -16 -30.5 -41t-30.5 -29l-3 -15q-1 -10 10 -10h198q10 0 12 10l1 6q2 8 -17.5 33.5
t-16.5 44.5q0 3 15 83l17 10l41 -120q24 -70 80 -70q37 0 68 19.5t37 38.5zM1024 141q1 4 -1.5 6t-5.5 1q-12 -3 -23 4.5t-19.5 25t-13.5 31t-11.5 36.5t-7.5 26q-16 46 -73 44q15 8 68 39q19 11 36.5 20.5t26 13.5t15 8t9 7.5t3.5 8.5l2 7q1 4 -2 7.5t-7 3.5h-99
q-12 0 -14 -10q-1 -2 -1.5 -4t-1.5 -7.5t1 -6.5q8 -9 9.5 -13.5t-3 -10.5t-18.5 -15l-64 -38l-40 -23q18 103 42 240q11 58 -1.5 70.5t-56.5 5.5q-67 -15 -103 -35q-8 -4 -9.5 -14t3.5 -16q2 -2 14.5 -7.5t19 -16t3.5 -30.5l-56 -318q-2 -16 -31 -41t-31 -29l-3 -15
q-1 -10 10 -10h197q12 0 14 10l1 6q1 8 -18 33.5t-16 44.5l2 10q1 10 5 31.5t7 41.5l18 10l40 -120q24 -70 80 -70q36 0 67 19.5t37 38.5z" />
    <glyph glyph-name="quotesinglbase" unicode="&#x201a;" horiz-adv-x="1093" 
d="M154 705h1012l-124 -705h-1012zM553 141q0 9 -8 7q-12 -3 -23 4.5t-19.5 25t-13.5 31t-11.5 36.5t-7.5 26q-16 46 -72 44q15 8 39 22t29 17q19 11 36.5 20.5t26 13.5t15 8t9 7.5t3.5 8.5l1 7q1 4 -1.5 7.5t-7.5 3.5h-99q-5 0 -9.5 -3t-4.5 -7l-1 -18q10 -11 8.5 -19
t-21.5 -20l-64 -38l-40 -23q9 52 25.5 142t17.5 98q6 31 4.5 48.5t-9 24t-21 7t-32.5 -3.5q-65 -14 -104 -35q-8 -4 -9.5 -14t3.5 -16q2 -2 14.5 -7.5t19 -16t2.5 -30.5l-56 -318q-2 -16 -30.5 -41t-30.5 -29l-3 -15q-1 -10 10 -10h198q10 0 12 10l1 6q2 8 -17.5 33.5
t-16.5 44.5q0 3 15 83l17 10l41 -120q24 -70 80 -70q37 0 68 19.5t37 38.5zM1009 141q1 4 -1.5 6t-5.5 1q-12 -3 -23 4.5t-19.5 25t-13.5 31t-11.5 36.5t-7.5 26q-16 46 -73 44q15 8 68 39q19 11 36.5 20.5t26 13.5t15 8t9 7.5t3.5 8.5l2 7q1 4 -2 7.5t-7 3.5h-99
q-12 0 -14 -10q-1 -2 -1.5 -4t-1.5 -7.5t1 -6.5q8 -9 9.5 -13.5t-3 -10.5t-18.5 -15l-64 -38l-40 -23q18 103 42 240q11 58 -1.5 70.5t-56.5 5.5q-67 -15 -103 -35q-8 -4 -9.5 -14t3.5 -16q2 -2 14.5 -7.5t19 -16t3.5 -30.5l-56 -318q-2 -16 -31 -41t-31 -29l-3 -15
q-1 -10 10 -10h197q12 0 14 10l1 6q1 8 -18 33.5t-16 44.5l1 10q2 10 6 31.5t7 41.5l18 10l40 -120q24 -70 80 -70q36 0 67 19.5t37 38.5z" />
    <glyph glyph-name="quotedblleft" unicode="&#x201c;" 
d="M169 705h1012l-124 -705h-1012zM568 141q0 9 -8 7q-12 -3 -23 4.5t-19.5 25t-13.5 31t-11.5 36.5t-7.5 26q-16 46 -72 44q15 8 39 22t29 17q19 11 36.5 20.5t26 13.5t15 8t9 7.5t3.5 8.5l1 7q1 4 -1.5 7.5t-7.5 3.5h-99q-5 0 -9.5 -3t-4.5 -7l-1 -18q10 -11 8.5 -19
t-21.5 -20l-64 -38l-40 -23q9 52 25.5 142t17.5 98q6 31 4.5 48.5t-9 24t-21 7t-32.5 -3.5q-65 -14 -104 -35q-8 -4 -9.5 -14t3.5 -16q2 -2 14.5 -7.5t19 -16t2.5 -30.5l-56 -318q-2 -16 -30.5 -41t-30.5 -29l-3 -15q-1 -10 10 -10h198q10 0 12 10l1 6q2 8 -17.5 33.5
t-16.5 44.5q0 3 15 83l17 10l41 -120q24 -70 80 -70q37 0 68 19.5t37 38.5zM1024 141q1 4 -1.5 6t-5.5 1q-12 -3 -23 4.5t-19.5 25t-13.5 31t-11.5 36.5t-7.5 26q-16 46 -73 44q15 8 68 39q19 11 36.5 20.5t26 13.5t15 8t9 7.5t3.5 8.5l2 7q1 4 -2 7.5t-7 3.5h-99
q-12 0 -14 -10q-1 -2 -1.5 -4t-1.5 -7.5t1 -6.5q8 -9 9.5 -13.5t-3 -10.5t-18.5 -15l-64 -38l-40 -23q18 103 42 240q11 58 -1.5 70.5t-56.5 5.5q-67 -15 -103 -35q-8 -4 -9.5 -14t3.5 -16q2 -2 14.5 -7.5t19 -16t3.5 -30.5l-56 -318q-2 -16 -31 -41t-31 -29l-3 -15
q-1 -10 10 -10h197q12 0 14 10l1 6q1 8 -18 33.5t-16 44.5l2 10q1 10 5 31.5t7 41.5l18 10l40 -120q24 -70 80 -70q36 0 67 19.5t37 38.5z" />
    <glyph glyph-name="quotedblright" unicode="&#x201d;" 
d="M169 705h1012l-124 -705h-1012zM568 141q0 9 -8 7q-12 -3 -23 4.5t-19.5 25t-13.5 31t-11.5 36.5t-7.5 26q-16 46 -72 44q15 8 39 22t29 17q19 11 36.5 20.5t26 13.5t15 8t9 7.5t3.5 8.5l1 7q1 4 -1.5 7.5t-7.5 3.5h-99q-5 0 -9.5 -3t-4.5 -7l-1 -18q10 -11 8.5 -19
t-21.5 -20l-64 -38l-40 -23q9 52 25.5 142t17.5 98q6 31 4.5 48.5t-9 24t-21 7t-32.5 -3.5q-65 -14 -104 -35q-8 -4 -9.5 -14t3.5 -16q2 -2 14.5 -7.5t19 -16t2.5 -30.5l-56 -318q-2 -16 -30.5 -41t-30.5 -29l-3 -15q-1 -10 10 -10h198q10 0 12 10l1 6q2 8 -17.5 33.5
t-16.5 44.5q0 3 15 83l17 10l41 -120q24 -70 80 -70q37 0 68 19.5t37 38.5zM1024 141q1 4 -1.5 6t-5.5 1q-12 -3 -23 4.5t-19.5 25t-13.5 31t-11.5 36.5t-7.5 26q-16 46 -73 44q15 8 68 39q19 11 36.5 20.5t26 13.5t15 8t9 7.5t3.5 8.5l2 7q1 4 -2 7.5t-7 3.5h-99
q-12 0 -14 -10q-1 -2 -1.5 -4t-1.5 -7.5t1 -6.5q8 -9 9.5 -13.5t-3 -10.5t-18.5 -15l-64 -38l-40 -23q18 103 42 240q11 58 -1.5 70.5t-56.5 5.5q-67 -15 -103 -35q-8 -4 -9.5 -14t3.5 -16q2 -2 14.5 -7.5t19 -16t3.5 -30.5l-56 -318q-2 -16 -31 -41t-31 -29l-3 -15
q-1 -10 10 -10h197q12 0 14 10l1 6q1 8 -18 33.5t-16 44.5l2 10q1 10 5 31.5t7 41.5l18 10l40 -120q24 -70 80 -70q36 0 67 19.5t37 38.5z" />
    <glyph glyph-name="quotedblbase" unicode="&#x201e;" horiz-adv-x="1093" 
d="M154 705h1012l-124 -705h-1012zM553 141q0 9 -8 7q-12 -3 -23 4.5t-19.5 25t-13.5 31t-11.5 36.5t-7.5 26q-16 46 -72 44q15 8 39 22t29 17q19 11 36.5 20.5t26 13.5t15 8t9 7.5t3.5 8.5l1 7q1 4 -1.5 7.5t-7.5 3.5h-99q-5 0 -9.5 -3t-4.5 -7l-1 -18q10 -11 8.5 -19
t-21.5 -20l-64 -38l-40 -23q9 52 25.5 142t17.5 98q6 31 4.5 48.5t-9 24t-21 7t-32.5 -3.5q-65 -14 -104 -35q-8 -4 -9.5 -14t3.5 -16q2 -2 14.5 -7.5t19 -16t2.5 -30.5l-56 -318q-2 -16 -30.5 -41t-30.5 -29l-3 -15q-1 -10 10 -10h198q10 0 12 10l1 6q2 8 -17.5 33.5
t-16.5 44.5q0 3 15 83l17 10l41 -120q24 -70 80 -70q37 0 68 19.5t37 38.5zM1009 141q1 4 -1.5 6t-5.5 1q-12 -3 -23 4.5t-19.5 25t-13.5 31t-11.5 36.5t-7.5 26q-16 46 -73 44q15 8 68 39q19 11 36.5 20.5t26 13.5t15 8t9 7.5t3.5 8.5l2 7q1 4 -2 7.5t-7 3.5h-99
q-12 0 -14 -10q-1 -2 -1.5 -4t-1.5 -7.5t1 -6.5q8 -9 9.5 -13.5t-3 -10.5t-18.5 -15l-64 -38l-40 -23q18 103 42 240q11 58 -1.5 70.5t-56.5 5.5q-67 -15 -103 -35q-8 -4 -9.5 -14t3.5 -16q2 -2 14.5 -7.5t19 -16t3.5 -30.5l-56 -318q-2 -16 -31 -41t-31 -29l-3 -15
q-1 -10 10 -10h197q12 0 14 10l1 6q1 8 -18 33.5t-16 44.5l1 10q2 10 6 31.5t7 41.5l18 10l40 -120q24 -70 80 -70q36 0 67 19.5t37 38.5z" />
    <glyph glyph-name="dagger" unicode="&#x2020;" horiz-adv-x="1113" 
d="M174 705h1012l-124 -705h-1012zM573 141q0 9 -8 7q-12 -3 -23 4.5t-19.5 25t-13.5 31t-11.5 36.5t-7.5 26q-16 46 -72 44q15 8 39 22t29 17q19 11 36.5 20.5t26 13.5t15 8t9 7.5t3.5 8.5l1 7q1 4 -1.5 7.5t-7.5 3.5h-99q-5 0 -9.5 -3t-4.5 -7l-1 -18q10 -11 8.5 -19
t-21.5 -20l-64 -38l-40 -23q9 52 25.5 142t17.5 98q6 31 4.5 48.5t-9 24t-21 7t-32.5 -3.5q-65 -14 -104 -35q-8 -4 -9.5 -14t3.5 -16q2 -2 14.5 -7.5t19 -16t2.5 -30.5l-56 -318q-2 -16 -30.5 -41t-30.5 -29l-3 -15q-1 -10 10 -10h198q10 0 12 10l1 6q2 8 -17.5 33.5
t-16.5 44.5q0 3 15 83l17 10l41 -120q24 -70 80 -70q37 0 68 19.5t37 38.5zM1029 141q1 4 -1.5 6t-5.5 1q-12 -3 -23 4.5t-19.5 25t-13.5 31t-11.5 36.5t-7.5 26q-16 46 -73 44q15 8 68 39q19 11 36.5 20.5t26 13.5t15 8t9 7.5t3.5 8.5l2 7q1 4 -2 7.5t-7 3.5h-99
q-12 0 -14 -10q-1 -2 -1.5 -4t-1.5 -7.5t1 -6.5q8 -9 9.5 -13.5t-3 -10.5t-18.5 -15l-64 -38l-40 -23q18 103 42 240q11 58 -1.5 70.5t-56.5 5.5q-67 -15 -103 -35q-8 -4 -9.5 -14t3.5 -16q2 -2 14.5 -7.5t19 -16t3.5 -30.5l-56 -318q-2 -16 -31 -41t-31 -29l-3 -15
q-1 -10 10 -10h197q12 0 14 10l1 6q1 8 -18 33.5t-16 44.5l1 10q2 10 6 31.5t7 41.5l18 10l40 -120q24 -70 80 -70q36 0 67 19.5t37 38.5z" />
    <glyph glyph-name="bullet" unicode="&#x2022;" horiz-adv-x="1113" 
d="M174 705h1012l-124 -705h-1012zM573 141q0 9 -8 7q-12 -3 -23 4.5t-19.5 25t-13.5 31t-11.5 36.5t-7.5 26q-16 46 -72 44q15 8 39 22t29 17q19 11 36.5 20.5t26 13.5t15 8t9 7.5t3.5 8.5l1 7q1 4 -1.5 7.5t-7.5 3.5h-99q-5 0 -9.5 -3t-4.5 -7l-1 -18q10 -11 8.5 -19
t-21.5 -20l-64 -38l-40 -23q9 52 25.5 142t17.5 98q6 31 4.5 48.5t-9 24t-21 7t-32.5 -3.5q-65 -14 -104 -35q-8 -4 -9.5 -14t3.5 -16q2 -2 14.5 -7.5t19 -16t2.5 -30.5l-56 -318q-2 -16 -30.5 -41t-30.5 -29l-3 -15q-1 -10 10 -10h198q10 0 12 10l1 6q2 8 -17.5 33.5
t-16.5 44.5q0 3 15 83l17 10l41 -120q24 -70 80 -70q37 0 68 19.5t37 38.5zM1029 141q1 4 -1.5 6t-5.5 1q-12 -3 -23 4.5t-19.5 25t-13.5 31t-11.5 36.5t-7.5 26q-16 46 -73 44q15 8 68 39q19 11 36.5 20.5t26 13.5t15 8t9 7.5t3.5 8.5l2 7q1 4 -2 7.5t-7 3.5h-99
q-12 0 -14 -10q-1 -2 -1.5 -4t-1.5 -7.5t1 -6.5q8 -9 9.5 -13.5t-3 -10.5t-18.5 -15l-64 -38l-40 -23q18 103 42 240q11 58 -1.5 70.5t-56.5 5.5q-67 -15 -103 -35q-8 -4 -9.5 -14t3.5 -16q2 -2 14.5 -7.5t19 -16t3.5 -30.5l-56 -318q-2 -16 -31 -41t-31 -29l-3 -15
q-1 -10 10 -10h197q12 0 14 10l1 6q1 8 -18 33.5t-16 44.5l1 10q2 10 6 31.5t7 41.5l18 10l40 -120q24 -70 80 -70q36 0 67 19.5t37 38.5z" />
    <glyph glyph-name="ellipsis" unicode="&#x2026;" horiz-adv-x="1143" 
d="M189 705h1013l-125 -705h-1012zM588 141q1 4 -1.5 6t-6.5 1q-12 -3 -23 4.5t-19.5 25t-13.5 31t-11.5 36.5t-7.5 26q-14 46 -72 44q15 8 39 22t29 17q19 11 36.5 20.5t26 13.5t15 8t9 7.5t3.5 8.5l1 7q1 4 -1.5 7.5t-7.5 3.5h-99q-5 0 -9.5 -3t-4.5 -7l-1 -18
q10 -11 8.5 -19t-21.5 -20l-104 -61q9 52 25.5 142t17.5 98q7 48 1 64t-28 16q-25 0 -68.5 -13.5t-66.5 -25.5q-8 -4 -9.5 -14t3.5 -16q2 -2 14.5 -7.5t19 -16t2.5 -30.5l-56 -318q-2 -16 -30.5 -41t-30.5 -28l-3 -16q-1 -10 10 -10h198q10 0 12 10l1 6q2 8 -17.5 33.5
t-16.5 44.5q0 3 15 83l17 11l41 -121q25 -70 80 -70q37 0 68 19.5t37 38.5zM1044 141q1 4 -1.5 6t-5.5 1q-12 -3 -23 4.5t-19.5 25t-13.5 31t-11.5 36.5t-7.5 26q-16 46 -73 44q15 8 68 39q19 11 36.5 20.5t26 13.5t15.5 8t9.5 7.5t3.5 8.5l1 7q2 11 -9 11h-99
q-12 0 -14 -10q-1 -2 -1.5 -4t-1.5 -7.5t1 -6.5q8 -9 9.5 -13.5t-3 -10.5t-18.5 -15l-104 -61q18 103 42 240q7 48 1.5 64t-27.5 16q-25 0 -68.5 -13.5t-66.5 -25.5q-8 -4 -9 -14t3 -16q2 -2 14.5 -7.5t19 -16t3.5 -30.5l-56 -318q-2 -16 -31 -41t-31 -28l-3 -16
q-1 -10 10 -10h197q12 0 14 10l1 6q1 8 -18 33.5t-16 44.5l2 10q1 10 5 31.5t7 41.5l18 11l41 -121q23 -70 79 -70q36 0 67 19.5t37 38.5z" />
    <glyph glyph-name="guilsinglleft" unicode="&#x2039;" horiz-adv-x="1113" 
d="M174 705h1012l-124 -705h-1012zM573 141q0 9 -8 7q-12 -3 -23 4.5t-19.5 25t-13.5 31t-11.5 36.5t-7.5 26q-16 46 -72 44q15 8 39 22t29 17q19 11 36.5 20.5t26 13.5t15 8t9 7.5t3.5 8.5l1 7q1 4 -1.5 7.5t-7.5 3.5h-99q-5 0 -9.5 -3t-4.5 -7l-1 -18q10 -11 8.5 -19
t-21.5 -20l-64 -38l-40 -23q9 52 25.5 142t17.5 98q6 31 4.5 48.5t-9 24t-21 7t-32.5 -3.5q-65 -14 -104 -35q-8 -4 -9.5 -14t3.5 -16q2 -2 14.5 -7.5t19 -16t2.5 -30.5l-56 -318q-2 -16 -30.5 -41t-30.5 -29l-3 -15q-1 -10 10 -10h198q10 0 12 10l1 6q2 8 -17.5 33.5
t-16.5 44.5q0 3 15 83l17 10l41 -120q24 -70 80 -70q37 0 68 19.5t37 38.5zM1029 141q1 4 -1.5 6t-5.5 1q-12 -3 -23 4.5t-19.5 25t-13.5 31t-11.5 36.5t-7.5 26q-16 46 -73 44q15 8 68 39q19 11 36.5 20.5t26 13.5t15 8t9 7.5t3.5 8.5l2 7q1 4 -2 7.5t-7 3.5h-99
q-12 0 -14 -10q-1 -2 -1.5 -4t-1.5 -7.5t1 -6.5q8 -9 9.5 -13.5t-3 -10.5t-18.5 -15l-64 -38l-40 -23q18 103 42 240q11 58 -1.5 70.5t-56.5 5.5q-67 -15 -103 -35q-8 -4 -9.5 -14t3.5 -16q2 -2 14.5 -7.5t19 -16t3.5 -30.5l-56 -318q-2 -16 -31 -41t-31 -29l-3 -15
q-1 -10 10 -10h197q12 0 14 10l1 6q1 8 -18 33.5t-16 44.5l1 10q2 10 6 31.5t7 41.5l18 10l40 -120q24 -70 80 -70q36 0 67 19.5t37 38.5z" />
    <glyph glyph-name="guilsinglright" unicode="&#x203a;" horiz-adv-x="1113" 
d="M174 705h1012l-124 -705h-1012zM573 141q0 9 -8 7q-12 -3 -23 4.5t-19.5 25t-13.5 31t-11.5 36.5t-7.5 26q-16 46 -72 44q15 8 39 22t29 17q19 11 36.5 20.5t26 13.5t15 8t9 7.5t3.5 8.5l1 7q1 4 -1.5 7.5t-7.5 3.5h-99q-5 0 -9.5 -3t-4.5 -7l-1 -18q10 -11 8.5 -19
t-21.5 -20l-64 -38l-40 -23q9 52 25.5 142t17.5 98q6 31 4.5 48.5t-9 24t-21 7t-32.5 -3.5q-65 -14 -104 -35q-8 -4 -9.5 -14t3.5 -16q2 -2 14.5 -7.5t19 -16t2.5 -30.5l-56 -318q-2 -16 -30.5 -41t-30.5 -29l-3 -15q-1 -10 10 -10h198q10 0 12 10l1 6q2 8 -17.5 33.5
t-16.5 44.5q0 3 15 83l17 10l41 -120q24 -70 80 -70q37 0 68 19.5t37 38.5zM1029 141q1 4 -1.5 6t-5.5 1q-12 -3 -23 4.5t-19.5 25t-13.5 31t-11.5 36.5t-7.5 26q-16 46 -73 44q15 8 68 39q19 11 36.5 20.5t26 13.5t15 8t9 7.5t3.5 8.5l2 7q1 4 -2 7.5t-7 3.5h-99
q-12 0 -14 -10q-1 -2 -1.5 -4t-1.5 -7.5t1 -6.5q8 -9 9.5 -13.5t-3 -10.5t-18.5 -15l-64 -38l-40 -23q18 103 42 240q11 58 -1.5 70.5t-56.5 5.5q-67 -15 -103 -35q-8 -4 -9.5 -14t3.5 -16q2 -2 14.5 -7.5t19 -16t3.5 -30.5l-56 -318q-2 -16 -31 -41t-31 -29l-3 -15
q-1 -10 10 -10h197q12 0 14 10l1 6q1 8 -18 33.5t-16 44.5l1 10q2 10 6 31.5t7 41.5l18 10l40 -120q24 -70 80 -70q36 0 67 19.5t37 38.5z" />
    <glyph glyph-name="Euro" unicode="&#x20ac;" 
d="M169 705h1012l-124 -705h-1012zM568 141q0 9 -8 7q-12 -3 -23 4.5t-19.5 25t-13.5 31t-11.5 36.5t-7.5 26q-16 46 -72 44q15 8 39 22t29 17q19 11 36.5 20.5t26 13.5t15 8t9 7.5t3.5 8.5l1 7q1 4 -1.5 7.5t-7.5 3.5h-99q-5 0 -9.5 -3t-4.5 -7l-1 -18q10 -11 8.5 -19
t-21.5 -20l-64 -38l-40 -23q9 52 25.5 142t17.5 98q6 31 4.5 48.5t-9 24t-21 7t-32.5 -3.5q-65 -14 -104 -35q-8 -4 -9.5 -14t3.5 -16q2 -2 14.5 -7.5t19 -16t2.5 -30.5l-56 -318q-2 -16 -30.5 -41t-30.5 -29l-3 -15q-1 -10 10 -10h198q10 0 12 10l1 6q2 8 -17.5 33.5
t-16.5 44.5q0 3 15 83l17 10l41 -120q24 -70 80 -70q37 0 68 19.5t37 38.5zM1024 141q1 4 -1.5 6t-5.5 1q-12 -3 -23 4.5t-19.5 25t-13.5 31t-11.5 36.5t-7.5 26q-16 46 -73 44q15 8 68 39q19 11 36.5 20.5t26 13.5t15 8t9 7.5t3.5 8.5l2 7q1 4 -2 7.5t-7 3.5h-99
q-12 0 -14 -10q-1 -2 -1.5 -4t-1.5 -7.5t1 -6.5q8 -9 9.5 -13.5t-3 -10.5t-18.5 -15l-64 -38l-40 -23q18 103 42 240q11 58 -1.5 70.5t-56.5 5.5q-67 -15 -103 -35q-8 -4 -9.5 -14t3.5 -16q2 -2 14.5 -7.5t19 -16t3.5 -30.5l-56 -318q-2 -16 -31 -41t-31 -29l-3 -15
q-1 -10 10 -10h197q12 0 14 10l1 6q1 8 -18 33.5t-16 44.5l2 10q1 10 5 31.5t7 41.5l18 10l40 -120q24 -70 80 -70q36 0 67 19.5t37 38.5z" />
    <glyph glyph-name="minus" unicode="&#x2212;" horiz-adv-x="1113" 
d="M174 705h1012l-124 -705h-1012zM573 141q0 9 -8 7q-12 -3 -23 4.5t-19.5 25t-13.5 31t-11.5 36.5t-7.5 26q-16 46 -72 44q15 8 39 22t29 17q19 11 36.5 20.5t26 13.5t15 8t9 7.5t3.5 8.5l1 7q1 4 -1.5 7.5t-7.5 3.5h-99q-5 0 -9.5 -3t-4.5 -7l-1 -18q10 -11 8.5 -19
t-21.5 -20l-64 -38l-40 -23q9 52 25.5 142t17.5 98q6 31 4.5 48.5t-9 24t-21 7t-32.5 -3.5q-65 -14 -104 -35q-8 -4 -9.5 -14t3.5 -16q2 -2 14.5 -7.5t19 -16t2.5 -30.5l-56 -318q-2 -16 -30.5 -41t-30.5 -29l-3 -15q-1 -10 10 -10h198q10 0 12 10l1 6q2 8 -17.5 33.5
t-16.5 44.5q0 3 15 83l17 10l41 -120q24 -70 80 -70q37 0 68 19.5t37 38.5zM1029 141q1 4 -1.5 6t-5.5 1q-12 -3 -23 4.5t-19.5 25t-13.5 31t-11.5 36.5t-7.5 26q-16 46 -73 44q15 8 68 39q19 11 36.5 20.5t26 13.5t15 8t9 7.5t3.5 8.5l2 7q1 4 -2 7.5t-7 3.5h-99
q-12 0 -14 -10q-1 -2 -1.5 -4t-1.5 -7.5t1 -6.5q8 -9 9.5 -13.5t-3 -10.5t-18.5 -15l-64 -38l-40 -23q18 103 42 240q11 58 -1.5 70.5t-56.5 5.5q-67 -15 -103 -35q-8 -4 -9.5 -14t3.5 -16q2 -2 14.5 -7.5t19 -16t3.5 -30.5l-56 -318q-2 -16 -31 -41t-31 -29l-3 -15
q-1 -10 10 -10h197q12 0 14 10l1 6q1 8 -18 33.5t-16 44.5l1 10q2 10 6 31.5t7 41.5l18 10l40 -120q24 -70 80 -70q36 0 67 19.5t37 38.5z" />
    <glyph glyph-name="ampersand.01" 
d="M169 705h1012l-124 -705h-1012zM568 141q0 9 -8 7q-12 -3 -23 4.5t-19.5 25t-13.5 31t-11.5 36.5t-7.5 26q-16 46 -72 44q15 8 39 22t29 17q19 11 36.5 20.5t26 13.5t15 8t9 7.5t3.5 8.5l1 7q1 4 -1.5 7.5t-7.5 3.5h-99q-5 0 -9.5 -3t-4.5 -7l-1 -18q10 -11 8.5 -19
t-21.5 -20l-64 -38l-40 -23q9 52 25.5 142t17.5 98q6 31 4.5 48.5t-9 24t-21 7t-32.5 -3.5q-65 -14 -104 -35q-8 -4 -9.5 -14t3.5 -16q2 -2 14.5 -7.5t19 -16t2.5 -30.5l-56 -318q-2 -16 -30.5 -41t-30.5 -29l-3 -15q-1 -10 10 -10h198q10 0 12 10l1 6q2 8 -17.5 33.5
t-16.5 44.5q0 3 15 83l17 10l41 -120q24 -70 80 -70q37 0 68 19.5t37 38.5zM1024 141q1 4 -1.5 6t-5.5 1q-12 -3 -23 4.5t-19.5 25t-13.5 31t-11.5 36.5t-7.5 26q-16 46 -73 44q15 8 68 39q19 11 36.5 20.5t26 13.5t15 8t9 7.5t3.5 8.5l2 7q1 4 -2 7.5t-7 3.5h-99
q-12 0 -14 -10q-1 -2 -1.5 -4t-1.5 -7.5t1 -6.5q8 -9 9.5 -13.5t-3 -10.5t-18.5 -15l-64 -38l-40 -23q18 103 42 240q11 58 -1.5 70.5t-56.5 5.5q-67 -15 -103 -35q-8 -4 -9.5 -14t3.5 -16q2 -2 14.5 -7.5t19 -16t3.5 -30.5l-56 -318q-2 -16 -31 -41t-31 -29l-3 -15
q-1 -10 10 -10h197q12 0 14 10l1 6q1 8 -18 33.5t-16 44.5l2 10q1 10 5 31.5t7 41.5l18 10l40 -120q24 -70 80 -70q36 0 67 19.5t37 38.5z" />
    </font>
</defs>
</svg>
